<svg xmlns="http://www.w3.org/2000/svg" viewBox="0 0 336.93 78.23"><defs><style>.cls-1{fill:#fff;}</style></defs><title>Asset 2</title><g id="Layer_2" data-name="Layer 2"><g id="Layer_1-2" data-name="Layer 1"><path class="cls-1" d="M27.29,9.28a18,18,0,1,1-18,18,18,18,0,0,1,18-18m0-9.28A27.29,27.29,0,1,0,54.58,27.29,27.29,27.29,0,0,0,27.29,0Z"/><path class="cls-1" d="M72.87,46.77H95.11v7.81H64.92V0h8Z"/><path class="cls-1" d="M129.69,37.48h-15a12.14,12.14,0,0,0,4.16,6.77,12.16,12.16,0,0,0,3.5,2,11.84,11.84,0,0,0,4.09.7,11.45,11.45,0,0,0,4.87-1,12.44,12.44,0,0,0,4-2.9h9a12.76,12.76,0,0,1-1.07,2.12c-.43.67-.88,1.33-1.38,2a19.87,19.87,0,0,1-6.69,5.47,19,19,0,0,1-8.7,2,19.39,19.39,0,0,1-7.66-1.52,19.56,19.56,0,0,1-10.45-10.45,20.06,20.06,0,0,1,0-15.32,19.56,19.56,0,0,1,10.45-10.45,19.39,19.39,0,0,1,7.66-1.52,19,19,0,0,1,8.7,2,19.49,19.49,0,0,1,6.69,5.54A19.12,19.12,0,0,1,146.12,35a14.53,14.53,0,0,1-.22,2.53H129.69ZM126.49,23A11.62,11.62,0,0,0,120,24.85a12.09,12.09,0,0,0-4.35,5h21.71c-.24-.39-.48-.78-.7-1.18a13,13,0,0,0-.71-1.1,12.3,12.3,0,0,0-4.16-3.35A11.76,11.76,0,0,0,126.49,23Z"/><path class="cls-1" d="M191.16,56a9,9,0,0,1,5.74,2.68,10.14,10.14,0,0,1,2.2,3.42,13.35,13.35,0,0,1,.86,5.06,13.26,13.26,0,0,1-.9,5.17,10.1,10.1,0,0,1-2.23,3.42,8.48,8.48,0,0,1-2.9,1.89,8.09,8.09,0,0,1-2.9.6H172.52a24.09,24.09,0,0,1-5.28-.74,15,15,0,0,1-4.69-2.09,11.7,11.7,0,0,1-3.38-3.49,9.07,9.07,0,0,1-1.3-4.91h7.66a2.23,2.23,0,0,0,1.08,1.94A7.87,7.87,0,0,0,169,70a23.74,23.74,0,0,0,3.55.57h18.34c.94-.1,1.42-1.23,1.42-3.38a7.58,7.58,0,0,0-.19-1.84,3.13,3.13,0,0,0-.45-1.09,1.31,1.31,0,0,0-.48-.49.87.87,0,0,0-.3-.12H172.52a20.88,20.88,0,0,1-5.28-.67,15.14,15.14,0,0,1-4.69-2,11.27,11.27,0,0,1-3.38-3.46,9.19,9.19,0,0,1-1.3-5,8.9,8.9,0,0,1,1.6-5.35,11.81,11.81,0,0,1,4.05-3.57,17.06,17.06,0,0,1-2.9-5,17.37,17.37,0,0,1,.3-12.61A17.3,17.3,0,0,1,170,16.81a16.36,16.36,0,0,1,6.65-1.34h19.56v7.66H191a17.72,17.72,0,0,1,2.08,4.5,16.81,16.81,0,0,1,.75,5,16.54,16.54,0,0,1-1.27,6.46,16.89,16.89,0,0,1-8.57,9,17.43,17.43,0,0,1-6.34,1.64h-9.1a7.35,7.35,0,0,0-2.12,1,2,2,0,0,0-.93,1.71,2.13,2.13,0,0,0,1.08,1.93,9.13,9.13,0,0,0,2.34,1,17.09,17.09,0,0,0,3.51.52ZM176.68,23.13a9.38,9.38,0,0,0-3.68.74,9.08,9.08,0,0,0-3,2.05,9.94,9.94,0,0,0-2,3,9.55,9.55,0,0,0,0,7.37,9.57,9.57,0,0,0,2,3,9.62,9.62,0,0,0,6.69,2.75,9.16,9.16,0,0,0,3.72-.75,10,10,0,0,0,3-2,9.19,9.19,0,0,0,2.05-3,9.49,9.49,0,0,0-2.05-10.41,9.74,9.74,0,0,0-3-2.05A9.32,9.32,0,0,0,176.68,23.13Z"/><path class="cls-1" d="M230.41,15.32a19.11,19.11,0,0,1,7.68,1.56,20.42,20.42,0,0,1,6.31,4.24,19.76,19.76,0,0,1,5.83,14.05V54.43h-7.66v-3.6a21.19,21.19,0,0,1-5.58,3,19.88,19.88,0,0,1-14.24-.46,19.81,19.81,0,0,1-10.52-10.52,19.17,19.17,0,0,1-1.57-7.7,19.45,19.45,0,0,1,1.56-7.73,19.73,19.73,0,0,1,10.51-10.56A19.11,19.11,0,0,1,230.41,15.32Zm0,32a11.54,11.54,0,0,0,4.73-1,12.39,12.39,0,0,0,6.43-6.47,11.6,11.6,0,0,0,1-4.68,11.8,11.8,0,0,0-1-4.75A12.39,12.39,0,0,0,235.17,24a12,12,0,0,0-9.45,0,12.39,12.39,0,0,0-6.43,6.47,11.8,11.8,0,0,0-1,4.75,11.6,11.6,0,0,0,1,4.68,12.39,12.39,0,0,0,6.43,6.47A11.49,11.49,0,0,0,230.44,47.29Z"/><path class="cls-1" d="M283.69,36.36a12.8,12.8,0,0,1,1.63,3.24,10,10,0,0,1,.52,3.68,10.77,10.77,0,0,1-1.11,4.53A12.49,12.49,0,0,1,282,51.46a12.16,12.16,0,0,1-4,2.42,12.7,12.7,0,0,1-4.83.78,13.4,13.4,0,0,1-6.43-1.86,11.36,11.36,0,0,1-4.35-4.54l6.39-4.46a4.17,4.17,0,0,0,1.64,2.27,4.86,4.86,0,0,0,3,.93,4.93,4.93,0,0,0,3.38-1.08,3.51,3.51,0,0,0,1.45-2.86,2.68,2.68,0,0,0-.07-.75v-.15a.56.56,0,0,1-.07-.26.63.63,0,0,0-.08-.26A4.37,4.37,0,0,0,276,39.56a2.89,2.89,0,0,0-.67-.3l.07-.07a23.46,23.46,0,0,0-2.3-1.15c-.85-.38-1.7-.77-2.57-1.19S268.84,36,268,35.51a13.48,13.48,0,0,1-2.38-1.68v-.07l-.23-.22a11.12,11.12,0,0,1-2.45-3.46,9.34,9.34,0,0,1-.82-4.2,10,10,0,0,1,1-4.17,11.06,11.06,0,0,1,2.57-3.34,12,12,0,0,1,3.75-2.23,11.79,11.79,0,0,1,4.61-.75A13.07,13.07,0,0,1,279.86,17a10.89,10.89,0,0,1,4.05,3.8l-6.25,4.31a3.72,3.72,0,0,0-1.45-1.41,4.32,4.32,0,0,0-2.26-.6,4.55,4.55,0,0,0-2.94.82A2.6,2.6,0,0,0,269.78,26a1.24,1.24,0,0,0,.08.52A2.55,2.55,0,0,0,270.6,28a4.53,4.53,0,0,0,1.49,1c.94.54,2,1.1,3.23,1.67s2.44,1.2,3.68,1.9a10.94,10.94,0,0,1,2.68,1.71l.37.37A15,15,0,0,1,283.69,36.36Z"/><path class="cls-1" d="M320.5,37.48H305.55a12.14,12.14,0,0,0,4.16,6.77,12.16,12.16,0,0,0,3.5,2,11.84,11.84,0,0,0,4.09.7,11.45,11.45,0,0,0,4.87-1,12.33,12.33,0,0,0,4-2.9h9a13.63,13.63,0,0,1-1.08,2.12,23.32,23.32,0,0,1-1.38,2A19.77,19.77,0,0,1,326,52.54a19,19,0,0,1-8.7,2,19.39,19.39,0,0,1-7.66-1.52,19.56,19.56,0,0,1-10.45-10.45,20.06,20.06,0,0,1,0-15.32,19.56,19.56,0,0,1,10.45-10.45,19.39,19.39,0,0,1,7.66-1.52,19,19,0,0,1,8.7,2,19.39,19.39,0,0,1,6.69,5.54A19.12,19.12,0,0,1,336.93,35a14.53,14.53,0,0,1-.22,2.53H320.5ZM317.3,23a11.62,11.62,0,0,0-6.51,1.87,12.09,12.09,0,0,0-4.35,5h21.71c-.24-.39-.48-.78-.7-1.18a10.93,10.93,0,0,0-.71-1.1,12.3,12.3,0,0,0-4.16-3.35A11.76,11.76,0,0,0,317.3,23Z"/><circle class="cls-1" cx="27.29" cy="27.39" r="4.13"/></g></g></svg>