<svg xmlns="http://www.w3.org/2000/svg" xmlns:xlink="http://www.w3.org/1999/xlink" viewBox="0 0 278.47 285.08"><defs><style>.cls-1{fill:none;}.cls-2{fill:#333;}.cls-3{fill:#f16667;}.cls-4{fill:#ee1e3a;}.cls-5{fill:#999;}.cls-6{clip-path:url(#clip-path);}.cls-7{fill:#ffce07;}</style><clipPath id="clip-path"><path class="cls-1" d="M99.33,39l-6.75,9.17L103,55.81,92.56,70.27l.45.32c-9.14-5.35-18.79-8-27-6.45a27.31,27.31,0,0,0-11.19,5,15.46,15.46,0,0,0,.9,5.33,16,16,0,0,0,4.53,6.64,35,35,0,0,1-20.91-8.7C29.94,63.9,28.65,52.87,28.16,48.67,27,38.62,29,24,37.23,16.33c16.27-15,54.66-.65,82.7,16.18L109.72,46.59Z"/></clipPath></defs><title>Asset 1</title><g id="Layer_2" data-name="Layer 2"><g id="Layer_1-2" data-name="Layer 1"><path class="cls-2" d="M66.46,235.45c-.91-1.08-1.79-2.2-2.65-3.32q-1.8-2.37-3.47-4.85l-.66-1a100.74,100.74,0,0,1-6.89-12.18,120.09,120.09,0,0,1,18.07-23.32c-1,5.17-1.84,10.38-2.49,15.6-.06.41-.11.82-.14,1.22-.48,3.75-.84,7.51-1.12,11.25C66.7,224.34,66.48,229.9,66.46,235.45Z"/><path class="cls-2" d="M48.76,256.74a88.66,88.66,0,0,0-14.51,10.93c0-.43,0-.86,0-1.31.06-.61.13-1.22.24-1.82l0-.08a156.66,156.66,0,0,1,14.24-43.11c1-2.06,2.15-4.09,3.31-6.09a107,107,0,0,0,6.9,12,65,65,0,0,0-10.24,29.44Z"/><path class="cls-2" d="M73.1,244.32c-.22.77-.41,1.55-.61,2.34A88.38,88.38,0,0,0,53.72,254c-1.27.66-2.53,1.36-3.77,2.08a65,65,0,0,1,9.72-27.74c1,1.54,2.12,3.05,3.25,4.52s2.31,2.95,3.53,4.38c.37.44.74.87,1.12,1.29C69.33,240.51,71.18,242.45,73.1,244.32Z"/><path class="cls-2" d="M50.32,285a17.38,17.38,0,0,1-16-15.87,87.22,87.22,0,0,1,14.34-11c.39-.25.78-.48,1.18-.71q2.16-1.31,4.41-2.49a89.07,89.07,0,0,1,17.95-7A135.8,135.8,0,0,0,69,269,17.4,17.4,0,0,1,50.32,285Z"/><path class="cls-2" d="M95.27,203.6l-.32.34a90.85,90.85,0,0,0-18.48,30c-1.14,3-2.16,6-3,9.14q-3.08-3-5.88-6.3c0-6,.21-11.95.65-17.85.3-3.89.68-7.78,1.18-11.67a134.65,134.65,0,0,0,14.43-5c3-1.27,6.08-2.64,9-4.13C93.62,200,94.41,201.79,95.27,203.6Z"/><path class="cls-2" d="M92.46,197q-4.47,2.25-9,4.15A137.86,137.86,0,0,1,69.55,206c.72-5.58,1.63-11.15,2.73-16.66q2.25-2.17,4.61-4.21a121,121,0,0,1,10-7.84,109.22,109.22,0,0,0,3.73,14.49C91.15,193.57,91.78,195.3,92.46,197Z"/><path class="cls-2" d="M107,192.9a98.62,98.62,0,0,0-10.86,9.81q-1.18-2.53-2.23-5.14c-.14-.36-.28-.7-.41-1.06q-1-2.5-1.82-5a108.73,108.73,0,0,1-3.8-14.84A126.59,126.59,0,0,1,100.33,169q2,5.51,3.56,11.1C105.08,184.31,106.11,188.59,107,192.9Z"/><path class="cls-2" d="M118.63,185A114.41,114.41,0,0,0,108,192.14c-.84-4.15-1.83-8.29-3-12.34-1.07-3.81-2.29-7.6-3.64-11.33,1.1-.58,2.19-1.14,3.3-1.69a23.68,23.68,0,0,1,14,18.18Z"/><polygon class="cls-3" points="278.47 77.46 181.16 104.7 177.04 91.09 278.47 77.46"/><polygon class="cls-4" points="278.47 77.46 189.96 133.78 181.16 104.7 278.47 77.46"/><polygon class="cls-3" points="229.67 5.25 160.66 79.06 149.7 69.12 229.67 5.25"/><polygon class="cls-4" points="229.67 5.25 182.74 99.07 160.66 79.06 229.67 5.25"/><path class="cls-2" d="M99.32,39h0l10.34,7.63,0,0Zm102,123.33c-.3-4.27-.76-8.67-1.43-13.18a160,160,0,0,0-13.77-45.4,167.68,167.68,0,0,0-52.21-62c-4-2.86-8.36-5.78-13.08-8.64L109.91,48.19l-10.5-7.73L94,47.93l10.51,7.76-11,15.19C113,82.52,130,106.59,126,129.64c-3.14,18-18.07,29.3-24.75,33.68a24.42,24.42,0,0,1,6,1.79l.54.25,1.14-.68a54,54,0,0,0,16.51-15.3,55.29,55.29,0,0,0,9.73-33.94C134.42,96.54,124,83.65,119.58,79L118,77.37l3.24-3.1,1.54,1.63c4.79,5,16,18.93,16.9,39.34A59.84,59.84,0,0,1,129.17,152a58.32,58.32,0,0,1-17,16,22.25,22.25,0,0,1,4.37,4.28,24,24,0,0,1,4.77,11,23,23,0,0,1,.25,5.52c2.35-2.61,13.52-14.45,31.71-15.52,3.91-.22,21.93-1.27,34.17,12.93,12.09,14,8.79,31.59,8.33,33.81A180.41,180.41,0,0,0,201.31,162.28Zm-42.13-11.21a13,13,0,1,1,15.64-9.7A13,13,0,0,1,159.18,151.07Z"/><path class="cls-4" d="M119.93,32.52,109.72,46.59l0,0L99.32,39h0l-.14-.1-6.81,9.29,10.53,7.78L92.55,70.27l0,0c-9-5.17-18.44-7.66-26.55-6.17a27.4,27.4,0,0,0-11.18,4.94,15.68,15.68,0,0,0,5.43,12A35,35,0,0,1,39.3,72.37c-9.36-8.47-10.65-19.5-11.14-23.7C27,38.62,29,24,37.23,16.34c16.25-15,54.6-.68,82.64,16.14Z"/><path class="cls-5" d="M119.93,32.52,109.72,46.59l0,0,10.19-14.08Z"/><g class="cls-6"><path class="cls-7" d="M93.09,4.34a62.38,62.38,0,0,1-8.16,10.18,64.08,64.08,0,0,1-10.06,8.39,91.8,91.8,0,0,1-11.5,6.21,126.6,126.6,0,0,1-12,5l-3.11,1c-1,.3-2.1.57-3.16.83-2.11.61-4.28.91-6.43,1.32a80.79,80.79,0,0,1-13.1.88A73.85,73.85,0,0,1,0,32.9l.06-.19A112.75,112.75,0,0,0,25.56,36a111.88,111.88,0,0,0,12.81-.61L41.54,35c.53-.07,1.07-.13,1.59-.22l1.58-.32,3.16-.61L51,33l1.56-.4c.52-.15,1-.33,1.54-.49,1-.32,2-.67,3.07-1a55.39,55.39,0,0,0,5.91-2.59,74.41,74.41,0,0,0,10.83-7c3.44-2.56,6.77-5.25,9.94-8.14s6.17-6,9.08-9.19Z"/><path class="cls-7" d="M15.22,12.36a45.7,45.7,0,0,1,10.22,2.5,47.1,47.1,0,0,1,9.47,4.67,79.5,79.5,0,0,1,8.25,6.54c2.62,2.33,5.15,4.73,7.59,7.27A56.56,56.56,0,0,1,62,51.12,53.2,53.2,0,0,1,65.68,71.8h-.2A85.66,85.66,0,0,0,60,51.91a81.93,81.93,0,0,0-4.44-9.26,94.71,94.71,0,0,0-5.69-8.6,45.73,45.73,0,0,0-7.17-7.48A59.06,59.06,0,0,0,34.05,21c-3-1.69-6-3.26-9.19-4.66s-6.37-2.64-9.68-3.75Z"/><path class="cls-7" d="M54.69,69.14a36.89,36.89,0,0,1-4.12-8.67A40.11,40.11,0,0,1,48.63,51,58.06,58.06,0,0,1,49,41.42a84.57,84.57,0,0,1,1.38-9.48,42.52,42.52,0,0,1,2.94-9.18,49.23,49.23,0,0,1,4.85-8.38A44.22,44.22,0,0,1,72.58,1.79l.11.17A70.8,70.8,0,0,0,59.88,15.63,67.94,67.94,0,0,0,55,23.57c-.63,1.42-1.36,2.8-1.91,4.26-.29.72-.62,1.43-.89,2.17l-.77,2.22a22.44,22.44,0,0,0-.66,2.26c-.2.76-.43,1.52-.56,2.3s-.25,1.55-.37,2.33-.13,1.57-.2,2.36a32.18,32.18,0,0,0,.09,4.71l.22,2.34.35,2.32c.46,3.09,1,6.16,1.77,9.19a91.05,91.05,0,0,0,2.81,9Z"/><path class="cls-7" d="M110.66,24.25,99.68,29c-3.64,1.6-7.24,3.27-10.86,4.91S81.53,37.14,78,39.06a94.3,94.3,0,0,0-10,6.5c-3.19,2.4-6.34,4.82-9.44,7.3S52.49,58,49.5,60.57c-6,5.21-11.72,10.7-17.4,16.34L32,76.78A118.92,118.92,0,0,1,48.08,59,133.67,133.67,0,0,1,67.41,44.65L77.72,38.5c3.42-2.06,6.82-4.19,10.37-6.08a94.42,94.42,0,0,1,11-4.85,91.26,91.26,0,0,1,11.5-3.51Z"/><path class="cls-7" d="M80.75,10.71A58.79,58.79,0,0,1,83,18.46a61.52,61.52,0,0,1,1.34,8c.25,2.68.24,5.39.43,8.06s.49,5.34.79,8a77.44,77.44,0,0,1,.61,8c.09,2.69.12,5.39,0,8.08a84.5,84.5,0,0,1-2.31,16l-.2,0c0-5.39.26-10.71.38-16,.08-2.66.21-5.32.26-8l.18-8a57.9,57.9,0,0,0-.35-8c-.31-2.66-.94-5.27-1.42-7.89s-.85-5.27-1.22-7.91-.74-5.29-1-8Z"/><path class="cls-7" d="M73.8,67.39a53.58,53.58,0,0,1-2.62-8.2,56.73,56.73,0,0,1-1.4-8.49c-.2-2.87-.13-5.75-.18-8.61l-.26-8.58a67.08,67.08,0,0,1,.22-8.62,79.43,79.43,0,0,1,1.15-8.55A69.9,69.9,0,0,1,76.09,0l.19.07C75,5.65,73.77,11.17,72.8,16.74c-.49,2.78-1,5.56-1.37,8.36s-.71,5.61-1,8.44c-.14,1.42-.24,2.84-.28,4.26s0,2.84.09,4.26.28,2.83.49,4.24.45,2.8.7,4.2L74,67.34Z"/><path class="cls-7" d="M22.65,64.62A61.68,61.68,0,0,0,36,52.71,33.52,33.52,0,0,0,41,45.34a28.35,28.35,0,0,0,2.5-8.62l.18-2.24.09-1.11V32.26l0-2.23-.14-2.21A42,42,0,0,0,42,19.14a52.94,52.94,0,0,0-7.9-16L34.25,3a35.76,35.76,0,0,1,9.8,15.49,33.74,33.74,0,0,1,1.52,9.19,32.76,32.76,0,0,1-1,9.21L44,39.14a21.43,21.43,0,0,1-.7,2.19c-.27.71-.51,1.44-.76,2.16l-.89,2.11-.43,1.07-.51,1c-.33.69-.61,1.42-1,2.08l-1.13,2c-.41.66-.85,1.3-1.28,1.94a32.43,32.43,0,0,1-6.51,6.57,29.94,29.94,0,0,1-8,4.49Z"/><path class="cls-7" d="M17.38,61.31a74,74,0,0,1,10.43-7.74,76.13,76.13,0,0,1,11.58-5.93c4-1.6,8.22-2.81,12.38-4s8.34-2.26,12.58-3.17a84.48,84.48,0,0,1,12.88-1.84c2.17-.17,4.34-.21,6.52-.26s4.35.08,6.52.24a86.91,86.91,0,0,1,25.31,5.72l-.06.19a148.53,148.53,0,0,0-25.39-3.78,129.75,129.75,0,0,0-25.6.81A70.36,70.36,0,0,0,52,44.28a97,97,0,0,0-11.89,4.88c-3.88,1.81-7.72,3.69-11.47,5.75s-7.44,4.26-11.09,6.56Z"/><path class="cls-7" d="M103.52,72.79a47,47,0,0,1-11-2.77,48.3,48.3,0,0,1-10.11-5.19,68.94,68.94,0,0,1-8.64-7.34c-1.38-1.28-2.65-2.67-4-4s-2.56-2.78-3.7-4.28A55.31,55.31,0,0,1,55.81,29.05,56,56,0,0,1,54.37,6.51l.2,0a84.94,84.94,0,0,0,3.29,21.94,71.87,71.87,0,0,0,3.77,10.38l1.2,2.5c.39.84.88,1.62,1.31,2.44C65,45.43,66,47,67,48.55c.48.8,1.07,1.52,1.62,2.26S69.76,52.3,70.34,53a47.37,47.37,0,0,0,3.9,4,55.73,55.73,0,0,0,9.1,6.41,96.24,96.24,0,0,0,9.8,5.16,101.91,101.91,0,0,0,10.42,4Z"/></g></g></g></svg>