<svg xmlns="http://www.w3.org/2000/svg" viewBox="0 0 130.35 83.18"><defs><style>.a{opacity:0.75;}.b{fill:#c18f8f;stroke:#fff;stroke-miterlimit:10;}.c{fill:#231f20;}.d{fill:#333;}.e{fill:#f16667;}.f{fill:#ee1e3a;}</style></defs><g class="a"><path class="b" d="M126.38,82.5c-5.19-.23-10.45-2.23-15.59-2.37-.65-.14-.3.52-1,.38l-1-.22c.34.47,0,.79-.29.71-2.9-.24-6.13-.59-8.71-2a18.61,18.61,0,0,0-3.23-1.13c0,.2,0,.2,0,.39,0-.39-.64-.15-1-.41,0-.2,0-.2,0-.39s-.33-.27-.65-.35c0-.2,0-.2,0-.39-.63,0-1.28-.49-1.91-.24,0-.21,0-.21,0-.4-.32.12-1-.41-1.28-.1a2.91,2.91,0,0,0,0-.31c0,.16,0,.29-.31.23a2.77,2.77,0,0,0-1.27-.1,10.18,10.18,0,0,1-2.89-1c-.63,0-1-.62-1.6-.56,0-.6.61-1,0-1.56a13.77,13.77,0,0,1-3.2-3.72l-7.64-2c.29.52.32,1,.1,1.17-1.3.24-2.83-.56-4.07-.91.31.09.3.43.3.77l-4-1.11v.68l.61.17c0,.34,0,1,0,1.37-1.54-.09-4.92-1.36-4.33,1.19l.61.17c0,.34,0,1,0,1l4,2.13s0,.69,0,1l-.92-.25c.92.25,1.22,1.36,1.53,1.78.92,1.63,3,1.52,4.62,2.36.28.09.24.76.22,1.1,1.06,0,1.76.93,2.61,1.62a40.15,40.15,0,0,1-6.26-1.75,20.08,20.08,0,0,0-7.39-1.27c-.61-.18-.32.93-.93.76l-.93-.25c.31.77,0,1.36-.32,1.27-2.77-.08-5.86-.25-8.31-2.29a10.83,10.83,0,0,0-3.08-1.54v.68c0-.67-.62-.16-.92-.58,0-.35,0-.35,0-.69s-.31-.42-.62-.51c0-.34,0-.34,0-.68-.62.16-1.23-.69-1.85-.17V73.5c-.31.25-.91-.6-1.23,0v-.68c0,.34,0,.68-.31.6-.92-.25-1.23,0-1.23,0C41.79,73.16,40,72.3,40,72c-.5.14-.79-.56-1.22-.73a.73.73,0,0,0-.37.38c-.56.1-2,0-2.07-.41-.35.41-.87-.6-1.24-.21-.28-1-.13-2.15-.77-2.79a15.58,15.58,0,0,1-2.63-3.54,8,8,0,0,1-1.34-3.57c-.32.82-.66,1.46-.86,1.36.17,1.09-1,1-.88,2.1-1.1-.56-2-2-3-1.48a9.85,9.85,0,0,1-4.69,1.31c-1.92.15-3.73-.16-4.11-1-.62-.83-2.19-4.39-2.83-5.14.1-.41-2.59-3.08-4.07-3.79.09-.38.18-.77-.2-.95-1.49-.71-1.89,1.2-2.47,1.76-.83,0-2.21-1.14-2.85-1.86,0,0-.94-.79-1.9-1.78s-1.93-2.15-2-2.94c-.13-3.21.11-6.92,1.55-9.47.44-.21,1.25-.68,1.66-.94,1.66-2.53,2.27-5.75,2.71-9s.55-6.68,1.2-9.94c-.16-1.13-.34-2.37.2-2.59a3.71,3.71,0,0,0,2-4.69,1.37,1.37,0,0,0,1.37-.69c.22-1.26-.48-3-.7-4.34a2.19,2.19,0,0,1,.6,1.34c.44.47,1-.8,1.41-.33a8.25,8.25,0,0,1,.5,3.08l.75.08c-.17-1.32-.36-2.21-.57-3.54.15-1.3,1.16-1.69,1.62-1.22,1,1.81,1.09,4,1.32,5.8,0-.35.34-.31.69-.28.29,2,.52,3.81.74,5.89l.75.11-.1-.91,1.5.22c.67,2.37.62,7.34,3.2,7l-.06-.93L24,23.4c.22-1.83.43-4.13.56-6l1.12.16L25.88,19c-.17-1.46.91-1.77,1.23-2.22.68-.63.7-1.84.54-3.26s-.5-3-.57-4.51c-.09-.5.66-.44,1-.41-.7-2-.3-3.49-.32-5.51a54.93,54.93,0,0,1,2.35,12.13c.27,2.56.54,5.11,1,7.71V20.86L103.51,40V65.21c3,.92,6.16,1.73,9.18,2.88.86.16,1.8.31,2,.64a5.5,5.5,0,0,0,3.85,2.12c0,.39.36.65.68.9a16.27,16.27,0,0,0,3.17.57,1.44,1.44,0,0,1-.94,0c-.3.14.67.71.37.85a8.83,8.83,0,0,1-2.22-.41l0,.4,2.54.46c1,.35,1.32,1,1,1.14a14,14,0,0,1-4.07-.52c.26.06.27.25.29.43-1.39-.27-2.67-.5-4.16-.81l0,.4.64.13c0,.19,0,.59.05.78-1.6-.11-5.13-1.06-4.44.45l.65.13c0,.2,0,.58,0,.58,1.29.47,2.91,1,4.22,1.45l0,.59-.81-.16a3.35,3.35,0,0,1,1.49,1.07c1,1,3.27,1,5.23,1.56.32,0,.35.45.37.65A13.24,13.24,0,0,1,126.38,82.5Z"/></g><path class="c" d="M36.66,27.9l9.11,2.41v2.48L38.94,31v6l5.83,1.54v2.4l-5.83-1.54V46.1l-2.28-.6Z"/><path class="c" d="M49.49,27.82l2.2.58v21l-2.2-.58Z"/><path class="c" d="M61,39.27a6.24,6.24,0,0,1,2.2,1.07A8.68,8.68,0,0,1,65,42.17a9,9,0,0,1,1.2,2.33,8,8,0,0,1,.44,2.59,6.05,6.05,0,0,1-.44,2.36A4.48,4.48,0,0,1,65,51.14a4,4,0,0,1-1.8.89,4.87,4.87,0,0,1-2.2-.09,6.54,6.54,0,0,1-2.2-1.08A8,8,0,0,1,57,49a9.05,9.05,0,0,1-1.21-2.33,8,8,0,0,1-.44-2.59,6.09,6.09,0,0,1,.44-2.36A4.5,4.5,0,0,1,57,40.06a3.92,3.92,0,0,1,1.79-.88A4.6,4.6,0,0,1,61,39.27Zm0,10.2a2.88,2.88,0,0,0,1.33.05,2.42,2.42,0,0,0,1.1-.54,2.72,2.72,0,0,0,.73-1,3.64,3.64,0,0,0,.27-1.43,4.76,4.76,0,0,0-.27-1.57,5.22,5.22,0,0,0-.73-1.43,4.88,4.88,0,0,0-1.1-1.12A3.83,3.83,0,0,0,61,41.74a2.88,2.88,0,0,0-1.33-.05,2.39,2.39,0,0,0-1.09.54,2.79,2.79,0,0,0-.75,1,3.56,3.56,0,0,0-.28,1.42,4.83,4.83,0,0,0,.28,1.58,5.74,5.74,0,0,0,.75,1.43,5,5,0,0,0,1.09,1.12A4,4,0,0,0,61,49.47Z"/><path class="c" d="M79.59,57.33a2.92,2.92,0,0,1,.83.44,3.76,3.76,0,0,1,.82.86,4.43,4.43,0,0,1,.63,1.27,5.14,5.14,0,0,1,.25,1.69,4.21,4.21,0,0,1-.26,1.6,2.26,2.26,0,0,1-.64.94,1.72,1.72,0,0,1-.83.39,1.91,1.91,0,0,1-.83,0l-5.32-1.4a7.94,7.94,0,0,1-1.52-.64,6.06,6.06,0,0,1-1.34-1,5.18,5.18,0,0,1-1-1.39A3.77,3.77,0,0,1,70,58.35l2.2.58a1,1,0,0,0,.31.71,3.13,3.13,0,0,0,.69.52,8.83,8.83,0,0,0,1,.46L79.51,62c.27,0,.41-.29.41-1a3.28,3.28,0,0,0,0-.6,1.6,1.6,0,0,0-.13-.39.66.66,0,0,0-.14-.19s-.07-.06-.09-.06l-5.27-1.4a6.71,6.71,0,0,1-1.52-.61,6.33,6.33,0,0,1-1.34-1,5.09,5.09,0,0,1-1-1.37A3.87,3.87,0,0,1,70,53.67a2.63,2.63,0,0,1,.46-1.61,2.52,2.52,0,0,1,1.17-.84,7.66,7.66,0,0,1-.84-1.84,6.71,6.71,0,0,1-.3-2,5.18,5.18,0,0,1,.39-2.06A4,4,0,0,1,72,43.85a3.49,3.49,0,0,1,1.56-.78,4,4,0,0,1,1.91.08l.08,0,5.53,1.46V47.1l-1.49-.39a8.87,8.87,0,0,1,.6,1.61A6.88,6.88,0,0,1,80.37,50,5.09,5.09,0,0,1,80,52a4,4,0,0,1-1,1.45,3.44,3.44,0,0,1-1.48.8,4.11,4.11,0,0,1-1.82,0l-.3-.08-2.31-.61a1.49,1.49,0,0,0-.61.17.51.51,0,0,0-.27.48,1,1,0,0,0,.31.71,3.36,3.36,0,0,0,.68.51,5.43,5.43,0,0,0,1,.44ZM75.44,45.62a2.26,2.26,0,0,0-1.06,0,1.93,1.93,0,0,0-.87.43,2.27,2.27,0,0,0-.57.83A3,3,0,0,0,72.72,48a3.87,3.87,0,0,0,.22,1.25,4.22,4.22,0,0,0,.57,1.12,4,4,0,0,0,.87.88,3.08,3.08,0,0,0,1.06.52,2.26,2.26,0,0,0,1.06,0,2,2,0,0,0,.87-.42,2.15,2.15,0,0,0,.59-.81,3,3,0,0,0,.21-1.14A3.84,3.84,0,0,0,78,48.17,4.74,4.74,0,0,0,77.37,47a4.09,4.09,0,0,0-.87-.89A2.91,2.91,0,0,0,75.44,45.62Z"/><path class="c" d="M90.86,47.18a6.31,6.31,0,0,1,2.21,1.08,8.92,8.92,0,0,1,3,4.22,7.87,7.87,0,0,1,.45,2.61v6.22l-2.2-.59V59.56a4.22,4.22,0,0,1-1.61.55A4.49,4.49,0,0,1,90.88,60a6.17,6.17,0,0,1-2.21-1.09A8.11,8.11,0,0,1,86.86,57a9.36,9.36,0,0,1-1.22-2.35,7.82,7.82,0,0,1-.45-2.6,6,6,0,0,1,.45-2.38A4.58,4.58,0,0,1,86.86,48a4,4,0,0,1,1.8-.89A4.47,4.47,0,0,1,90.86,47.18Zm0,10.32a2.7,2.7,0,0,0,1.35,0,2.44,2.44,0,0,0,1.1-.55,2.94,2.94,0,0,0,.75-1.05,3.61,3.61,0,0,0,.28-1.43,5,5,0,0,0-.28-1.61,6.15,6.15,0,0,0-.75-1.44,5.18,5.18,0,0,0-1.1-1.14,3.88,3.88,0,0,0-1.35-.67,2.75,2.75,0,0,0-1.36,0,2.54,2.54,0,0,0-1.1.55,2.94,2.94,0,0,0-.75,1.05,3.69,3.69,0,0,0-.28,1.46,4.83,4.83,0,0,0,.28,1.58,6,6,0,0,0,.75,1.44,5.18,5.18,0,0,0,1.1,1.14A3.84,3.84,0,0,0,90.88,57.5Z"/><path d="M90.52,63.29a8.3,8.3,0,0,1-.43,2.7,3,3,0,0,1-1.66,1.85,5.41,5.41,0,0,1-3.1.28l-.15-.62a5.07,5.07,0,0,0,3.21-.43c.9-.48,1.41-1.6,1.51-3.37l-4.84-1.28v-.57Z"/><path d="M97.58,71.1,92,69.64V64l5.55,1.46ZM97,70.4V65.78l-4.38-1.16v4.62Z"/><path d="M101.61,65.68v1.5l3,.81v.28c0,.91,0,1.52,0,1.83s-.06.65-.1,1a4.31,4.31,0,0,1-.2.87,1.37,1.37,0,0,1-.29.53.76.76,0,0,1-.42.21,1.77,1.77,0,0,1-.71-.08,6.68,6.68,0,0,1-1.25-.48v-.58a6,6,0,0,0,1.16.45,1.27,1.27,0,0,0,.47,0,.58.58,0,0,0,.4-.31,3.35,3.35,0,0,0,.27-1.08,13.71,13.71,0,0,0,.1-1.8v-.49l-2.49-.66a5,5,0,0,1-.81,2.71,3.62,3.62,0,0,1-1.83,1.34l-.3-.54a3.62,3.62,0,0,0,1.67-1.33,4.87,4.87,0,0,0,.68-2.34l-2-.54v-.55L101,67v-1.5Zm2,1.51-.4.1c-.16-.46-.33-.87-.5-1.24l.37-.09A11.12,11.12,0,0,1,103.64,67.19Zm1,0-.4.08a7.84,7.84,0,0,0-.5-1.21l.37-.1C104.3,66.36,104.48,66.77,104.65,67.22Z"/><path class="c" d="M39.87,52.66a2,2,0,0,1,.69,1.57,1.61,1.61,0,0,1-.12.63,1.31,1.31,0,0,1-.32.46,1.2,1.2,0,0,1-.49.25,1.32,1.32,0,0,1-.59,0L37,55V49.15l2,.52a1.61,1.61,0,0,1,.54.27,1.92,1.92,0,0,1,.44.46,2.49,2.49,0,0,1,.31.58,2.06,2.06,0,0,1,.11.65,1.36,1.36,0,0,1,0,.36,1.18,1.18,0,0,1-.12.28,1.28,1.28,0,0,1-.17.22A.79.79,0,0,1,39.87,52.66Zm-2.1-.89,1.11.29a.72.72,0,0,0,.29,0A.46.46,0,0,0,39.4,52a.63.63,0,0,0,.16-.23.73.73,0,0,0,.06-.3,1.07,1.07,0,0,0-.22-.66.92.92,0,0,0-.52-.38l-1.11-.29Zm1.14,3a.79.79,0,0,0,.34,0,.7.7,0,0,0,.27-.14.73.73,0,0,0,.19-.26,1,1,0,0,0,.06-.35,1.32,1.32,0,0,0-.06-.39,1.55,1.55,0,0,0-.19-.36,1.44,1.44,0,0,0-.27-.28,1.2,1.2,0,0,0-.34-.17l-1.14-.3v1.94Z"/><path class="c" d="M41.8,49.25l.74.2v7l-.74-.19Z"/><path class="c" d="M45.56,53.05a2,2,0,0,1,.73.37,2.94,2.94,0,0,1,.61.61,2.8,2.8,0,0,1,.4.79,2.65,2.65,0,0,1,.15.87v2.07l-.73-.19v-.39a1.24,1.24,0,0,1-.53.18,1.52,1.52,0,0,1-.63,0,2.06,2.06,0,0,1-.74-.37,2.67,2.67,0,0,1-.6-.61,3.2,3.2,0,0,1-.4-.78,2.65,2.65,0,0,1-.15-.87,2,2,0,0,1,.15-.79,1.54,1.54,0,0,1,.4-.58,1.4,1.4,0,0,1,.6-.29A1.44,1.44,0,0,1,45.56,53.05Zm0,3.44a.84.84,0,0,0,.82-.17.93.93,0,0,0,.25-.35,1.19,1.19,0,0,0,.09-.47,1.65,1.65,0,0,0-.09-.54,2.19,2.19,0,0,0-.25-.48A1.91,1.91,0,0,0,46,54.1a1.35,1.35,0,0,0-.45-.22.87.87,0,0,0-.45,0,1,1,0,0,0-.37.19.93.93,0,0,0-.25.35,1.21,1.21,0,0,0-.09.48,1.6,1.6,0,0,0,.09.53,1.82,1.82,0,0,0,.25.48,1.91,1.91,0,0,0,.37.38A1.18,1.18,0,0,0,45.56,56.49Z"/><path class="c" d="M51.3,55.38,49.89,57.6l1.86.49v.82l-2.31-.61-.85-.22.44-.7,1.41-2.21-1.85-.49v-.83l2.3.6.86.23h0Z"/><path class="c" d="M53.15,54.62V53.8l.73.19v.82Zm.73.62v4.23l-.73-.19V55.05Z"/><path class="c" d="M57.66,56.52a2.5,2.5,0,0,1,.54.81,2.31,2.31,0,0,1,.19.93v2.41l-.73-.19V58.07a1.23,1.23,0,0,0-.07-.42,1.54,1.54,0,0,0-.2-.38A1.33,1.33,0,0,0,57.1,57a1,1,0,0,0-.35-.18.83.83,0,0,0-.35,0,.61.61,0,0,0-.29.14.88.88,0,0,0-.26.66V60l-.74-.2V55.55l.74.19v.31a1.19,1.19,0,0,1,.43-.12,1.64,1.64,0,0,1,.48,0,1.67,1.67,0,0,1,.48.21A2.18,2.18,0,0,1,57.66,56.52Z"/><path class="c" d="M62.71,62a1.1,1.1,0,0,1,.28.15,1.08,1.08,0,0,1,.27.29,1.38,1.38,0,0,1,.21.42,1.62,1.62,0,0,1,.09.57,1.36,1.36,0,0,1-.09.53.84.84,0,0,1-.21.31.55.55,0,0,1-.28.13.66.66,0,0,1-.28,0l-1.77-.47a2.75,2.75,0,0,1-.51-.21,2.42,2.42,0,0,1-.45-.34,1.81,1.81,0,0,1-.32-.46,1.34,1.34,0,0,1-.12-.56l.73.19a.3.3,0,0,0,.1.23,1.3,1.3,0,0,0,.23.18,1.88,1.88,0,0,0,.34.15l1.76.46c.09,0,.13-.09.13-.32a.68.68,0,0,0,0-.21.34.34,0,0,0,0-.12l0-.07,0,0-1.76-.46a2.75,2.75,0,0,1-.51-.21,2.05,2.05,0,0,1-.45-.34,1.52,1.52,0,0,1-.32-.46,1.31,1.31,0,0,1-.12-.56.87.87,0,0,1,.15-.54.79.79,0,0,1,.39-.28,2.67,2.67,0,0,1-.28-.62,2.07,2.07,0,0,1-.1-.66,1.65,1.65,0,0,1,.13-.68,1.21,1.21,0,0,1,.87-.76,1.41,1.41,0,0,1,.64,0h0l1.84.49v.83l-.5-.14a3,3,0,0,1,.2.54,2.15,2.15,0,0,1,.07.56,1.69,1.69,0,0,1-.12.66,1.32,1.32,0,0,1-.33.49,1.11,1.11,0,0,1-.49.26,1.25,1.25,0,0,1-.61,0l-.1,0-.77-.2a.66.66,0,0,0-.2.06.16.16,0,0,0-.09.16.29.29,0,0,0,.1.23,1.3,1.3,0,0,0,.23.18l.33.14Zm-1.38-3.9a.73.73,0,0,0-.36,0,.57.57,0,0,0-.28.14.84.84,0,0,0-.2.28,1.12,1.12,0,0,0-.07.38,1.53,1.53,0,0,0,.07.41,1.72,1.72,0,0,0,.2.38,1.28,1.28,0,0,0,.28.29,1.08,1.08,0,0,0,.36.17.71.71,0,0,0,.35,0A.87.87,0,0,0,62,60a.75.75,0,0,0,.2-.28,1.11,1.11,0,0,0,.07-.37,1.54,1.54,0,0,0-.07-.42,1.72,1.72,0,0,0-.2-.38,1.33,1.33,0,0,0-.29-.29A.84.84,0,0,0,61.33,58.06Z"/><path class="c" d="M40.77,63.5a2,2,0,0,1-.15.79,1.43,1.43,0,0,1-.4.56,1.21,1.21,0,0,1-.6.29,1.52,1.52,0,0,1-.73,0,2,2,0,0,1-.73-.35,2.89,2.89,0,0,1-.6-.61,3.2,3.2,0,0,1-.4-.78,2.55,2.55,0,0,1-.15-.86,2,2,0,0,1,.15-.79,1.58,1.58,0,0,1,.4-.57,1.4,1.4,0,0,1,.6-.29,1.52,1.52,0,0,1,.73,0,2.15,2.15,0,0,1,.62.28,2.87,2.87,0,0,1,.53.46V58.37l.73.19v4.93Zm-1.88.79a1,1,0,0,0,.45,0,.77.77,0,0,0,.36-.18.9.9,0,0,0,.25-.35,1.19,1.19,0,0,0,.09-.47h0a1.54,1.54,0,0,0-.09-.52,2,2,0,0,0-.61-.85,1.32,1.32,0,0,0-.45-.21.83.83,0,0,0-.44,0,.77.77,0,0,0-.36.18.86.86,0,0,0-.25.34,1.21,1.21,0,0,0-.09.48,1.54,1.54,0,0,0,.09.52,1.57,1.57,0,0,0,.25.48,1.41,1.41,0,0,0,.36.37A1.21,1.21,0,0,0,38.89,64.29Z"/><path class="c" d="M44.08,64.65l-1.43-.38a1.76,1.76,0,0,0,.15.44,1.62,1.62,0,0,0,.25.39,1.55,1.55,0,0,0,.33.3,1.14,1.14,0,0,0,.39.18.84.84,0,0,0,.47,0,.72.72,0,0,0,.38-.21l.14,0,.72.19a1.24,1.24,0,0,1-.1.2l-.13.18a1.38,1.38,0,0,1-.64.42,1.7,1.7,0,0,1-.84,0,2.16,2.16,0,0,1-.73-.36,2.89,2.89,0,0,1-.6-.61,3.2,3.2,0,0,1-.4-.78,2.54,2.54,0,0,1-.14-.86A2,2,0,0,1,42,63a1.46,1.46,0,0,1,.4-.56,1.31,1.31,0,0,1,.6-.3,1.52,1.52,0,0,1,.73,0,2.27,2.27,0,0,1,.84.44,3,3,0,0,1,.64.77,2.85,2.85,0,0,1,.34.84,2.6,2.6,0,0,1,.06.56,1.18,1.18,0,0,1,0,.27l-.74-.2ZM43.77,63a.87.87,0,0,0-.62,0,.86.86,0,0,0-.41.43l1.65.44.42.11-.06-.15a.91.91,0,0,1-.07-.14,1.77,1.77,0,0,0-.4-.46A1.24,1.24,0,0,0,43.77,63Z"/><path class="c" d="M48.85,65.79a1.68,1.68,0,0,1,.16.39,1.84,1.84,0,0,1,.05.41,1.35,1.35,0,0,1-.11.46,1.18,1.18,0,0,1-.26.32,1,1,0,0,1-.39.16,1,1,0,0,1-.46,0,1.47,1.47,0,0,1-.62-.37,1.7,1.7,0,0,1-.41-.59l.61-.32a.5.5,0,0,0,.16.28.57.57,0,0,0,.28.18.35.35,0,0,0,.32,0,.29.29,0,0,0,.14-.27v-.1a0,0,0,0,1,0,0,0,0,0,0,0,0,0,.59.59,0,0,0-.18-.27l-.07,0h0l-.22-.18-.25-.19-.24-.21a1.75,1.75,0,0,1-.23-.24h0l0,0a1.82,1.82,0,0,1-.24-.43,1.61,1.61,0,0,1-.08-.48,1.08,1.08,0,0,1,.1-.42.89.89,0,0,1,.25-.29.73.73,0,0,1,.36-.15,1,1,0,0,1,.44,0,1.5,1.5,0,0,1,.55.31,1.58,1.58,0,0,1,.39.51l-.6.31a.49.49,0,0,0-.14-.19.45.45,0,0,0-.21-.12.33.33,0,0,0-.28,0,.22.22,0,0,0-.12.2v.06a.38.38,0,0,0,.08.17.47.47,0,0,0,.14.14c.09.09.19.17.31.27l.35.29a2,2,0,0,1,.26.25l0,0A2,2,0,0,1,48.85,65.79Z"/><path class="c" d="M52.37,66.84l-1.43-.38a1.76,1.76,0,0,0,.15.44,1.73,1.73,0,0,0,.58.69,1.1,1.1,0,0,0,.4.18.8.8,0,0,0,.46,0,.72.72,0,0,0,.38-.21l.14,0,.72.19a.75.75,0,0,1-.1.2l-.13.18a1.33,1.33,0,0,1-.64.42,1.46,1.46,0,0,1-.83,0,2.21,2.21,0,0,1-.74-.36,2.85,2.85,0,0,1-.59-.61,2.91,2.91,0,0,1-.41-.78,2.82,2.82,0,0,1-.14-.86,2.18,2.18,0,0,1,.14-.79,1.39,1.39,0,0,1,.41-.56,1.33,1.33,0,0,1,.59-.3,1.56,1.56,0,0,1,.74,0,2.23,2.23,0,0,1,.83.44,2.8,2.8,0,0,1,.64.77A2.83,2.83,0,0,1,54,67a1.12,1.12,0,0,1,0,.27l-.74-.2Zm-.3-1.64a1,1,0,0,0-.63,0,.86.86,0,0,0-.41.43l1.66.44.42.11a1,1,0,0,1-.07-.15L53,65.93a1.81,1.81,0,0,0-.4-.47A1.2,1.2,0,0,0,52.07,65.2Z"/><path class="c" d="M57.6,66.14a2.31,2.31,0,0,1,.41.56L57.6,67l-.16.1a1.42,1.42,0,0,0-.32-.41,1.09,1.09,0,0,0-.42-.23.83.83,0,0,0-.35,0,.57.57,0,0,0-.28.14.79.79,0,0,0-.2.27,1.06,1.06,0,0,0-.07.37v2.38l-.73-.19V65.17l.73.19v.31a1.45,1.45,0,0,1,.42-.12,1.33,1.33,0,0,1,.48,0,1.46,1.46,0,0,1,.48.21A2.18,2.18,0,0,1,57.6,66.14Z"/><path class="c" d="M60.84,66.34l-.69-.18v4.57l-.73-.19V66l-.69-.19V65l.69.18V63.57l.73.2v1.56l.69.19Z"/><path class="d" d="M12.3,41.38c-.07.54-.12,1.08-.17,1.61,0,.38-.07.78-.09,1.18,0,.62-.08,1.25-.1,1.89-.07-.11-.13-.23-.2-.35l-.26-.49a17.11,17.11,0,0,1-.82-1.87A9.82,9.82,0,0,1,12.3,41.38Z"/><path class="d" d="M10.3,46.82a5.16,5.16,0,0,0-.2,1.64,8,8,0,0,0-1.54.79s0-.08,0-.12h0a16.52,16.52,0,0,1,1.54-4.84c.11-.21.22-.42.35-.62.2.53.44,1.05.69,1.56A4,4,0,0,0,10.3,46.82Z"/><path class="d" d="M12.74,47.79a.29.29,0,0,1,0,.09,8.61,8.61,0,0,0-2.16.42l-.16.05A5.45,5.45,0,0,1,10.59,47a4,4,0,0,1,.75-1.42c.05.09.1.19.16.28.14.27.3.54.46.8S12.47,47.42,12.74,47.79Z"/><path class="d" d="M12.64,48.25a16.85,16.85,0,0,0-.34,2.41,1.47,1.47,0,0,1-2,1.41A2.8,2.8,0,0,1,8.55,49.7a8.62,8.62,0,0,1,1.78-.93l.37-.13A8.9,8.9,0,0,1,12.64,48.25Z"/><path class="d" d="M15.1,43.5a8.08,8.08,0,0,0-2,3.11c-.1.27-.19.55-.27.83q-.31-.44-.6-.9c0-.76,0-1.52.1-2.26,0-.36.05-.71.08-1.06a8.47,8.47,0,0,0,1.13,0,7.52,7.52,0,0,0,1.31-.3Q15,43.19,15.1,43.5Z"/><path class="d" d="M14.73,42.52a7,7,0,0,1-1.28.3,8.21,8.21,0,0,1-1,0c0-.59.12-1.2.2-1.8a6,6,0,0,1,.5-.38,8.27,8.27,0,0,1,1-.61,14.32,14.32,0,0,0,.37,1.7C14.57,42,14.65,42.27,14.73,42.52Z"/><path class="d" d="M16.31,42.55a8,8,0,0,0-1,.74c-.2-.5-.38-1-.53-1.54a12.8,12.8,0,0,1-.38-1.82,9.13,9.13,0,0,1,1.21-.51,13.56,13.56,0,0,1,.45,1.5A11.45,11.45,0,0,1,16.31,42.55Z"/><path class="d" d="M17.67,41.86a8.13,8.13,0,0,0-1.07.52,12.5,12.5,0,0,0-.24-1.47,13,13,0,0,0-.47-1.58l.27-.08a3.8,3.8,0,0,1,1,1.13A4,4,0,0,1,17.67,41.86Z"/><polygon class="e" points="34.97 33.36 24.44 33.89 24 32.11 34.97 33.36"/><polygon class="f" points="34.97 33.36 25.39 37.67 24.44 33.89 34.97 33.36"/><polygon class="e" points="29.69 23.18 22.22 30.18 21.04 28.66 29.69 23.18"/><polygon class="f" points="29.69 23.18 24.61 33.25 22.22 30.18 29.69 23.18"/><path class="d" d="M26.62,41.47q0-.8-.15-1.65A26,26,0,0,0,25,33.91a28.88,28.88,0,0,0-5.65-9c-.31-.33-.65-.68-1-1a4.72,4.72,0,0,0-.84.65,6.4,6.4,0,0,0-.53.62l-.18.24-1.11-1.21-.29.36,1.11,1.27L16.3,26q-.29.35-.54.72c-.18.26-.36.54-.53.82,2,2,3.66,5.24,3.25,7.81a4.56,4.56,0,0,1-2.68,3.39,3.55,3.55,0,0,1,.65.39l.06.05.12-.05a4.21,4.21,0,0,0,1.79-1.39,6.14,6.14,0,0,0,1-3.85A9.63,9.63,0,0,0,17.78,29l-.17-.24.35-.29.17.25A10.32,10.32,0,0,1,20,34a6.76,6.76,0,0,1-1.14,4.17A4.59,4.59,0,0,1,17,39.61a4.25,4.25,0,0,1,.47.64A4.05,4.05,0,0,1,18,41.73a4.89,4.89,0,0,1,0,.68,3.77,3.77,0,0,1,3.43-1A5.63,5.63,0,0,1,25.12,44a6.22,6.22,0,0,1,.9,4.35A22.57,22.57,0,0,0,26.62,41.47Zm-2.87-3.31a1.1,1.1,0,0,1-1.69.74,2.12,2.12,0,0,1-1-2.18,1.11,1.11,0,0,1,1.7-.74A2.11,2.11,0,0,1,23.75,38.16Z"/><path class="f" d="M15.54,23.15l-1,1.25,1.11,1.27c-.13.17-.26.34-.38.52s-.37.56-.55.85A5,5,0,0,0,12,25.66a2.16,2.16,0,0,0-1.21.28,2.43,2.43,0,0,0,.09.68,2.84,2.84,0,0,0,.49.93A4.86,4.86,0,0,1,9.09,25.9a6,6,0,0,1-1.2-3.2c-.13-1.26.08-3,1-3.68,1.75-1.35,5.86,1.46,8.89,4.29a6,6,0,0,0-.73.6c-.14.14-.27.28-.4.43Z"/></svg>