<svg xmlns="http://www.w3.org/2000/svg" xmlns:xlink="http://www.w3.org/1999/xlink" viewBox="0 0 148.93 86.82"><defs><style>.a{fill:none;}.b{opacity:0.75;}.c{fill:#b67db0;stroke:#fff;stroke-miterlimit:10;}.d{fill:#231f20;}.e{fill:#333;}.f{clip-path:url(#a);}.g{fill:#d3489a;}.h{fill:#d34999;}.i{fill:#d24a99;}.j{fill:#d24b99;}.k{fill:#d24c99;}.l{fill:#d24d99;}.m{fill:#d24e99;}.n{fill:#d24f99;}.o{fill:#d15099;}.p{fill:#d15199;}.q{fill:#d15299;}.r{fill:#d15399;}.s{fill:#d15499;}.t{fill:#d05599;}.u{fill:#d05699;}.v{fill:#d05799;}.w{fill:#d05899;}.x{fill:#d05999;}.y{fill:#cf5a99;}.z{fill:#cf5b99;}.aa{fill:#cf5c99;}.ab{fill:#cf5d99;}.ac{fill:#ce5e99;}.ad{fill:#ce5f99;}.ae{fill:#ce6099;}.af{fill:#cd6199;}.ag{fill:#cd6299;}.ah{fill:#cd6399;}.ai{fill:#cd6499;}.aj{fill:#cd6599;}.ak{fill:#c69;}.al{fill:#eecde2;}.am{fill:#bd9231;}</style><clipPath id="a"><ellipse class="a" cx="18.57" cy="28.81" rx="3.89" ry="5.12" transform="translate(-11.61 12.56) rotate(-28.9)"/></clipPath></defs><g class="b"><path class="c" d="M127,75.42l-1.39-.48h0Z"/><path class="c" d="M114.61,78.63l-1-.29c.32.48,0,.78-.34.68-1.45-.21-3.06-.44-4.65-.79-.14,0-.29-.07-.44-.1l.3.17c2.33,1.47,7.84,2.71,12.54,4.29.78.23.77.61.76.8a76.4,76.4,0,0,1,8.63,2.94c-12.57-3.13-25.09-7.8-37.67-10.55-1.56-.46-.79.35-2.36-.11L88.06,75c.77.61,0,.76-.8.54-7.07-1.7-14.92-3.65-21.17-6.25-2.35-.87-4.69-1.73-7.81-2.61v.39c0-.39-1.57-.45-2.34-.85,0-.19,0-.19,0-.39s-.79-.41-1.56-.62V64.8c-1.56-.23-3.12-1.06-4.66-1.07v-.39c-.79,0-2.34-.82-3.11-.63v-.39c0,.19,0,.39-.77.19a15.38,15.38,0,0,0-3.1-.6,63.09,63.09,0,0,1-7-2.06c-1.53-.16-2.32-.91-3.85-1.06,0-.44.84-.69.6-1.1-.24.5-.92.49-.83,1.37l-.47-.55c0,.48-.8.36-.52,1.12-.18-.21-.22-.27-.34-.4.18.23.31.44.15.61A1.58,1.58,0,0,0,30,61c-.57.63-1.93,1.63-2.17,1.34-.14.71-1,.09-1.18.79-.71-.84-1-2.09-1.88-2.22-1.47,0-6.7-2.24-6.86-3.71a29.7,29.7,0,0,1-.54-2.94c-.45.41-1.21.05-1.55.75-.64-.9-.67-2.31-1.7-2.4a10.25,10.25,0,0,1-3.58-.86L5.13,47.11l-.07.06c0,.26-.13.83-.19,1.19v-.11l0-.16c0-.11,0-.2,0-.3a4.32,4.32,0,0,1,0-.51c0-.29.15-.49.35-.55a.7.7,0,0,1,.37-.47,1.18,1.18,0,0,1,1,.06l.27.13v0a17.15,17.15,0,0,0,.12-2.64c.29-.24-.54-3.38-1.41-4.57.29-.24.57-.49.36-.78-.86-1.19-2.28,0-3.08.2A4.23,4.23,0,0,1,1.39,36s-1.47-4-.63-5.26a32.15,32.15,0,0,1,2.8-3.49,10.25,10.25,0,0,1,3.07-2.38c.42.05,1.25.11,1.69.14,2.2-.89,3.9-3.16,5.6-6,.86-1.4,1.75-3,2.64-4.42a45,45,0,0,1,2.69-4c.37-1,.74-2.12,1.27-2.1a3.34,3.34,0,0,0,3.56-3,1.22,1.22,0,0,0,1.39,0c.65-.95.78-2.65,1.05-3.8a1.89,1.89,0,0,1,0,1.31c.19.56,1.08-.27,1.27.28a7.42,7.42,0,0,1-.75,2.74l.57.35c.35-1.17.57-2,.87-3.16.57-1,1.55-1,1.76-.41.24,2-.63,3.87-1.14,5.46.12-.41.42-.22.7,0C29.27,10,28.7,11.6,28,13.39l.56.4.3-.79c.28.21.85.6,1.14.8-.45,2.21-2.57,6.22-.29,6.94l.33-.78.84.63c.95-1.35,2-3.15,3-4.62l.85.58-.47,1.26c.48-1.24,1.48-1.09,1.92-1.32,1.62-.52,2.11-4,3.11-6.73.13-.48.71-.15,1,0,.18-2.13,1.07-3.34,1.71-5.33a39.76,39.76,0,0,1-2.71,12c-.7,2-1.44,3.83-2.08,5.73L105.7,40.23a10.82,10.82,0,0,0-1.91-1,1.26,1.26,0,0,1,.33-1.46s1-1.86,2.24-1.7a26.71,26.71,0,0,1,8.25,2.23l1.26,1.1c5,2.68,10.69,3.77,16,6,.87.18,1.83.38,2.07.73a5.81,5.81,0,0,0,3.83,2.29c0,.39.33.67.65.93a18.54,18.54,0,0,0,3.19.78,1.66,1.66,0,0,1-1,0c-.32.12.65.74.33.85a9.43,9.43,0,0,1-2.22-.53v.38c1,.24,1.6.4,2.55.62,1,.42,1.29,1.09,1,1.21a15.89,15.89,0,0,1-4.12-.8c.3.08.3.27.3.46l-4.14-1v.39l.64.16c0,.19,0,.58,0,.77-1.59-.19-5.11-1.27-4.45.26l.63.16c0,.2,0,.58,0,.58l4.16,1.61s0,.39,0,.59l-.93-.24a3.4,3.4,0,0,1,1.59,1.17c1,1,3.2,1.17,5.13,1.83.33.08.33.47.33.66a13,13,0,0,1,3.54,1.22c-5.12-.62-10.26-2.84-15.39-3.16-.64-.16-.31.5-.95.34l-1-.24c.33.46,0,.77-.31.7-2.8-.35-5.91-.78-8.44-2.13V67.06l.91.35a3,3,0,0,1,1.3.75,7.41,7.41,0,0,0,4,2.94c0,.38.27.69.6,1a16.4,16.4,0,0,0,3.33,1.09,1.65,1.65,0,0,1-1-.12c-.35.09.65.79.3.87a9.37,9.37,0,0,1-2.37-.77l0,.37c1,.36,1.69.58,2.72.9,1,.5,1.35,1.17,1,1.26a14.59,14.59,0,0,1-4.41-1.23.38.38,0,0,1,.23.47c-1.5-.55-2.91-1.12-4.51-1.74l0,.37.7.27c0,.11,0,.27,0,.44l1.13.32a6.41,6.41,0,0,1-1.14-.17c0,.06,0,.13,0,.17-.39-.11-.87-.27-1.37-.45,0,.21,1.59,1,.92.95a39.82,39.82,0,0,1-4.54-1.32.62.62,0,0,0,.07.3l.66.24v0l4.59,1.35c2.35.89,3.11,1.7,2.32,1.66-1.23-.22-2.57-.55-4-.94l1.42.75s0,.38,0,.56l-1-.4a3.91,3.91,0,0,1,1.65,1.43c.89,1.14,3.57,1.79,5.8,2.65.38.12.37.51.36.7a23.48,23.48,0,0,1,4.16,1.51,40.25,40.25,0,0,1-9.1-2.67c-1.37-.57-2.74-1.12-4.12-1.61-.67-.22-1.42-.49-2-.64a17.06,17.06,0,0,0-1.89-.37C115,78.15,115.24,78.82,114.61,78.63Z"/><path class="c" d="M139.8,52.61l-1.28-.32h0Z"/></g><path class="d" d="M43.06,44.09l6.38,1.69V48.3L40.77,46V28.39l2.29.6Z"/><path class="d" d="M53.16,35.29V32.82l2.2.58v2.47Zm2.2,1.88V49.84l-2.2-.58V36.58Z"/><path class="d" d="M68.88,40.79l-3.72,8.59L64,52.14l-1.19-3.39L59.05,38.19l2.37.63L64,46l2.55-5.86Z"/><path class="d" d="M77.62,43.07a6.43,6.43,0,0,1,2.21,1.09A8.82,8.82,0,0,1,81.64,46a8.66,8.66,0,0,1,1.22,2.36A8,8,0,0,1,83.31,51V57.2l-2.2-.58V55.46a4.35,4.35,0,0,1-1.6.55,4.73,4.73,0,0,1-1.88-.14,6.43,6.43,0,0,1-2.21-1.09,8.49,8.49,0,0,1-1.8-1.84,9.21,9.21,0,0,1-1.22-2.35A7.87,7.87,0,0,1,72,48a6,6,0,0,1,.45-2.37,4.56,4.56,0,0,1,1.21-1.72,4.07,4.07,0,0,1,1.8-.89A4.63,4.63,0,0,1,77.62,43.07Zm0,10.33a2.87,2.87,0,0,0,1.36,0,2.6,2.6,0,0,0,1.1-.55,2.81,2.81,0,0,0,.74-1,3.44,3.44,0,0,0,.28-1.43,4.66,4.66,0,0,0-.28-1.61,5.6,5.6,0,0,0-.74-1.44A5.42,5.42,0,0,0,79,46.22a3.93,3.93,0,0,0-1.36-.67,2.84,2.84,0,0,0-1.35,0,2.56,2.56,0,0,0-1.1.56,2.72,2.72,0,0,0-.75,1,3.51,3.51,0,0,0-.28,1.45,4.64,4.64,0,0,0,.28,1.59,5.48,5.48,0,0,0,.75,1.44,5.13,5.13,0,0,0,1.1,1.13A3.66,3.66,0,0,0,77.63,53.4Z"/><path class="d" d="M98,54.79a6.05,6.05,0,0,1-.44,2.36,4.51,4.51,0,0,1-1.2,1.7,4.05,4.05,0,0,1-1.8.88,4.74,4.74,0,0,1-2.2-.09,6.54,6.54,0,0,1-2.2-1.08,8,8,0,0,1-1.79-1.83,9.2,9.2,0,0,1-1.21-2.33,8,8,0,0,1-.43-2.59,6,6,0,0,1,.43-2.35,4.65,4.65,0,0,1,1.21-1.7,3.92,3.92,0,0,1,1.79-.88,4.6,4.6,0,0,1,2.2.09,6.15,6.15,0,0,1,1.85.83,8.35,8.35,0,0,1,1.59,1.39V39.4L98,40V54.79Zm-5.63,2.38a2.88,2.88,0,0,0,1.33,0,2.42,2.42,0,0,0,1.1-.54,2.77,2.77,0,0,0,.74-1,3.8,3.8,0,0,0,.26-1.43v0a4.91,4.91,0,0,0-.26-1.56,5.82,5.82,0,0,0-.74-1.42,5.08,5.08,0,0,0-1.1-1.12,3.92,3.92,0,0,0-1.33-.65,2.87,2.87,0,0,0-1.33,0,2.44,2.44,0,0,0-1.09.54,2.79,2.79,0,0,0-.75,1,3.59,3.59,0,0,0-.27,1.42A4.81,4.81,0,0,0,89.18,54a5.57,5.57,0,0,0,.75,1.43A5.27,5.27,0,0,0,91,56.52,4.11,4.11,0,0,0,92.35,57.17Z"/><path class="d" d="M106.73,50.77a6.36,6.36,0,0,1,2.2,1.08,8.92,8.92,0,0,1,3,4.22,7.87,7.87,0,0,1,.45,2.61V64.9l-2.2-.59V63.15a4.23,4.23,0,0,1-1.6.55,4.54,4.54,0,0,1-1.88-.14,6.17,6.17,0,0,1-2.21-1.09,8.32,8.32,0,0,1-1.81-1.84,9.36,9.36,0,0,1-1.22-2.35,8.07,8.07,0,0,1-.44-2.6,6.19,6.19,0,0,1,.44-2.38,4.58,4.58,0,0,1,1.22-1.72,4,4,0,0,1,1.8-.89A4.51,4.51,0,0,1,106.73,50.77Zm0,10.32a2.7,2.7,0,0,0,1.35,0,2.44,2.44,0,0,0,1.1-.55,2.83,2.83,0,0,0,.75-1,3.61,3.61,0,0,0,.28-1.43,5,5,0,0,0-.28-1.61,5.8,5.8,0,0,0-.75-1.44,5.41,5.41,0,0,0-1.1-1.14,3.88,3.88,0,0,0-1.35-.67,2.75,2.75,0,0,0-1.36,0,2.54,2.54,0,0,0-1.1.55,2.94,2.94,0,0,0-.75,1,3.69,3.69,0,0,0-.27,1.46,4.81,4.81,0,0,0,.27,1.58,6,6,0,0,0,.75,1.44,5.18,5.18,0,0,0,1.1,1.14A3.84,3.84,0,0,0,106.74,61.09Z"/><path d="M102,45.27l-.61-.16V41.17l.61.16Zm4,.11a3,3,0,0,1-.39,1.56,2,2,0,0,1-1.28.89,5.3,5.3,0,0,1-2.31,0l-.14-.6a4,4,0,0,0,2.68-.21,2.1,2.1,0,0,0,.83-1.92v-3l.61.16Z"/><path d="M113.6,45.54a10.29,10.29,0,0,1-.11,1.73,4.54,4.54,0,0,1-.33,1.12,2.31,2.31,0,0,1-.56.76,2.13,2.13,0,0,1-.85.48,4,4,0,0,1-1.21.19,8,8,0,0,1-1.55-.13l-.14-.61a7.91,7.91,0,0,0,1.51.11,3.29,3.29,0,0,0,1-.18,2.32,2.32,0,0,0,.64-.33,2.68,2.68,0,0,0,.43-.45,2.58,2.58,0,0,0,.35-1,7.28,7.28,0,0,0,.14-1.45v-.27l-4.54-1.2v2.16l-.61-.16V43.66l2.57.68v-1l.63.17v1l2.58.69Zm-.51-.89-.4.1a12.21,12.21,0,0,0-.5-1.24l.37-.09A10.86,10.86,0,0,1,113.09,44.65Zm1,.09-.4.08a10.12,10.12,0,0,0-.49-1.21l.36-.1C113.76,43.89,113.93,44.3,114.1,44.74Z"/><path d="M120.42,47.7a3.74,3.74,0,0,1-.71,1.27,3.47,3.47,0,0,1-1.29.91l-.27-.48a2.84,2.84,0,0,0,.87-.56,3.33,3.33,0,0,0,.69-1l-4.57-1.21v-.51l5.12,1.36Zm-2.67.18a11.21,11.21,0,0,1-.11,1.8,2.24,2.24,0,0,1-.45,1,1.9,1.9,0,0,1-.87.6,2.38,2.38,0,0,1-.86.15l-.22-.51a1.88,1.88,0,0,0,1.43-.57,2.89,2.89,0,0,0,.53-1.74v-.9Z"/><path d="M124.62,47.12a4.92,4.92,0,0,1-.27.69l3.4.9q0,.55-.06.78a6.66,6.66,0,0,1-.34,1.3,4.85,4.85,0,0,1-.59,1.07,3.6,3.6,0,0,1-.93.84,3.92,3.92,0,0,1-1.29.52,6.52,6.52,0,0,1-1.64.14l-.16-.58a4.1,4.1,0,0,0,3.19-1,24.41,24.41,0,0,0-2.49-1.87l.27-.39a29.07,29.07,0,0,1,2.58,1.85,4.71,4.71,0,0,0,.82-2.31l-3-.8A5.08,5.08,0,0,1,123,49.53a4.32,4.32,0,0,1-1.25.76l-.3-.5a4.53,4.53,0,0,0,1.61-1.25,5,5,0,0,0,.94-1.66Zm2.79,1.17-.4.1a12.63,12.63,0,0,0-.5-1.2l.38-.09A12.06,12.06,0,0,1,127.41,48.29Zm1,.24-.4.08a10.67,10.67,0,0,0-.5-1.22l.37-.09C128.08,47.66,128.25,48.07,128.43,48.53Z"/><path class="d" d="M43.86,51.68a.34.34,0,0,1,0,.1.37.37,0,0,1,0,.11h0a1428538195731.92,1428538195731.92,0,0,0,0,.2h0l0,.18v0s0,0,0,.07a.64.64,0,0,0,0,.07,1.63,1.63,0,0,1-.3.57,1.4,1.4,0,0,1-.47.37,1.72,1.72,0,0,1-.52.11,1.91,1.91,0,0,1-.61-.07L41,53.2v1.73l-.76-.2V48.85l1.69.45a2.51,2.51,0,0,1,1.13.64,2.93,2.93,0,0,1,.77,1.34.55.55,0,0,1,0,.16s0,0,0,0,0,.06,0,.09,0,.07,0,.1Zm-1.86,1a.78.78,0,0,0,.43,0,.81.81,0,0,0,.34-.21.93.93,0,0,0,.23-.36,1.4,1.4,0,0,0,.08-.47,1.81,1.81,0,0,0-.08-.51,2.12,2.12,0,0,0-.23-.48,1.83,1.83,0,0,0-.34-.39,1.1,1.1,0,0,0-.43-.22l-1-.27v2.64Z"/><path class="d" d="M45.11,49l.74.19v7L45.11,56Z"/><path class="d" d="M48.87,52.8a2.16,2.16,0,0,1,.73.36,2.94,2.94,0,0,1,.61.61,3.29,3.29,0,0,1,.41.79,2.65,2.65,0,0,1,.15.87v2.08l-.74-.2v-.39a1.4,1.4,0,0,1-.53.19,1.54,1.54,0,0,1-.63,0,2.16,2.16,0,0,1-.73-.36,3,3,0,0,1-.61-.62,2.87,2.87,0,0,1-.4-.78,2.57,2.57,0,0,1-.15-.87,2,2,0,0,1,.15-.79,1.58,1.58,0,0,1,.4-.57,1.31,1.31,0,0,1,.6-.3A1.56,1.56,0,0,1,48.87,52.8Zm0,3.44a.9.9,0,0,0,.46,0,.77.77,0,0,0,.36-.18.9.9,0,0,0,.25-.35,1.21,1.21,0,0,0,.09-.48,1.7,1.7,0,0,0-.09-.54,1.83,1.83,0,0,0-.25-.48,1.58,1.58,0,0,0-.36-.37,1.25,1.25,0,0,0-.46-.23.86.86,0,0,0-.45,0,.85.85,0,0,0-.37.18,1,1,0,0,0-.24.35,1.1,1.1,0,0,0-.1.49,1.46,1.46,0,0,0,.1.53,1.89,1.89,0,0,0,.24.47,1.67,1.67,0,0,0,.37.38A1.2,1.2,0,0,0,48.87,56.24Z"/><path class="d" d="M52,53.19v-.83l.74.2v.82Zm.74.62V58l-.74-.2V53.62Z"/><path class="d" d="M56.52,55.09a2.57,2.57,0,0,1,.54.8,2.41,2.41,0,0,1,.2.94v2.41l-.74-.2v-2.4a1.23,1.23,0,0,0-.07-.42,1.35,1.35,0,0,0-.19-.38,2.06,2.06,0,0,0-.29-.3,1.26,1.26,0,0,0-.35-.17.73.73,0,0,0-.36,0,.61.61,0,0,0-.29.14.82.82,0,0,0-.19.28.92.92,0,0,0-.07.38v2.4L54,58.37V54.11l.73.2v.3a1.08,1.08,0,0,1,.42-.11,1.36,1.36,0,0,1,.48,0,1.46,1.46,0,0,1,.48.21A1.7,1.7,0,0,1,56.52,55.09Z"/><path class="d" d="M63.83,56.74a2.16,2.16,0,0,1,.73.36,2.67,2.67,0,0,1,.6.61,3.2,3.2,0,0,1,.4.78,2.55,2.55,0,0,1,.15.86,2,2,0,0,1-.15.79,1.46,1.46,0,0,1-.4.56,1.31,1.31,0,0,1-.6.3,1.52,1.52,0,0,1-.73,0,2.21,2.21,0,0,1-.74-.36A2.85,2.85,0,0,1,62.5,60a3.23,3.23,0,0,1-.41-.78,2.82,2.82,0,0,1-.14-.86,2.14,2.14,0,0,1,.14-.79A1.48,1.48,0,0,1,62.5,57a1.33,1.33,0,0,1,.59-.3A1.56,1.56,0,0,1,63.83,56.74Zm0,3.4a1,1,0,0,0,.44,0,.8.8,0,0,0,.37-.18.93.93,0,0,0,.25-.35,1.4,1.4,0,0,0,.08-.47,2,2,0,0,0-.08-.53,1.92,1.92,0,0,0-.25-.47,1.67,1.67,0,0,0-.37-.38,1.19,1.19,0,0,0-.44-.21.94.94,0,0,0-.44,0,.85.85,0,0,0-.37.18,1.16,1.16,0,0,0-.25.35,1.19,1.19,0,0,0-.09.47,1.64,1.64,0,0,0,.09.53,2.34,2.34,0,0,0,.25.47,1.91,1.91,0,0,0,.37.38A1.37,1.37,0,0,0,63.83,60.14Z"/><path class="d" d="M67.83,58.22l.9.24v.83l-.9-.24v3l-.73-.19v-3l-.27-.06V58l.27.07V56.49a1.46,1.46,0,0,1,.22-.74,1.19,1.19,0,0,1,.51-.46h0a1.2,1.2,0,0,1,.42-.12,1.64,1.64,0,0,1,.48,0v.82a.83.83,0,0,0-.35,0,.61.61,0,0,0-.29.14.77.77,0,0,0-.19.27.87.87,0,0,0-.07.37Z"/><path class="d" d="M76.59,64.5a1.06,1.06,0,0,1,.27.15,1.24,1.24,0,0,1,.28.28,1.91,1.91,0,0,1,.21.43,1.89,1.89,0,0,1,.08.56,1.62,1.62,0,0,1-.08.54.82.82,0,0,1-.22.31.6.6,0,0,1-.28.13.8.8,0,0,1-.27,0l-1.78-.47a2.41,2.41,0,0,1-.5-.21,1.94,1.94,0,0,1-.45-.35,1.65,1.65,0,0,1-.32-.46,1.18,1.18,0,0,1-.13-.56l.74.2a.32.32,0,0,0,.1.23,1,1,0,0,0,.23.18l.34.15,1.75.46c.09,0,.14-.1.14-.33a.85.85,0,0,0-.06-.33s0-.05,0-.06,0,0,0,0l-1.76-.47a1.94,1.94,0,0,1-.5-.2,2.22,2.22,0,0,1-.45-.34,1.81,1.81,0,0,1-.32-.46,1.2,1.2,0,0,1-.13-.57.86.86,0,0,1,.15-.53.91.91,0,0,1,.39-.29,2.23,2.23,0,0,1-.27-.61,2.16,2.16,0,0,1-.1-.66,1.85,1.85,0,0,1,.12-.69,1.39,1.39,0,0,1,.36-.49,1.11,1.11,0,0,1,.52-.26,1.35,1.35,0,0,1,.63,0h0l1.84.49v.82L76.58,61a3.16,3.16,0,0,1,.2.54,2.6,2.6,0,0,1,.07.56,1.76,1.76,0,0,1-.12.66,1.46,1.46,0,0,1-.33.49,1.22,1.22,0,0,1-.49.26,1.39,1.39,0,0,1-.61,0l-.1,0-.77-.2a.37.37,0,0,0-.21.06.15.15,0,0,0-.08.16.3.3,0,0,0,.1.23,1.18,1.18,0,0,0,.22.17,1.88,1.88,0,0,0,.34.15ZM75.2,60.6a.7.7,0,0,0-.35,0,.68.68,0,0,0-.48.43.87.87,0,0,0-.07.37,1.23,1.23,0,0,0,.07.42,1.43,1.43,0,0,0,.19.37,1.33,1.33,0,0,0,.29.29,1.06,1.06,0,0,0,.35.18.74.74,0,0,0,.36,0,.65.65,0,0,0,.29-.14.66.66,0,0,0,.19-.27.92.92,0,0,0,.07-.38,1.18,1.18,0,0,0-.07-.41,1.23,1.23,0,0,0-.19-.38,1.38,1.38,0,0,0-.29-.3A1,1,0,0,0,75.2,60.6Z"/><path class="d" d="M81.08,61.62a2.25,2.25,0,0,1,.41.55l-.41.26-.15.1a1.76,1.76,0,0,0-.32-.4,1.09,1.09,0,0,0-.42-.23.7.7,0,0,0-.35,0,.61.61,0,0,0-.29.14.77.77,0,0,0-.19.27.87.87,0,0,0-.07.37v2.38l-.73-.2V60.64l.73.2v.3a1.19,1.19,0,0,1,.42-.11,1.61,1.61,0,0,1,.48,0,2.18,2.18,0,0,1,.47.21A2.72,2.72,0,0,1,81.08,61.62Z"/><path class="d" d="M84,62.08a2.06,2.06,0,0,1,.74.37,2.67,2.67,0,0,1,.6.61,2.83,2.83,0,0,1,.41.79,2.65,2.65,0,0,1,.15.87v2.07l-.73-.19v-.39a1.39,1.39,0,0,1-.54.19,1.68,1.68,0,0,1-.62-.05,2.21,2.21,0,0,1-.74-.36,2.94,2.94,0,0,1-.6-.62,3.23,3.23,0,0,1-.41-.78,2.65,2.65,0,0,1-.15-.87,2,2,0,0,1,.15-.79,1.56,1.56,0,0,1,.41-.58,1.4,1.4,0,0,1,.6-.29A1.65,1.65,0,0,1,84,62.08Zm0,3.45a1,1,0,0,0,.45,0,.85.85,0,0,0,.37-.18,1.16,1.16,0,0,0,.34-.83,1.47,1.47,0,0,0-.1-.54,2.16,2.16,0,0,0-.24-.48,2.22,2.22,0,0,0-.37-.38,1.35,1.35,0,0,0-.45-.22,1,1,0,0,0-.45,0,.93.93,0,0,0-.37.19.9.9,0,0,0-.25.35,1.21,1.21,0,0,0-.09.48,1.6,1.6,0,0,0,.09.53,1.57,1.57,0,0,0,.25.48,1.67,1.67,0,0,0,.37.38A1.28,1.28,0,0,0,84,65.53Z"/><path class="d" d="M90.31,63.76l-1.24,2.86-.4.92-.4-1.13L87,62.89l.79.21.85,2.4.85-2Z"/><path class="d" d="M91.55,63.64v-.83l.73.2v.82Zm.73.62v4.23l-.73-.2V64.07Z"/><path class="d" d="M95.62,64.8l-.69-.18V69.2L94.2,69V64.43l-.69-.18v-.83l.69.18V62l.73.19V63.8l.69.18Z"/><path class="d" d="M98.53,65.92a2.06,2.06,0,0,1,.74.37,2.67,2.67,0,0,1,.6.61,3.12,3.12,0,0,1,.41.79,2.65,2.65,0,0,1,.15.87v2.07l-.73-.19v-.39a1.45,1.45,0,0,1-.54.19,1.68,1.68,0,0,1-.62,0,2.12,2.12,0,0,1-.74-.36,2.94,2.94,0,0,1-.6-.62,3.23,3.23,0,0,1-.41-.78,2.65,2.65,0,0,1-.15-.87,2,2,0,0,1,.15-.79,1.45,1.45,0,0,1,.41-.57,1.31,1.31,0,0,1,.6-.3A1.65,1.65,0,0,1,98.53,65.92Zm0,3.45a1,1,0,0,0,.45,0,.77.77,0,0,0,.36-.18,1,1,0,0,0,.25-.35,1.25,1.25,0,0,0,.1-.48,1.71,1.71,0,0,0-.1-.54A1.92,1.92,0,0,0,99,67a1.35,1.35,0,0,0-.45-.22,1,1,0,0,0-.46,0,.91.91,0,0,0-.61.54,1.21,1.21,0,0,0-.09.48,1.6,1.6,0,0,0,.09.53,1.57,1.57,0,0,0,.25.48,1.63,1.63,0,0,0,.36.38A1.33,1.33,0,0,0,98.54,69.37Z"/><path class="d" d="M103.67,66.93l-.69-.18v4.57l-.73-.19V66.56l-.69-.19v-.82l.69.18V64.16l.73.2v1.57l.69.18Z"/><path class="d" d="M104.91,67.17v-.82l.73.19v.82Zm.73.63V72l-.73-.2V67.6Z"/><path class="d" d="M108.75,68.62a2.16,2.16,0,0,1,.73.36,2.49,2.49,0,0,1,.6.61,2.69,2.69,0,0,1,.4.77,2.61,2.61,0,0,1,.15.87,1.94,1.94,0,0,1-.15.78,1.47,1.47,0,0,1-.4.57,1.4,1.4,0,0,1-.6.29,1.52,1.52,0,0,1-.73,0,2.08,2.08,0,0,1-.73-.36,2.67,2.67,0,0,1-.6-.61,2.62,2.62,0,0,1-.4-.78,2.51,2.51,0,0,1-.15-.86,1.94,1.94,0,0,1,.15-.78,1.47,1.47,0,0,1,.4-.57,1.3,1.3,0,0,1,.6-.29A1.52,1.52,0,0,1,108.75,68.62Zm0,3.4a1.15,1.15,0,0,0,.45,0,.77.77,0,0,0,.36-.18.9.9,0,0,0,.25-.35,1.21,1.21,0,0,0,.09-.48,1.58,1.58,0,0,0-.09-.52,1.83,1.83,0,0,0-.25-.48,1.58,1.58,0,0,0-.36-.37,1.35,1.35,0,0,0-.45-.22,1.1,1.1,0,0,0-.44,0,.82.82,0,0,0-.61.53,1.06,1.06,0,0,0-.1.48,1.37,1.37,0,0,0,.1.52,2.16,2.16,0,0,0,.24.48,1.85,1.85,0,0,0,.37.37A1.4,1.4,0,0,0,108.75,72Z"/><path class="d" d="M114.3,70.37a2.36,2.36,0,0,1,.54.8,2.32,2.32,0,0,1,.2.93v2.41l-.74-.19V71.91a1.23,1.23,0,0,0-.07-.42,1.54,1.54,0,0,0-.2-.38,1.33,1.33,0,0,0-.29-.29,1,1,0,0,0-.35-.18.83.83,0,0,0-.35,0,.71.71,0,0,0-.29.14.92.92,0,0,0-.19.28,1,1,0,0,0-.07.38v2.41l-.74-.2V69.39l.74.19v.31a1.19,1.19,0,0,1,.43-.12,1.64,1.64,0,0,1,.48,0,2.5,2.5,0,0,1,.48.21A1.9,1.9,0,0,1,114.3,70.37Z"/><path class="e" d="M29.19,23.86c-4.83-3.22-10.43-3.5-14.3-.17a12,12,0,0,0-3.91,8h0a20.23,20.23,0,0,0,3.91,13.81,18.49,18.49,0,0,0,8.53,6.71,11.44,11.44,0,0,0,7.92.15,9.55,9.55,0,0,0,2.93-1.74,10.58,10.58,0,0,0,2.24-2.7l.2-.37c2.73-5.09,1.92-12.67-2.44-18.72A19.65,19.65,0,0,0,29.19,23.86Zm5.07,18.78h0c-.19,1-.52,1.56-.91,1.65s-1.25-.51-2.34-.18a2.85,2.85,0,0,0-1,.56,3.18,3.18,0,0,0-.72.91c-.56,1.08-.2,2.08-.41,2.56a.78.78,0,0,1-.43.38c-1.69.76-7.44-.66-10.76-5.44l-.22-.32c-2.93-4.5-3.83-11.72.22-15.2a6.48,6.48,0,0,1,2.61-1.38c3.89-1,8.58,1.52,11.19,5A15.76,15.76,0,0,1,34.26,42.64Z"/><g class="f"><polygon class="g" points="13.96 22.4 23.19 24.84 23.19 35.22 13.96 32.78 13.96 22.4"/><ellipse class="g" cx="18.57" cy="28.81" rx="3.89" ry="5.12" transform="translate(-11.61 12.56) rotate(-28.9)"/><ellipse class="h" cx="18.57" cy="28.81" rx="3.77" ry="4.97" transform="translate(-11.61 12.56) rotate(-28.9)"/><ellipse class="i" cx="18.57" cy="28.81" rx="3.66" ry="4.82" transform="translate(-11.61 12.56) rotate(-28.9)"/><ellipse class="j" cx="18.57" cy="28.81" rx="3.55" ry="4.67" transform="translate(-11.61 12.56) rotate(-28.9)"/><ellipse class="k" cx="18.57" cy="28.81" rx="3.43" ry="4.51" transform="translate(-11.61 12.56) rotate(-28.9)"/><ellipse class="l" cx="18.57" cy="28.81" rx="3.32" ry="4.36" transform="translate(-11.61 12.56) rotate(-28.9)"/><ellipse class="m" cx="18.57" cy="28.81" rx="3.2" ry="4.21" transform="translate(-11.61 12.56) rotate(-28.9)"/><ellipse class="n" cx="18.57" cy="28.81" rx="3.09" ry="4.06" transform="translate(-11.61 12.56) rotate(-28.9)"/><ellipse class="o" cx="18.57" cy="28.81" rx="2.97" ry="3.91" transform="translate(-11.61 12.56) rotate(-28.9)"/><ellipse class="p" cx="18.57" cy="28.81" rx="2.86" ry="3.76" transform="translate(-11.61 12.56) rotate(-28.9)"/><ellipse class="q" cx="18.57" cy="28.81" rx="2.74" ry="3.61" transform="translate(-11.61 12.56) rotate(-28.9)"/><ellipse class="r" cx="18.57" cy="28.81" rx="2.63" ry="3.46" transform="translate(-11.61 12.56) rotate(-28.9)"/><ellipse class="s" cx="18.57" cy="28.81" rx="2.52" ry="3.31" transform="translate(-11.61 12.56) rotate(-28.9)"/><ellipse class="t" cx="18.57" cy="28.81" rx="2.4" ry="3.16" transform="translate(-11.61 12.56) rotate(-28.9)"/><ellipse class="u" cx="18.57" cy="28.81" rx="2.29" ry="3.01" transform="translate(-11.61 12.56) rotate(-28.9)"/><ellipse class="v" cx="18.57" cy="28.81" rx="2.17" ry="2.86" transform="translate(-11.61 12.56) rotate(-28.9)"/><ellipse class="w" cx="18.57" cy="28.81" rx="2.06" ry="2.71" transform="translate(-11.61 12.56) rotate(-28.9)"/><ellipse class="x" cx="18.57" cy="28.81" rx="1.94" ry="2.56" transform="translate(-11.61 12.56) rotate(-28.9)"/><ellipse class="y" cx="18.57" cy="28.81" rx="1.83" ry="2.41" transform="translate(-11.61 12.56) rotate(-28.9)"/><ellipse class="z" cx="18.57" cy="28.81" rx="1.72" ry="2.26" transform="translate(-11.61 12.56) rotate(-28.9)"/><ellipse class="z" cx="18.57" cy="28.81" rx="1.6" ry="2.11" transform="translate(-11.61 12.56) rotate(-28.9)"/><ellipse class="aa" cx="18.57" cy="28.81" rx="1.49" ry="1.96" transform="translate(-11.61 12.56) rotate(-28.9)"/><ellipse class="ab" cx="18.57" cy="28.81" rx="1.37" ry="1.81" transform="translate(-11.61 12.56) rotate(-28.9)"/><ellipse class="ac" cx="18.57" cy="28.81" rx="1.26" ry="1.66" transform="translate(-11.61 12.56) rotate(-28.9)"/><ellipse class="ad" cx="18.57" cy="28.81" rx="1.14" ry="1.5" transform="translate(-11.61 12.56) rotate(-28.9)"/><ellipse class="ae" cx="18.57" cy="28.81" rx="1.03" ry="1.35" transform="translate(-11.61 12.56) rotate(-28.9)"/><ellipse class="ae" cx="18.57" cy="28.81" rx="0.91" ry="1.2" transform="translate(-11.61 12.56) rotate(-28.9)"/><ellipse class="af" cx="18.57" cy="28.81" rx="0.8" ry="1.05" transform="translate(-11.61 12.56) rotate(-28.9)"/><ellipse class="ag" cx="18.57" cy="28.81" rx="0.69" ry="0.9" transform="translate(-11.61 12.56) rotate(-28.9)"/><ellipse class="ah" cx="18.57" cy="28.81" rx="0.57" ry="0.75" transform="translate(-11.61 12.56) rotate(-28.9)"/><ellipse class="ai" cx="18.57" cy="28.81" rx="0.46" ry="0.6" transform="translate(-11.61 12.56) rotate(-28.9)"/><ellipse class="aj" cx="18.57" cy="28.81" rx="0.34" ry="0.45" transform="translate(-11.61 12.56) rotate(-28.9)"/><ellipse class="aj" cx="18.57" cy="28.81" rx="0.23" ry="0.3" transform="translate(-11.61 12.56) rotate(-28.9)"/><ellipse class="ak" cx="18.57" cy="28.81" rx="0.11" ry="0.15" transform="translate(-11.61 12.56) rotate(-28.9)"/></g><path class="al" d="M16.57,25.16a.53.53,0,0,1,0,.69.44.44,0,0,1-.62-.17A.55.55,0,0,1,16,25,.44.44,0,0,1,16.57,25.16Z"/><path class="al" d="M16.54,31.67a.49.49,0,0,1-.25-.16,6,6,0,0,1-1.39-2.92A4.24,4.24,0,0,1,15.26,26a.36.36,0,0,1,.57-.05.6.6,0,0,1,.17.69,3.3,3.3,0,0,0-.28,2.05A4.68,4.68,0,0,0,16.8,30.9a.54.54,0,0,1,.07.68A.29.29,0,0,1,16.54,31.67Z"/><path class="am" d="M18.72,44.65,16.05,47a1.06,1.06,0,0,1-1.52-.41h0a1.3,1.3,0,0,1,0-1.7l2.68-2.3a1,1,0,0,1,1.51.4h0A1.3,1.3,0,0,1,18.72,44.65Z"/><path class="am" d="M35.32,30.39l-2.68,2.3a1.07,1.07,0,0,1-1.52-.4h0a1.3,1.3,0,0,1,0-1.7l2.68-2.31a1.07,1.07,0,0,1,1.52.4h0A1.31,1.31,0,0,1,35.32,30.39Z"/></svg>