<svg xmlns="http://www.w3.org/2000/svg" viewBox="0 0 242.48 114.03"><defs><style>.a{fill:#4e76b5;}.b{fill:#ffce07;}.c{font-size:37.35px;}.c,.e{fill:#231f20;font-family:AquaGrotesque, Aqua Grotesque;}.d{font-size:10.37px;font-family:Meiryo-Bold, Meiryo;font-weight:700;}.e{font-size:11.41px;}.f{fill:#fff;stroke:#4168b2;stroke-miterlimit:10;stroke-width:0.28px;}</style></defs><path class="a" d="M188.79,112.57a1.46,1.46,0,0,1-.29,0c-7.67-1.47-15.14-3.09-23.4-4.92a51.33,51.33,0,0,0-5.23-.65,1.75,1.75,0,0,1-1.06.37,2.32,2.32,0,0,1-.62-.06l-.1,0a1.93,1.93,0,0,1-1.27.53,3.11,3.11,0,0,1-.43,0c-3.78-.4-8.93-1-13-2.72A34.09,34.09,0,0,0,140,104a1.37,1.37,0,0,1-.69.22h0a1.29,1.29,0,0,1-.88-.32,2.84,2.84,0,0,1-1.26-.39,2.65,2.65,0,0,0-1.28-1.18l-.49-.13a3.18,3.18,0,0,0-.85-.16h-.1l-.27,0a1.26,1.26,0,0,1-.83-.27,1.18,1.18,0,0,1-.28-.31l-.08,0-.28-.08a1.35,1.35,0,0,1-.4.08,1.42,1.42,0,0,1-.5-.08l-.28,0a6.31,6.31,0,0,0-1.35-.17.82.82,0,0,1-.21,0,1.12,1.12,0,0,1-.31,0,17.55,17.55,0,0,1-4.38-1.3,3.17,3.17,0,0,1-.69-.17h-.06a3.19,3.19,0,0,1-.85.14,7,7,0,0,1-1.73-.2l-2.34-.47a2.3,2.3,0,0,1-1.35.41,6.45,6.45,0,0,1-1.53-.14l-.51-.09c-11.47-1.91-24.47-4.08-34.8-6.91-3.87-1-7.8-1.92-13-2.9l.19-.87-1.21,0a1.06,1.06,0,0,0,.56,1,9.92,9.92,0,0,0-1.28-.24,13.85,13.85,0,0,1-2.36-.5,1.24,1.24,0,0,1-.76-.74c-.47-.11-1.16-.24-1.66-.34a1.26,1.26,0,0,1-.82-.53c-.86-.13-1.72-.31-2.56-.49a23.39,23.39,0,0,0-4.24-.63,1.26,1.26,0,0,1-1-.54c-.44-.07-.92-.17-1.41-.28A12,12,0,0,0,49.42,85l-.27,0a1.24,1.24,0,0,1-.63-.14,7.11,7.11,0,0,1-1-.12,39,39,0,0,0-5-.73l-.21,0c-2-.36-4.93-1-7.38-1.48l-3.13-.7a11.14,11.14,0,0,1-1.35-.38,16.27,16.27,0,0,1-2.19-.41,4.38,4.38,0,0,1-2.08.71A2.24,2.24,0,0,1,24.31,81a13.45,13.45,0,0,1-1.14-1.36c-.31-.39-.65-.83-1-1.25l-.67-.79c-1.81-.65-3.87-1.49-5.74-2.32a4.54,4.54,0,0,1-.14,1.13,1.36,1.36,0,0,1-.52.75,2.71,2.71,0,0,1-1.54.48A7.05,7.05,0,0,1,10.83,77c-.32-.09-1.26-.34-2.27-.72a9.64,9.64,0,0,1-1.92-.91,3.74,3.74,0,0,1-1.57-1.7,49.34,49.34,0,0,1-2.36-7.26,41.68,41.68,0,0,1-1.25-10.1A1.41,1.41,0,0,1,1.51,56c.23-.83.72-2.47,1-3.34.52-6.75,1.18-12.59,1.82-18l.19-1.53a109,109,0,0,1,2.09-13c0-2.16,0-4,1.3-4.7a5,5,0,0,0,2.31-5,1.39,1.39,0,0,1,.49-1.15,1.34,1.34,0,0,1,.82-.32,1.73,1.73,0,0,1,.32,0l.06-.06a17,17,0,0,0,.15-3.34c0-.69,0-1.36,0-1.95a1.39,1.39,0,0,1,1-1.27,1.24,1.24,0,0,1,.27,0A1.27,1.27,0,0,1,14.57,3a4.75,4.75,0,0,1,.31.83h.17A2.87,2.87,0,0,1,17.41,2a1.88,1.88,0,0,1,1.77,1,1.17,1.17,0,0,1,.1.26,18,18,0,0,1,.21,6,1.23,1.23,0,0,1,.65,1.17l-.29,6,1.3.35a1.25,1.25,0,0,1,.93,1.12c.06.7.06,1.54.07,2.43a28.27,28.27,0,0,0,.28,4.37,1.32,1.32,0,0,1,.66-.21h.14l1.21-5.92a1.41,1.41,0,0,1,.62-.89,1.37,1.37,0,0,1,.67-.2,1.29,1.29,0,0,1,.39,0l1,.26.2-.15a1.49,1.49,0,0,0,.2-.15.86.86,0,0,1,.14-.13c.61-.52.72-2.83.8-4.53a34.52,34.52,0,0,1,.31-3.66,1.74,1.74,0,0,1,1.12-1.48,14.33,14.33,0,0,1,.69-3.46c.16-.54.32-1.11.45-1.71a1.38,1.38,0,0,1,1.29-1.08h.09a1.26,1.26,0,0,1,1.22,1.18,90.29,90.29,0,0,1-.28,12.8c-.07,1-.14,2-.2,2.94L168.87,44.92a6.24,6.24,0,0,1,1.32-.21,5,5,0,0,1,1.6.2c1.94.54,4,1.14,6.19,1.79l11.11,2.18a1.25,1.25,0,0,1,1,1.24v1.53a129.21,129.21,0,0,0,15.72,4.66c3.73.94,7.59,1.91,11.35,3.09,2.48.46,3.72.74,4.35,1.35a13.27,13.27,0,0,0,6.31,2.74,1.25,1.25,0,0,1,1,.91,3.67,3.67,0,0,0,.46.3,37.76,37.76,0,0,0,3.68,1c.68.15,1.34.3,1.93.45a1.26,1.26,0,0,1,.94,1.38,1.34,1.34,0,0,1-.2.58c.86.5,1.63,1.24,1.46,2.2a1.57,1.57,0,0,1-1.48,1.27h-.19A31.91,31.91,0,0,1,230,70.39l-.74-.2a1.18,1.18,0,0,1-.65.2,1,1,0,0,1-.35,0c-1.58-.38-3.11-.74-4.78-1.11a1.4,1.4,0,0,1-.42.63,1.36,1.36,0,0,1-.83.32h0l1,.31a1.26,1.26,0,0,1,.88,1.23V72l.2.15a2.74,2.74,0,0,0,.31.23l.09.06a12.66,12.66,0,0,0,3.49,1.27l.86.21c1.46.35,3,.71,4.41,1.19a1.84,1.84,0,0,1,1.17.88,21.7,21.7,0,0,1,3.74,1.31c.59.25,1.19.5,1.85.75a1.27,1.27,0,0,1,.75,1.6,1.38,1.38,0,0,1-1.25,1,1.84,1.84,0,0,1-.33,0c-2.75-.62-5.55-1.34-8.26-2-6.17-1.6-12.56-3.25-18.9-3.81h-.08a2,2,0,0,1-1.06.34,3.4,3.4,0,0,1-.74-.07l-.41-.09a2,2,0,0,1-1.31.51,2,2,0,0,1-.54,0c-5.79-.72-11.38-1.53-16.08-3.52l-1.89-.66V96.31a1.34,1.34,0,0,1-.5,1,1.31,1.31,0,0,1-.82.32,1.46,1.46,0,0,1-.29,0L169,93.83A8.23,8.23,0,0,0,172.38,95a1.26,1.26,0,0,1,1.08,1l.27.19.74.2.38.08c.67.13,1.39.23,2.09.32l1,.14a1.27,1.27,0,0,1,1.07,1.2,1.34,1.34,0,0,1-.19.74,2.59,2.59,0,0,1,1.25,1.3s0,.1,0,.14a1.4,1.4,0,0,1,.09,1.15,1.56,1.56,0,0,1-1.52,1h-.42c-1.32-.18-2.78-.42-4.54-.76a1.39,1.39,0,0,1-.62.18,1.55,1.55,0,0,1-.31,0l-3.59-.74a1.56,1.56,0,0,1-.41.64,1.36,1.36,0,0,1-.85.34h0l.91.28a1.26,1.26,0,0,1,.88,1.23v.29l.14.13c.08.07.15.14.22.19l.1.07c.75.6,2.64,1,4.47,1.34.87.17,1.78.35,2.66.57a1.76,1.76,0,0,1,1.14.77,23.6,23.6,0,0,1,2.58.5c.74.18,1.5.36,2.33.48a1.28,1.28,0,0,1,1,.77l.57.16c1.36.37,2.76.76,4.28,1.16a1.26,1.26,0,0,1,.9,1.56A1.38,1.38,0,0,1,188.79,112.57Z"/><path class="b" d="M22.63,46a9.24,9.24,0,0,0,3-7.23c0-5.69-3.9-11.08-8.68-12s-8.68,2.93-8.68,8.62a13.43,13.43,0,0,0,3,8.4l-3,5.58L12,44.57l.06.07,4.37,24.45L15.27,41.93l-.48-.39-.25-.22L17,38.21l2.41,4a1.92,1.92,0,0,1-.25.12l-.48.21L17.47,69.3l4.38-22.75.06,0,3.72,6.23Zm-9.26-6.11a7.14,7.14,0,0,1-1.06-3.72c0-3,2.08-5.12,4.65-4.62s4.65,3.39,4.65,6.44a5.23,5.23,0,0,1-1.07,3.31L17,33.2Z"/><text class="c" transform="matrix(0.84, 0.16, 0, 1, 28.98, 56.76)">Monaxias</text><text class="d" transform="matrix(0.84, 0.16, 0, 1, 152.18, 57.71)">モナクシアス</text><text class="e" transform="matrix(0.84, 0.16, 0, 1, 32.75, 72.25)">Humanity last bastion</text><path class="f" d="M240.7,76.8c-.62-.23-1.21-.48-1.79-.72a25.39,25.39,0,0,0-3.49-1.27,3.39,3.39,0,0,0-1.58-1c-1.48-.48-3.05-.86-4.44-1.19l-.87-.21a12.7,12.7,0,0,1-3.05-1.08l-.1-.06a1.84,1.84,0,0,0,0-.25l2.6.61a2.35,2.35,0,0,0,.7.07,2.85,2.85,0,0,0,.71-.12l.29.07a31.71,31.71,0,0,0,5.66,1.18h.39a2.94,2.94,0,0,0,2.73-2.39,3,3,0,0,0-1.23-3,2.52,2.52,0,0,0-1.89-2.66c-.6-.16-1.27-.31-2-.46-1.19-.27-2.41-.55-3.4-.87a2.5,2.5,0,0,0-1.81-1.31,11.93,11.93,0,0,1-5.73-2.49c-.87-.77-2.18-1.09-4.84-1.59C213.77,56.94,209.92,56,206.2,55a135,135,0,0,1-14.77-4.3v-.66a2.53,2.53,0,0,0-2-2.49l-11-2.16c-2.14-.65-4.23-1.24-6.17-1.78a5.89,5.89,0,0,0-2-.24,6.63,6.63,0,0,0-1.31.17L34.49,17.3c0-.61.09-1.22.13-1.82a89.7,89.7,0,0,0,.28-13A2.52,2.52,0,0,0,32.47.14h-.2A2.75,2.75,0,0,0,29.71,2.3c-.13.56-.28,1.08-.44,1.63a18.14,18.14,0,0,0-.67,3,3,3,0,0,0-1.17,2.13,34.44,34.44,0,0,0-.32,3.77,19,19,0,0,1-.37,3.5l-.23-.06a2.6,2.6,0,0,0-.78-.09,2.71,2.71,0,0,0-2.34,1.52,2.51,2.51,0,0,0-1.85-2.18l-.32-.09L21.44,11h0l0-.49a2.59,2.59,0,0,0-.6-1.79,18.2,18.2,0,0,0-.3-5.75,3.39,3.39,0,0,0-.2-.53A3.18,3.18,0,0,0,17.41.67a3.69,3.69,0,0,0-2.26.9A2.59,2.59,0,0,0,13.39,1a2.52,2.52,0,0,0-.54.08,2.75,2.75,0,0,0-2.09,2.52c0,.65,0,1.35,0,2s0,1.49,0,2.15a2.82,2.82,0,0,0-.84.48,2.7,2.7,0,0,0-1,2.3,3.68,3.68,0,0,1-1.64,3.75c-1.88,1.05-2,3.39-2,5.72A115.27,115.27,0,0,0,3.21,33L3,34.51c-.63,5.41-1.29,11.23-1.81,17.92-.31,1-.77,2.52-1,3.24a3.28,3.28,0,0,0-.1.69A43.88,43.88,0,0,0,1.43,66.78a51.55,51.55,0,0,0,2.42,7.45,5.07,5.07,0,0,0,2.06,2.28,10.72,10.72,0,0,0,2.17,1,23,23,0,0,0,2.29.73,8.22,8.22,0,0,0,3.18.64,4.16,4.16,0,0,0,2.29-.74,2.85,2.85,0,0,0,.88-1.07c1.34.57,2.71,1.11,4,1.58l.42.5,0,0c.35.41.68.83,1,1.21a17.38,17.38,0,0,0,1.2,1.44,3.56,3.56,0,0,0,2.9,1.24,5.24,5.24,0,0,0,2.23-.63,14.89,14.89,0,0,0,1.72.3,11.09,11.09,0,0,0,1.3.37l3.16.71c2.47.53,5.45,1.13,7.44,1.49a3,3,0,0,0,.42,0h0a40.05,40.05,0,0,1,4.79.7c.34.06.63.11.89.13a2.49,2.49,0,0,0,1,.15l.28,0a13.44,13.44,0,0,1,2.13.36l1,.21a2.47,2.47,0,0,0,1.63.63,22.77,22.77,0,0,1,4,.61c.71.15,1.44.31,2.18.43a2.55,2.55,0,0,0,1.22.6l1.09.21a2.47,2.47,0,0,0,1.15.82,15.77,15.77,0,0,0,2.58.55c.36,0,.9.14,1.07.19l-.15-.06,3.15.41c4,.81,7.26,1.61,10.51,2.42,10.4,2.85,23.43,5,34.92,6.94l.49.08a8.15,8.15,0,0,0,1.79.16,4,4,0,0,0,1.53-.34l1.52.31.34.07a8.78,8.78,0,0,0,2,.22,5.08,5.08,0,0,0,.83-.1l.28.06a19.87,19.87,0,0,0,4.55,1.33,2.68,2.68,0,0,0,.63,0l.24,0a5.82,5.82,0,0,1,1,.14l.26,0a2.59,2.59,0,0,0,.83.1h.12l.09.07a2.49,2.49,0,0,0,1.66.53,2.58,2.58,0,0,0,.4,0l.43.11.13,0a2.64,2.64,0,0,0,.58.41,2.31,2.31,0,0,0,.7.69,3.72,3.72,0,0,0,1.47.55,2.52,2.52,0,0,0,1.42.37h0a2.76,2.76,0,0,0,.77-.14c1,.28,1.93.6,2.87.94,4.19,1.8,9.4,2.37,13.23,2.78a3.5,3.5,0,0,0,.65,0,3.34,3.34,0,0,0,1.57-.45h.42a3.07,3.07,0,0,0,1.35-.35c1.42.12,3,.32,4.67.61,8.25,1.82,15.71,3.45,23.38,4.91a2.94,2.94,0,0,0,.59,0,2.75,2.75,0,0,0,2.54-2.06,2.54,2.54,0,0,0-1.8-3.13c-1.5-.39-2.9-.78-4.26-1.15l-.09,0a2.52,2.52,0,0,0-1.62-.93c-.78-.12-1.48-.28-2.22-.46s-1.44-.34-2.23-.46a3.14,3.14,0,0,0-1.54-.82c-.9-.22-1.79-.4-2.66-.57a15,15,0,0,1-3.93-1.09h0a2.7,2.7,0,0,0-.08-.41l1.56.32a2.56,2.56,0,0,0,.62,0,2.85,2.85,0,0,0,.71-.12c1.61.3,3,.53,4.22.7l.2,0a3.36,3.36,0,0,0,.45,0,2.92,2.92,0,0,0,2.76-1.93,2.71,2.71,0,0,0-.1-2.08l0-.08a3.26,3.26,0,0,0-1-1.41,1.13,1.13,0,0,0,0-.26,2.35,2.35,0,0,0-.09-.6l8,1.56a3,3,0,0,0,.59,0,2.76,2.76,0,0,0,2.64-2.73V73.05l.09,0c4.83,2,10.48,2.85,16.32,3.58a4.09,4.09,0,0,0,.78,0,3.56,3.56,0,0,0,1.57-.42,4.63,4.63,0,0,0,.89.07,3.31,3.31,0,0,0,1.3-.31,119.48,119.48,0,0,1,18.37,3.75c2.72.7,5.53,1.42,8.29,2a2.57,2.57,0,0,0,.67.06,2.76,2.76,0,0,0,2.5-1.89A2.55,2.55,0,0,0,240.7,76.8Zm-28.31-3.4a2,2,0,0,0-.43-.05c-.48,0-.4.36-.88.37a1.84,1.84,0,0,1-.43,0l-1.73-.36c.47.45.15.74-.3.76l-.29,0c-5.21-.65-11.08-1.44-15.79-3.44-1.18-.41-2.37-.85-3.75-1.28v27l-40.26-7.87s0,.08-.08.09c5,1.37,10.12,2.52,15.08,4.2,1.28.22,2.69.48,3,.87a9.55,9.55,0,0,0,5.61,2.65c0,.42.46.73.93,1a8,8,0,0,0,1,.29l.4.09c1.09.21,2.23.33,3.15.48a1.47,1.47,0,0,1-.46.07,4.41,4.41,0,0,1-.89-.09c-.46.13.92.8.47.93h-.07a15.91,15.91,0,0,1-3.16-.62v.42c1.4.29,2.32.47,3.7.7,1.18.37,1.7.93,1.54,1.18.25.19.21.31-.13.32h-.2c-1.73-.24-3.6-.58-5.52-1a.43.43,0,0,1,.14.36l-5.6-1.15.52.11-.65-.14-.36-.07v.42l.93.2v.84a51.54,51.54,0,0,0-5.66-.72c-.81,0-1.24.26-.91.85l.93.2v.63l6.09,1.9v.64l-1.41-.29a4.86,4.86,0,0,1,2.34,1.33c1.4,1.13,4.64,1.43,7.62,2.16a.64.64,0,0,1,.51.72c2,.11,3.53.74,5.67,1.06-.67,0-1.33,0-2,0,2.45.65,4.87,1.36,7.67,2.08-7.79-1.48-15.58-3.19-23.37-4.9a51.51,51.51,0,0,0-5.51-.69,1.24,1.24,0,0,0-.3,0c-.45,0-.35.4-.8.42a1.24,1.24,0,0,1-.3,0l-1.41-.29c.4.45.11.76-.28.77a.58.58,0,0,1-.19,0c-4.22-.44-8.91-1-12.65-2.62a31.84,31.84,0,0,0-4.68-1.39v.42c0-.42-.94-.19-1.41-.5v-.43c0-.21-.46-.31-.93-.4v-.43c-.81,0-1.62-.45-2.44-.42a2.52,2.52,0,0,0-.37,0v-.42h-.11c-.39,0-1-.3-1.45-.29a.67.67,0,0,0-.32.1v-.42c0,.17,0,.34-.25.35l-.22,0a7.35,7.35,0,0,0-1.66-.19.75.75,0,0,0-.21,0c-1.41-.29-4.22-1.09-4.21-1.3a2.13,2.13,0,0,1-.93-.23h-.08c-.48,0-.59.17-1.07.19a6.13,6.13,0,0,1-1.42-.18l-3.92-.79c.86.45.58.68-.08.7a5.65,5.65,0,0,1-1.23-.11c-11.74-2-24.79-4.12-35.22-7-3.91-1-7.83-1.93-13-2.93v.26l-.29,0a16.67,16.67,0,0,0-2-.37l-1-.19c-.23,0-.43-.11-.62-.17v-.43c0-.21-1.3-.46-2.61-.7v-.43c-2.61-.27-5.22-1.2-7.82-1.25,0-.21,0-.21,0-.43-1.22,0-3.58-.82-4.95-.77l-.27,0v-.42c0,.14,0,.27-.36.29a5.8,5.8,0,0,1-.94-.11,38.19,38.19,0,0,0-5.22-.75c-2-.35-4.89-.94-7.34-1.46l-3.12-.7a5.52,5.52,0,0,1-1.28-.39,15,15,0,0,1-2.8-.56,3.49,3.49,0,0,1-1.87.84A1,1,0,0,1,25.3,80c-.41-.35-1.23-1.52-2.12-2.57-.31-.38-.61-.73-.91-1-2.37-.85-5.27-2-7.6-3.16a3.6,3.6,0,0,0-.15.7c-.1.76,0,1.63-.17,2.09a1.45,1.45,0,0,1-.8.22,5.51,5.51,0,0,1-2.25-.51,22.26,22.26,0,0,1-2.24-.69,9.57,9.57,0,0,1-1.68-.79,2.58,2.58,0,0,1-1.09-1.14A47.84,47.84,0,0,1,4,66.07,40.33,40.33,0,0,1,2.78,56.3c.23-.84.76-2.62,1-3.45C4.34,45.93,5,40,5.64,34.74A126.57,126.57,0,0,1,7.92,20.21c0-1.61,0-3.39.61-3.68a6.35,6.35,0,0,0,3-6.31,1.37,1.37,0,0,0,.38,0c.53,0,.86-.42,1.2-.81.46-1.66.19-4.11.28-5.87a3.37,3.37,0,0,1,.29,1.87.29.29,0,0,0,.26.18c.31,0,.73-.53,1-.54a.29.29,0,0,1,.26.18c.32,1.28-.14,2.93-.2,4.11l.76.2L16,4.9c.3-1.08.91-1.58,1.39-1.59a.61.61,0,0,1,.59.35c.65,2.55.13,5.38,0,7.72,0-.34.16-.45.35-.45a1.44,1.44,0,0,1,.44.07v-.08c-.13,2.58-.24,5-.38,7.71l.76.2.06-1.17,1.52.41c.23,2.95-.42,9,2.05,9L23,27l.06-1.17,1.14.31c.46-2.26,1-5.06,1.5-7.32l1.14.31-.08,1.76c.08-1.76,1.25-2,1.66-2.52,1.6-1.35,1-5.66,1.59-9.07,0-.3.21-.39.45-.4a2.64,2.64,0,0,1,.72.12c-.27-2.45.58-4,1.07-6.24.4,5.72-.25,11.15-.56,16.68L168.89,46.28a4.76,4.76,0,0,1,1.3-.25,3.83,3.83,0,0,1,1.19.14c1.93.55,4.07,1.15,6.24,1.81l11.17,2.19v2.39c8.67,3.55,18.56,5.15,28,8.12,1.59.29,3.35.62,3.78,1a14.6,14.6,0,0,0,7,3.07c0,.42.56.77,1.14,1.12,1.74.6,4.08,1,5.83,1.47h-.17a5.49,5.49,0,0,1-1.59-.25c-.59.06,1.14.93.55,1a33.23,33.23,0,0,1-4.07-1v.43c1.74.4,2.9.73,4.65,1.17,1.73.66,2.27,1.47,1.69,1.51-2.34-.18-5.22-1.16-7.54-1.69.58.13.57.35.57.56-2.52-.61-4.85-1.14-7.52-1.72v.42l1.15.26c0,.21,0,.64,0,.85-2-.3-5.53-1.1-7.25-1-.81,0-1.21.25-.85.81l1.16.23v.64c2.31.7,5.19,1.51,7.48,2.24,0,0,0,.43,0,.64L221.05,72a6.65,6.65,0,0,1,2.85,1.48A12.76,12.76,0,0,0,227.81,75c1.64.4,3.49.81,5.19,1.37a.66.66,0,0,1,.54.78c2.27.36,3.93,1.31,6.17,2.14C230.72,77.25,221.63,74.22,212.39,73.4Z"/></svg>