<svg xmlns="http://www.w3.org/2000/svg" viewBox="0 0 131.67 75.48"><defs><style>.a{opacity:0.75;}.b{fill:#979fce;stroke:#fff;stroke-miterlimit:10;}.c{fill:#231f20;}.d{fill:#be9333;}.e{fill:#333;}.f{fill:#0c2849;}.g{fill:#999;}</style></defs><g class="a"><path class="b" d="M115.46,37.75l.61.14Z"/><path class="b" d="M128.87,63.75a29.57,29.57,0,0,0-2.45-1.69l.1-.34a24.78,24.78,0,0,0,2.19,1.48c.37.07-.42-.93-.05-.87a2.75,2.75,0,0,0,1,.54c-.93-.72-2.27-1.45-3.23-2.21-.28-.38-.59-.75-.5-1.1a9.69,9.69,0,0,1-4.07-3.21,4.92,4.92,0,0,0-2.23-1c-1.35-.64-2.65-1.14-3.9-1.6l-3.95-1.38a49.76,49.76,0,0,1-7.64-3.21l-1.24-1.11a18,18,0,0,0-5-1.58V38.84a2.06,2.06,0,0,1,.48.15c.19.09.22-.1.24-.28l-.05.37c.24-.29.56.25.77.14,0,.19,0,.19,0,.37.42-.2.74.33,1.15.31l-.06.37c.19.08.38.16.35.35l0,.37c.17.27.6.06.55.43l0-.37a8.44,8.44,0,0,1,1.86,1.17,9.12,9.12,0,0,0,5.31,2c.2.07.42-.24.25-.69l.59.21c.4.13.23-.51.63-.38a20.55,20.55,0,0,1,4.82.94,16.32,16.32,0,0,0,4.88.79,5.81,5.81,0,0,0-2.27-.76c0-.2,0-.59-.23-.63-1.21-.41-2.6-.37-3.19-1.3-.2-.24-.4-.88-1-1l.59.15V41c-.78-.38-1.72-.87-2.47-1.29,0,0,0-.38,0-.57l-.38-.12c-.31-1.45,1.71-.62,2.64-.58v-.78l-.36-.1v-.38c.88.24,1.64.43,2.47.61l-.11,0c0-.2,0-.39-.19-.43a4.48,4.48,0,0,0,2.32.28c.16-.17-.06-.78-.59-1.09-.53-.1-.88-.15-1.41-.28v-.39c.35.09.88.37,1.22.25.16-.16-.38-.66-.22-.82.17,0,.35.07.5-.1a4.63,4.63,0,0,1-1.71-.35,1.36,1.36,0,0,1-.36-.86c-.84,0-1.54-.78-2-1.87-.12-.33-.62-.44-1.08-.54-2.77-1.76-5.82-2.58-8.38-5l-.58-1a9.67,9.67,0,0,0-4.52-2c-.73-.14-1.59,1.63-1.59,1.63l-.07.09L34.82,8.81a38,38,0,0,0-2.45-5c-1-1.74-5.85-2.24-5.85-2.24-.95-.3-2.69-.44-3.34.17-.09,1,.67,3.28-.92,3.6-.4.08-.55-.38-.7-.84-1.6.32-5.25-.43-5.4-.89C15.21,3.27,11.9,1,11,.66,9.29-.49,4.69,4.83,4.11,6.93c-.48,1.09-2,.39-3.19.63.71.85-.33,1.55.38,2.41-.4.08.14,2.95.61,4.34a3.72,3.72,0,0,1,1,1.78c.15.47.55.39,1,.31l-.8.16c1,.3.48,1.39,1,1.78l-.79.16c1.11.77.63,1.86,1.34,2.71l-.79.16c.16.47.31.93-.08,1l-.8.16c-.24.55.88,1.32.08,1.48l.8-.16a16.92,16.92,0,0,1,.8,4.82C4.37,32.75,6.78,37.24,9,41.25a1.09,1.09,0,0,0,1.74.11l.49,1.39c.33.93,1.35.2,1.68,1.12,4.58,7,5.26,14.83,9.13,21.95-.28-1.95,0-3.52-1-5.28.39-.09,1.17-.28,1-.74-.61-2.87-2.56-5.92-1.47-7.67.23-.55,1.24-1.29.75-2.67l.49,1.38L23,50.57c-.27-1.94-.69-4.34-.95-6.27L23.23,44l-.32-.92c2.44-1.55,3.83,3.6,5.05,5.8l1.57-.36-.33-.92.79-.18c.76,2.11,1.42,4,2.13,5.95.4-.09.79-.19.63-.64.65,1.83,1.08,4.21,2.53,5.85.56.36,1.57-.38,1.47-1.84-.49-1.37-.82-2.28-1.32-3.66l.79-.18c.33.91.43,2.37,1.15,3.19.56.37.85-1.19,1.41-.83a2.19,2.19,0,0,0,.89,1.28c-.5-1.37-1.55-3.1-1.64-4.56a1.75,1.75,0,0,1,1.24-1.29,4.89,4.89,0,0,1,.22-5.26c1.1.19,1.77.85,3,1a38.43,38.43,0,0,0,5.88,1.92,10.81,10.81,0,0,1,2.61.48c.65.17.65,0,.65-.22V49c.66-.22,2,.51,2.62.48v.39c1.3-.05,2.61.68,3.91.82,0,.2,0,.2,0,.39.65.17,1.3.34,1.3.53V52c.66.37,2,.32,2,.7,0-.19,0-.19,0-.38A68.4,68.4,0,0,1,68,54.41C73.17,56.54,79.7,57.84,85.58,59c.65.17,1.3,0,.65-.61l2,.51c1.3.34.65-.41,2-.07s2.58.46,3.87.73l.1.07c.57.45.12,1,.2,1.59.48-.15.8.48,1.29.35a7.94,7.94,0,0,0,2.42.83s.25-.15,1.09,0c.27.07.27-.13.27-.32,0,.19,0,.19,0,.39.27-.32.84.2,1.13.08V63c.57-.25,1.15.29,1.74.26v.38c.3.08.59.16.59.35v.39c.3.27.9,0,.9.44v-.39a16.32,16.32,0,0,1,3,1.22c2.43,1.44,5.48,1.89,8.22,2.25.31.08.62-.22.31-.69l.92.25c.6.17.31-.5.9-.33a14.72,14.72,0,0,1,6.09,1.72,51.38,51.38,0,0,1,5.21,3.68,9.09,9.09,0,0,0-2.32-2.38c.07-.16.21-.48,0-.65-1.33-1.22-2.86-1.63-3.49-2.68-.22-.28-.39-1-1.19-1.26l.78.31c0-.19.07-.56.07-.56a35.61,35.61,0,0,0-3.6-1.82v-.58l-.59-.17c-.58-1.52,2.72-.41,4.19,0,0-.18.06-.56.09-.74l-.61-.24,0-.37A23.34,23.34,0,0,1,126.89,64c-.29-.2-.88-.58-1.18-.75a.37.37,0,0,0-.2-.52c1.22.69,2.6,1.88,3.87,2.48C129.73,65.28,129.69,64.59,128.87,63.75Z"/><path class="b" d="M32.78,55.24c-.23-.64-.44-1.24-.66-1.84h0C32.29,53.86,32.62,54.78,32.78,55.24Z"/></g><path class="c" d="M43.43,33.59,41.28,33V15.1L51.4,31.38V18.08l2.16.57V36.27l-2.1-.55-8-13.24Z"/><path class="c" d="M63.48,33.35l-4.29-1.13a5.39,5.39,0,0,0,.44,1.32,5.3,5.3,0,0,0,.76,1.18,5,5,0,0,0,1,.9,3.82,3.82,0,0,0,1.18.54,2.78,2.78,0,0,0,1.4,0,2.57,2.57,0,0,0,1.14-.63l.4.1,2.18.58a2.83,2.83,0,0,1-.31.6,5.17,5.17,0,0,1-.39.53,4.14,4.14,0,0,1-1.92,1.26,4.42,4.42,0,0,1-2.5,0,6.52,6.52,0,0,1-2.2-1.07,8.28,8.28,0,0,1-1.8-1.84,8.87,8.87,0,0,1-1.2-2.33,7.7,7.7,0,0,1-.44-2.59,5.83,5.83,0,0,1,.44-2.35,4.51,4.51,0,0,1,1.2-1.7,4,4,0,0,1,1.8-.88,4.61,4.61,0,0,1,2.2.09,6.31,6.31,0,0,1,2.5,1.32A8.87,8.87,0,0,1,67,29.57a8.4,8.4,0,0,1,1,2.53,7.27,7.27,0,0,1,.19,1.68,4.92,4.92,0,0,1-.06.8L65.92,34Zm-.91-4.92a2.63,2.63,0,0,0-1.87.11,2.58,2.58,0,0,0-1.25,1.27l5,1.32,1.25.33c-.07-.14-.13-.29-.2-.43a3.91,3.91,0,0,0-.2-.41,5.42,5.42,0,0,0-1.2-1.4A4,4,0,0,0,62.57,28.43Z"/><path class="c" d="M79.16,31.26a7.57,7.57,0,0,1,1.24,1.66l-1.24.78-.47.31a4.14,4.14,0,0,0-1-1.21,3.2,3.2,0,0,0-1.27-.7,2.21,2.21,0,0,0-1,0,1.84,1.84,0,0,0-.85.42,2.21,2.21,0,0,0-.58.81,2.83,2.83,0,0,0-.21,1.12v7.12L71.58,41V28.34l2.2.58v.92A3.46,3.46,0,0,1,75,29.5a4,4,0,0,1,1.43.13,5.3,5.3,0,0,1,1.43.62A6.73,6.73,0,0,1,79.16,31.26Z"/><path class="c" d="M88.19,32.71a6.24,6.24,0,0,1,2.2,1.07,8.41,8.41,0,0,1,1.79,1.83,8.75,8.75,0,0,1,1.21,2.33,8,8,0,0,1,.44,2.59,6.05,6.05,0,0,1-.44,2.36,4.43,4.43,0,0,1-1.21,1.7,4,4,0,0,1-1.79.88,4.87,4.87,0,0,1-2.2-.09A6.54,6.54,0,0,1,86,44.3a8,8,0,0,1-1.79-1.83A9.05,9.05,0,0,1,83,40.14a8,8,0,0,1-.44-2.59A6,6,0,0,1,83,35.2a4.46,4.46,0,0,1,1.21-1.7A3.92,3.92,0,0,1,86,32.62,4.6,4.6,0,0,1,88.19,32.71Zm0,10.2a2.88,2.88,0,0,0,1.33.05,2.42,2.42,0,0,0,1.1-.54,2.64,2.64,0,0,0,.73-1A3.61,3.61,0,0,0,91.63,40a4.76,4.76,0,0,0-.27-1.57A5.37,5.37,0,0,0,90.63,37a5.08,5.08,0,0,0-1.1-1.12,3.83,3.83,0,0,0-1.33-.65,2.88,2.88,0,0,0-1.33,0,2.39,2.39,0,0,0-1.09.54,2.79,2.79,0,0,0-.75,1,3.6,3.6,0,0,0-.28,1.42A4.83,4.83,0,0,0,85,39.71a5.74,5.74,0,0,0,.75,1.43,5,5,0,0,0,1.09,1.12A4,4,0,0,0,88.2,42.91Z"/><path d="M98.05,36.62l-.6-.16v-3A11.76,11.76,0,0,1,94.6,34l-.2-.58a11.58,11.58,0,0,0,3-.57,4.79,4.79,0,0,0,2-1.2l-4.35-1.15v-.52l2.37.62v-1l.59.16v1l2,.53.27.36a5.51,5.51,0,0,1-2.24,1.62Zm3.39-1.25-.38.41a21.62,21.62,0,0,0-2.42-2l.32-.37A22.42,22.42,0,0,1,101.44,35.37Z"/><path d="M107.79,38.81l-5.55-1.46V31.66l5.55,1.47Zm-.59-.7V33.49l-4.38-1.16V37Z"/><path class="c" d="M41.48,41.09l2.12.56v.84l-2.89-.76V35.85l.77.21Z"/><path class="c" d="M46.52,39a2.16,2.16,0,0,1,.73.36,3.2,3.2,0,0,1,.61.61,3.12,3.12,0,0,1,.41.79,3,3,0,0,1,.15.87v2.08l-.74-.2v-.39a1.4,1.4,0,0,1-.53.19,1.53,1.53,0,0,1-.63-.05,2.16,2.16,0,0,1-.73-.36,2.57,2.57,0,0,1-.61-.62,2.87,2.87,0,0,1-.4-.78,2.57,2.57,0,0,1-.15-.87,2,2,0,0,1,.15-.79,1.5,1.5,0,0,1,.4-.57,1.31,1.31,0,0,1,.6-.3A1.56,1.56,0,0,1,46.52,39Zm0,3.44a1,1,0,0,0,.45,0,.8.8,0,0,0,.37-.18,1,1,0,0,0,.25-.35,1.21,1.21,0,0,0,.09-.48,1.7,1.7,0,0,0-.09-.54,2.19,2.19,0,0,0-.25-.48,1.62,1.62,0,0,0-.37-.37,1.2,1.2,0,0,0-.45-.23.86.86,0,0,0-.45,0,.85.85,0,0,0-.37.18,1.16,1.16,0,0,0-.25.35,1.22,1.22,0,0,0-.09.49,1.58,1.58,0,0,0,.09.52,2.17,2.17,0,0,0,.25.48,1.67,1.67,0,0,0,.37.38A1.37,1.37,0,0,0,46.52,42.48Z"/><path class="c" d="M52.29,44.79l-.91-.24-1.09-2h0v1.64l-.73-.2V37.12l.73.2V41.2l.75-1,.91.24L50.74,42Z"/><path class="c" d="M55.59,43.82l-1.43-.38a2.25,2.25,0,0,0,.14.44,1.87,1.87,0,0,0,.59.69,1.14,1.14,0,0,0,.39.18.84.84,0,0,0,.47,0,.76.76,0,0,0,.38-.21l.14,0,.72.19a1.24,1.24,0,0,1-.1.2l-.13.18a1.38,1.38,0,0,1-.64.42,1.5,1.5,0,0,1-.84,0,2.16,2.16,0,0,1-.73-.36,2.67,2.67,0,0,1-.6-.61,3.2,3.2,0,0,1-.4-.78A2.55,2.55,0,0,1,53.4,43a2,2,0,0,1,.15-.79,1.46,1.46,0,0,1,.4-.56,1.31,1.31,0,0,1,.6-.3,1.52,1.52,0,0,1,.73,0,2.27,2.27,0,0,1,.84.44,3,3,0,0,1,.64.77,2.85,2.85,0,0,1,.34.84,2.6,2.6,0,0,1,.06.56,1.14,1.14,0,0,1,0,.27L56.4,44Zm-.31-1.64a.84.84,0,0,0-1,.46l1.66.44.42.11L56.26,43a.83.83,0,0,1-.07-.13,1.81,1.81,0,0,0-.4-.47A1.24,1.24,0,0,0,55.28,42.18Z"/><path class="c" d="M63.73,43.58a2.14,2.14,0,0,1,.73.35,2.89,2.89,0,0,1,.6.61,3.2,3.2,0,0,1,.4.78,2.57,2.57,0,0,1,.15.87,1.94,1.94,0,0,1-.15.78,1.58,1.58,0,0,1-.4.57,1.4,1.4,0,0,1-.6.29,1.52,1.52,0,0,1-.73,0,2.12,2.12,0,0,1-.74-.36,2.85,2.85,0,0,1-.59-.61,2.64,2.64,0,0,1-.41-.78,2.77,2.77,0,0,1-.14-.86,2.13,2.13,0,0,1,.14-.78,1.49,1.49,0,0,1,.41-.57,1.31,1.31,0,0,1,.59-.29A1.56,1.56,0,0,1,63.73,43.58Zm0,3.4a1.1,1.1,0,0,0,.44,0,.85.85,0,0,0,.37-.18,1,1,0,0,0,.24-.35,1.21,1.21,0,0,0,.09-.48,1.58,1.58,0,0,0-.09-.52,2.16,2.16,0,0,0-.24-.48,1.85,1.85,0,0,0-.37-.37,1.3,1.3,0,0,0-.44-.22,1,1,0,0,0-.44,0,.85.85,0,0,0-.37.18,1,1,0,0,0-.25.35,1.21,1.21,0,0,0-.09.48,1.58,1.58,0,0,0,.09.52,2.19,2.19,0,0,0,.25.48,1.85,1.85,0,0,0,.37.37A1.3,1.3,0,0,0,63.73,47Z"/><path class="c" d="M67.73,45.06l.89.24v.82l-.89-.24v3l-.74-.2v-3l-.26-.07v-.83l.26.07V43.32a1.61,1.61,0,0,1,.23-.74,1.13,1.13,0,0,1,.51-.46h0a1.08,1.08,0,0,1,.42-.11,1.27,1.27,0,0,1,.47,0v.83a.7.7,0,0,0-.35,0A.82.82,0,0,0,68,43a.66.66,0,0,0-.19.27.9.9,0,0,0-.07.37Z"/><path class="c" d="M75.19,46.6a2.16,2.16,0,0,1,.73.36,2.89,2.89,0,0,1,.6.61,3.2,3.2,0,0,1,.4.78,2.61,2.61,0,0,1,.15.87,1.94,1.94,0,0,1-.15.78,1.58,1.58,0,0,1-.4.57,1.48,1.48,0,0,1-1.33.27,1.85,1.85,0,0,1-.62-.29,2.63,2.63,0,0,1-.54-.46v3.28l-.73-.2V48.23h0a2,2,0,0,1,.15-.79,1.43,1.43,0,0,1,.4-.56,1.31,1.31,0,0,1,.6-.3A1.56,1.56,0,0,1,75.19,46.6Zm0,3.41a.83.83,0,0,0,.44,0,.87.87,0,0,0,.37-.19,1.11,1.11,0,0,0,.25-.34,1.21,1.21,0,0,0,.09-.48,1.58,1.58,0,0,0-.09-.52A2.73,2.73,0,0,0,76,48a2.22,2.22,0,0,0-.37-.38,1.4,1.4,0,0,0-.44-.22.9.9,0,0,0-.46,0,.77.77,0,0,0-.36.18.9.9,0,0,0-.25.35,1.19,1.19,0,0,0-.09.47h0a1.64,1.64,0,0,0,.09.53,2.34,2.34,0,0,0,.25.47,1.91,1.91,0,0,0,.37.38A1.32,1.32,0,0,0,75.19,50Z"/><path class="c" d="M80.72,48.38a2.93,2.93,0,0,1,.42.56l-.42.26-.15.1a1.38,1.38,0,0,0-.32-.4,1,1,0,0,0-.42-.24.83.83,0,0,0-.35,0,.71.71,0,0,0-.29.14.77.77,0,0,0-.19.27.92.92,0,0,0-.07.38v2.37l-.73-.19V47.41l.73.19v.31a1.19,1.19,0,0,1,.42-.11,1.34,1.34,0,0,1,.48,0,1.51,1.51,0,0,1,.47.21A1.7,1.7,0,0,1,80.72,48.38Z"/><path class="c" d="M83.73,48.87a1.94,1.94,0,0,1,.74.35,3.15,3.15,0,0,1,.6.61,3.2,3.2,0,0,1,.4.78,2.82,2.82,0,0,1,.14.86,2.14,2.14,0,0,1-.14.79,1.58,1.58,0,0,1-.4.57,1.46,1.46,0,0,1-.6.29,1.56,1.56,0,0,1-.74,0,2.16,2.16,0,0,1-.73-.36,2.67,2.67,0,0,1-.6-.61,3,3,0,0,1-.4-.78,2.54,2.54,0,0,1-.14-.86A1.94,1.94,0,0,1,82,49.7a1.58,1.58,0,0,1,.4-.57,1.3,1.3,0,0,1,.6-.29A1.52,1.52,0,0,1,83.73,48.87Zm0,3.4a.94.94,0,0,0,.44,0,.85.85,0,0,0,.37-.18,1,1,0,0,0,.24-.34,1.21,1.21,0,0,0,.09-.48,1.54,1.54,0,0,0-.09-.52,2,2,0,0,0-.24-.48,1.85,1.85,0,0,0-.37-.37,1.21,1.21,0,0,0-.44-.22,1,1,0,0,0-.45,0,.82.82,0,0,0-.36.18,1,1,0,0,0-.25.35,1.21,1.21,0,0,0-.09.48,1.58,1.58,0,0,0,.09.52,2.19,2.19,0,0,0,.25.48,1.81,1.81,0,0,0,.36.37A1.35,1.35,0,0,0,83.74,52.27Z"/><path class="c" d="M88.81,52.48a1.68,1.68,0,0,1,.16.39,1.84,1.84,0,0,1,0,.41,1.11,1.11,0,0,1-.11.46.92.92,0,0,1-.26.32.85.85,0,0,1-.39.16,1,1,0,0,1-.46,0,1.63,1.63,0,0,1-.62-.36,1.65,1.65,0,0,1-.41-.6l.61-.32a.65.65,0,0,0,.16.29.62.62,0,0,0,.28.17.35.35,0,0,0,.32,0,.29.29,0,0,0,.14-.27V53a0,0,0,0,1,0,0,0,0,0,0,0,0,0,.59.59,0,0,0-.18-.27L88,52.58h0l-.22-.18-.25-.19L87.31,52a1.75,1.75,0,0,1-.23-.24h0l0,0a1.82,1.82,0,0,1-.24-.43,1.31,1.31,0,0,1-.07-.47.88.88,0,0,1,.1-.43.76.76,0,0,1,.24-.29.83.83,0,0,1,.36-.15,1,1,0,0,1,.44,0,1.57,1.57,0,0,1,.55.31,1.52,1.52,0,0,1,.39.52l-.6.3a.46.46,0,0,0-.14-.19.45.45,0,0,0-.21-.12.38.38,0,0,0-.28,0,.22.22,0,0,0-.12.21.07.07,0,0,0,0,0,.36.36,0,0,0,.07.17.66.66,0,0,0,.14.15c.09.08.19.17.31.26l.35.29a1.59,1.59,0,0,1,.26.26l0,0A1.77,1.77,0,0,1,88.81,52.48Z"/><path class="c" d="M92,51.05a2.12,2.12,0,0,1,.74.36,3.21,3.21,0,0,1,.6.62,2.87,2.87,0,0,1,.4.78,2.55,2.55,0,0,1,.15.86,1.9,1.9,0,0,1-.15.78,1.58,1.58,0,0,1-.4.57,1.36,1.36,0,0,1-.6.3,1.56,1.56,0,0,1-.74,0,2.1,2.1,0,0,1-.61-.28,2.68,2.68,0,0,1-.54-.47v3.28l-.73-.19v-5h0a2.13,2.13,0,0,1,.14-.78,1.61,1.61,0,0,1,.41-.57A1.48,1.48,0,0,1,92,51.05Zm0,3.42a1,1,0,0,0,.45,0,.85.85,0,0,0,.37-.18A1.16,1.16,0,0,0,93.1,54a1.19,1.19,0,0,0,.09-.47A1.64,1.64,0,0,0,93.1,53a2.73,2.73,0,0,0-.25-.48,1.85,1.85,0,0,0-.37-.37,1.18,1.18,0,0,0-.45-.22.87.87,0,0,0-.45,0,.77.77,0,0,0-.36.18.9.9,0,0,0-.25.35,1.21,1.21,0,0,0-.09.48h0a1.58,1.58,0,0,0,.09.52,2.73,2.73,0,0,0,.25.48,1.85,1.85,0,0,0,.37.37A1.4,1.4,0,0,0,92,54.47Z"/><path class="c" d="M97.23,54.83l-1.43-.38a1.76,1.76,0,0,0,.15.44,2,2,0,0,0,.25.39,1.55,1.55,0,0,0,.33.3,1.7,1.7,0,0,0,.39.18.94.94,0,0,0,.47,0,.72.72,0,0,0,.38-.21l.14,0,.72.19a1.24,1.24,0,0,1-.1.2l-.13.18a1.29,1.29,0,0,1-.64.41,1.5,1.5,0,0,1-.84,0,2,2,0,0,1-.73-.35,2.89,2.89,0,0,1-.6-.61,3.2,3.2,0,0,1-.4-.78,2.54,2.54,0,0,1-.14-.86,2,2,0,0,1,.14-.79,1.58,1.58,0,0,1,.4-.57,1.4,1.4,0,0,1,.6-.29,1.52,1.52,0,0,1,.73,0,2.27,2.27,0,0,1,.84.44,3,3,0,0,1,.64.77,2.85,2.85,0,0,1,.34.84,2.6,2.6,0,0,1,.06.56,1.18,1.18,0,0,1,0,.27L98,55Zm-.31-1.65a.92.92,0,0,0-.62,0,.86.86,0,0,0-.41.43l1.65.43.42.12-.06-.15a.91.91,0,0,1-.07-.14,1.77,1.77,0,0,0-.4-.46A1.4,1.4,0,0,0,96.92,53.18Z"/><path class="c" d="M102.45,54.13a2.29,2.29,0,0,1,.42.55l-.42.26-.15.1a1.52,1.52,0,0,0-.32-.4,1.09,1.09,0,0,0-.42-.23.7.7,0,0,0-.35,0,.65.65,0,0,0-.29.14.77.77,0,0,0-.19.27.87.87,0,0,0-.07.37v2.38l-.73-.2V53.15l.73.2v.3a1.19,1.19,0,0,1,.42-.11,1.36,1.36,0,0,1,.48.05,1.75,1.75,0,0,1,.47.2A2,2,0,0,1,102.45,54.13Z"/><path class="c" d="M103.7,53.71v-.82l.73.19v.83Zm.73.63v4.22l-.73-.19V54.14Z"/><path class="c" d="M107.77,54.88l-.68-.18v4.57l-.73-.19V54.5l-.69-.18v-.83l.69.19V52.11l.73.19v1.57l.68.18Z"/><path class="c" d="M112.88,56.58,111.22,60l-.43.9-.88,1.83-.85-.23,1.33-2.75-1.49-4.22.83.22,1.1,3.1,1.2-2.49Z"/><path class="d" d="M28.56,40.56a12.88,12.88,0,0,1-7.69-.36c1.83.16,3-.31,3-1.07,0-.15,0-.6-.8-1.34l4.63-.55a1.35,1.35,0,0,0-.92,1.87A2,2,0,0,0,28.56,40.56Z"/><path class="d" d="M35.54,19.63a21.39,21.39,0,0,1,1.49,9c-.28-2.14-1-3.63-1.66-3.82-.13,0-.52-.1-1,.63l-1.57-5.62a1.94,1.94,0,0,0,1.88,1.53C35.35,21.28,35.74,20.52,35.54,19.63Z"/><path class="d" d="M15.28,6.43A12.88,12.88,0,0,1,23,6.79c-1.83-.16-3,.31-3,1.07,0,.15,0,.6.8,1.34l-4.63.55a1.35,1.35,0,0,0,.92-1.87A2,2,0,0,0,15.28,6.43Z"/><path class="d" d="M8.3,27.36a21.39,21.39,0,0,1-1.49-9c.28,2.14,1,3.63,1.66,3.82.13,0,.52.1,1-.63l1.57,5.62A1.94,1.94,0,0,0,9.17,25.6C8.49,25.71,8.1,26.47,8.3,27.36Z"/><path class="d" d="M36.25,32.83A12.21,12.21,0,0,1,31.86,39c1.1-1.4,1.43-2.79,1-3.46A1.47,1.47,0,0,0,31.54,35l2.16-4.35a2.09,2.09,0,0,0,.68,2.4A1.22,1.22,0,0,0,36.25,32.83Z"/><path class="d" d="M26.86,8.7a22.48,22.48,0,0,1,6.49,6.64c-1.5-1.62-2.82-2.35-3.3-1.95-.1.08-.35.36-.15,1.4l-4.39-3.58a1.22,1.22,0,0,0,2-.25A2.12,2.12,0,0,0,26.86,8.7Z"/><path class="d" d="M7.59,14.16A12.21,12.21,0,0,1,12,8c-1.1,1.4-1.43,2.79-1,3.46A1.45,1.45,0,0,0,12.3,12l-2.16,4.36a2.1,2.1,0,0,0-.68-2.41A1.22,1.22,0,0,0,7.59,14.16Z"/><path class="d" d="M17,38.29a22.48,22.48,0,0,1-6.49-6.64c1.5,1.63,2.82,2.35,3.3,2,.1-.08.35-.36.15-1.4l4.39,3.58a1.22,1.22,0,0,0-2,.25A2.12,2.12,0,0,0,17,38.29Z"/><path class="e" d="M21.92,13a12.15,12.15,0,0,1,6.58,4.81c3.64,5,3.64,11.67,0,14.79A7,7,0,0,1,21.92,34a12.18,12.18,0,0,1-6.58-4.81c-3.64-5-3.64-11.67,0-14.79A7,7,0,0,1,21.92,13m0-4.09a9.79,9.79,0,0,0-9.16,1.84C10.31,12.88,9,16.18,9,20.07a19.56,19.56,0,0,0,3.79,11.3,16.94,16.94,0,0,0,9.16,6.68,9.79,9.79,0,0,0,9.16-1.84c2.45-2.1,3.79-5.4,3.79-9.29a19.56,19.56,0,0,0-3.79-11.3,16.94,16.94,0,0,0-9.16-6.68Z"/><path class="f" d="M20.49,21.22c0,.26,0,.52,0,.79a7.86,7.86,0,0,1-.27,2.24,12.26,12.26,0,0,1-2-1.08Z"/><path class="f" d="M17.74,23.58a12.6,12.6,0,0,0,3.87,1.82l.43.1q.55.12,1.08.18L19.32,29l0,0-.21-.68A15.93,15.93,0,0,0,17,24.22Z"/><path class="f" d="M29.67,21.53a2.44,2.44,0,0,0-2.28.48l-1.77,1.52c-.35-.81-.66-1.64-.93-2.47a27.47,27.47,0,0,1-.77-2.79l.48-.41a3,3,0,0,0,1-2.23A12.53,12.53,0,0,1,28,18.31,13.7,13.7,0,0,1,29.67,21.53Z"/><path class="f" d="M23.42,18.7c.2.83.43,1.66.7,2.47a27.76,27.76,0,0,0,1.05,2.75L23.88,25A9,9,0,0,1,22,24.81a9.48,9.48,0,0,1-1.14-.33,8.78,8.78,0,0,0,.27-2.32,10.55,10.55,0,0,0-.13-1.4Z"/><path class="f" d="M15.89,28.68a13.39,13.39,0,0,1-1.78-3.38,2.43,2.43,0,0,0,2.21-.5l.24-.2a14.72,14.72,0,0,1,1.94,3.83c.12.36.23.73.32,1.1a3.28,3.28,0,0,0-.47,1.73A12.39,12.39,0,0,1,15.89,28.68Z"/><path class="d" d="M13.59,30.65C9,24.28,9,15.88,13.59,11.93s12.07-2,16.66,4.41,4.59,14.77,0,18.72S18.18,37,13.59,30.65ZM29.52,17c-4.19-5.81-11-7.62-15.2-4s-4.19,11.26,0,17.08,11,7.62,15.2,4S33.71,22.78,29.52,17Z"/><polygon class="g" points="20.65 40.25 20.63 40.1 20.86 40.13 20.88 40.27 20.65 40.25"/><polygon class="g" points="28.56 40.63 28.56 40.56 28.51 40.49 28.56 40.48 28.56 40.55 28.61 40.62 28.56 40.63"/></svg>