<svg xmlns="http://www.w3.org/2000/svg" viewBox="0 0 148.5 81.98"><defs><style>.a{fill:#a5c69e;stroke:#fff;stroke-miterlimit:10;opacity:0.75;}.b{fill:#333;}.c{fill:#166734;}.d{fill:#183319;}.e{fill:#be9333;}</style></defs><path class="a" d="M140,80.92c-.36-.52-.43-.58-1-.6-1.21,0-2.74-.08-4.11-.2-.6,0-1.17-.11-1.68-.19a9,9,0,0,1-4-1.49,27,27,0,0,0-2.58-1.83c.5.23,1,.46,1.49.67a5.65,5.65,0,0,1,0-.58c-2-1.13-4-2.4-6.06-3.56-.08-.13.09-.47-.05-.56a5.2,5.2,0,0,0-1.24-.45c-.4-.92,1.62-.47,2.54-.1s2.95,1.42,4.1,1.89c0-.17.08-.59,0-.74s-.66-.25-.88-.49c-.08-.07,0-.28,0-.37a23.68,23.68,0,0,0,6.1,1.91.57.57,0,0,0-.51-.36,39.52,39.52,0,0,0,6.61.21,14.85,14.85,0,0,0,1.72-.24c.51-.11-1.29-.73-2.33-.87a1.72,1.72,0,0,0-.43,0,41.93,41.93,0,0,1-4.75-.14c-.13,0-.1-.31-.14-.37a23.94,23.94,0,0,0,4.13.1l.22,0c.67-.12-1.44-.56-.83-.71s1.52,0,2.15-.23c-1,0-2.16.07-3.27.06a16.2,16.2,0,0,1-3-.25c-.69-.14-.74-.4-1.13-.92a11.42,11.42,0,0,1-5-3.15c1,.25,2,.44,3,.62-2.63-1-5.06-1.71-7.56-2.58a34.12,34.12,0,0,1-7.13-3.27v-14c1.18.23,2.37.4,3.52.56.33.09.66-.15.31-.55l1,.25c.67.17.32-.39,1-.22a49,49,0,0,1,8,1.7c1.33.37,2.37.69,3.06,1s.91.37,1,.28,0-.54-.71-.66c0-.15.11-.44-.09-.52a14.62,14.62,0,0,0-2.32-.77,6.39,6.39,0,0,1-2.27-1A3.71,3.71,0,0,0,125.06,47l1,.26v-.48l-4.39-1.6s0-.31,0-.47l-.67-.17c-.7-1.29,3-.19,4.71.1V44l-.68-.17v-.32c2,.54,3.72.93,5.78,1.56-.34-.11-1-.31-1.37-.4,0-.16,0-.32-.34-.41,1.39.37,3.09,1,4.62,1.43.41.05.23-.57-.91-1.19a27.47,27.47,0,0,0-3-1v-.32c.73.21,1.84.71,2.65.86.44,0-.71-.74-.29-.75a4.54,4.54,0,0,0,1.29.34c-1.31-.55-2.91-.88-4-1.33-.37-.26-.73-.52-.73-.83a7.42,7.42,0,0,1-4.12-2.18,5.82,5.82,0,0,0-2.23-.75c-5.78-2.24-11.87-3.43-17.35-5.81l-1.41-1a35.08,35.08,0,0,0-8.92-2,2.19,2.19,0,0,0-1.77.79L41.77,17V35.83a5.48,5.48,0,0,0-.52-.56,5.54,5.54,0,0,0,.37-.45c-.27-.24-.58-.76-.49-1s.38-.23.34-.49c-.07-.47-1.08-1-.79-1.48a4.14,4.14,0,0,0-.37.46,42.71,42.71,0,0,1-3.3-5c-3.18-5.52-7.63-10.17-12.09-14.6-.49-.49-1.17-.6-1.22.21-.35-.38-1-1.26-1.31-1.54-.78-.77-1.19-.34-1.89-.95C17.67,7.94,16,7.34,12.88,5.65A52.24,52.24,0,0,0,3.21,1.51,16.47,16.47,0,0,0,7.62,3.88c0,.38-.19.85.25,1.16s1.18.68,1.65,1,1.59,1,1.84,1.17c.49.33,2.16,1.45,2.05,1.57s-.54.37-.2.46c-.17,0-.32-.06-.49-.07s-.6.14-.9.17c.61.42.66.76,1,1.38a.88.88,0,0,0-.74.46,2.6,2.6,0,0,1,.32.35c0,2.08-1.26,1.09-2.6.63-.15.4-.3.79-.41,1.2l.28.2c-.06.22-.12.43-.17.65-.46-.3-.73-.54-1.23-.84l-.71-.43c0,.18-.24.53,0,.72-1.61-1-2.75-2.49-4.59-3-.55-.14.23,2.12,1,2.56s1.71,1.44,2.52,1.89a5.85,5.85,0,0,1-.27.56c-.7-.48-1.3-1.27-2.06-1.47-.44-.12.25,1.31-.24,1.2s-.76-.56-1.19-.49c.86.69,2.23,1.16,2.85,2.18.26.39-.17.88-.25,1.17,1.45,1.06,1.16,2.21,1.4,4A7.19,7.19,0,0,0,8.59,24.7h0c2.75,4.1,6.19,8.61,8.88,12.43A74.77,74.77,0,0,1,24.37,48.3c.09.74.22,1.53.32,2.3A46,46,0,0,0,32.13,61c1.42,1.5,3.54,1.24,4.77,1.17s1.66-.15,2.22-1.07c-.56-1.29-1.64-2.77-.92-3.88.18-.29.66.38.78.6.87-.59,2.54-1.54,3.77-.93,1.3,0,3.14,1.07,4.32.87,1-.16,1.46-1.16,1.64-2.45.84.27,1.7.6,2.52.81a11.09,11.09,0,0,0,2.71,1.11c1.19.43,2.86,1.18,4.25,1.56a21,21,0,0,1,3.14,1c.32.15.73.19.86,0s-.06.26,0,.27a25.85,25.85,0,0,1,3.28,1.11l0,.39c1.66.44,3.3,1.21,4.93,1.8.08.06-.13.33,0,.36a3.72,3.72,0,0,1,1.51.76c.24.31-.17.31.07.45.68.4,1.77.34,2.35,1.15,0-.12,0-.25,0-.38,2.68,1.06,5.37,2.25,8,3.33a49.8,49.8,0,0,0,10.43,3.18q1,.18,2.1.33c3.06.42,6.31.69,9.24,1.3.8.17,2,.47,1.21-.47,1.13.28,3.18.91,4.17,1.16,2,.49,3.9.6,5.58,1a61.11,61.11,0,0,1,10,2.79,44.87,44.87,0,0,0,5.51,2.23h0c.34.08.7.17,1.1.25,5.53,1.08,11.34.62,16.76.37C145.65,81,142.76,80.81,140,80.92Z"/><path d="M44.81,23.85l10,2.64V29l-3.86-1V43l-2.27-.59V27.34l-3.86-1Z"/><path d="M65.8,35.23a7.68,7.68,0,0,1,1.6,2.37,7,7,0,0,1,.6,2.82v7.2L65.8,47v-7.2a3.55,3.55,0,0,0-.22-1.23A4.48,4.48,0,0,0,65,37.47a4,4,0,0,0-.87-.88,3,3,0,0,0-1-.52A2.26,2.26,0,0,0,62,36a1.93,1.93,0,0,0-.87.43,2.32,2.32,0,0,0-.57.82,2.67,2.67,0,0,0-.22,1.12v7.2L58.17,45V23.78l2.2.58v9.43a3.56,3.56,0,0,1,1.27-.33,4.28,4.28,0,0,1,1.45.14,5.65,5.65,0,0,1,1.44.62A6.79,6.79,0,0,1,65.8,35.23Z"/><path d="M71.71,34.58V32.11l2.2.58v2.47Zm2.2,1.88V49.13l-2.2-.58V35.88Z"/><path d="M85.19,40.38A7.9,7.9,0,0,1,86.43,42l-1.24.78-.47.31a4.14,4.14,0,0,0-1-1.21,3.2,3.2,0,0,0-1.27-.7,2.21,2.21,0,0,0-1,0,1.84,1.84,0,0,0-.85.42,2.11,2.11,0,0,0-.58.81,2.83,2.83,0,0,0-.21,1.12v7.12l-2.2-.58V37.46l2.2.58V39a3.46,3.46,0,0,1,1.26-.34,4.2,4.2,0,0,1,1.43.13,5.44,5.44,0,0,1,1.43.62A7.07,7.07,0,0,1,85.19,40.38Z"/><path d="M88.92,39.13V36.66l2.2.58v2.47ZM91.12,41V53.68l-2.2-.58V40.43Z"/><path d="M100.46,43.48a6.2,6.2,0,0,1,2.19,1.07,8.23,8.23,0,0,1,1.8,1.83,9,9,0,0,1,1.2,2.33,7.7,7.7,0,0,1,.44,2.59,5.88,5.88,0,0,1-.44,2.36,4.48,4.48,0,0,1-1.2,1.69,3.92,3.92,0,0,1-1.8.89,4.83,4.83,0,0,1-2.19-.09,6.36,6.36,0,0,1-2.2-1.08,7.82,7.82,0,0,1-1.8-1.83,9.38,9.38,0,0,1-1.21-2.33,8,8,0,0,1-.43-2.59A6.09,6.09,0,0,1,95.25,46a4.61,4.61,0,0,1,1.21-1.69,3.9,3.9,0,0,1,1.8-.88A4.61,4.61,0,0,1,100.46,43.48Zm0,10.2a2.87,2.87,0,0,0,1.33,0,2.44,2.44,0,0,0,1.09-.54,2.85,2.85,0,0,0,.74-1,3.83,3.83,0,0,0,.26-1.43,5,5,0,0,0-.26-1.57,5.54,5.54,0,0,0-.74-1.43,5,5,0,0,0-1.09-1.12,3.91,3.91,0,0,0-1.33-.65,2.92,2.92,0,0,0-1.34-.05,2.44,2.44,0,0,0-1.09.54,2.9,2.9,0,0,0-.75,1A3.56,3.56,0,0,0,97,48.9a4.81,4.81,0,0,0,.27,1.58A6.09,6.09,0,0,0,98,51.91,5.27,5.27,0,0,0,99.13,53,4.06,4.06,0,0,0,100.47,53.68Z"/><path d="M97.73,38.07a4.35,4.35,0,0,1-.13,1.22,1.86,1.86,0,0,1-.49.79,2.15,2.15,0,0,1-.91.52,3.82,3.82,0,0,1-1.2.12l-.21-.58a3.19,3.19,0,0,0,.93-.07,1.82,1.82,0,0,0,.82-.41A1.43,1.43,0,0,0,97,39a3.7,3.7,0,0,0,.12-1.07L94,37.08v-.57l3.17.84V35.76c-.62-.08-1.44-.23-2.45-.46l-.09-.56a21.36,21.36,0,0,0,2.69.47,9.15,9.15,0,0,0,2.13,0l.35.6a9.27,9.27,0,0,1-2,0V37.5l2.75.73v.57Z"/><path d="M102.66,40.19l-.61-.16v-4l.61.16Zm4,.11a3.05,3.05,0,0,1-.38,1.56,2,2,0,0,1-1.28.89,5.34,5.34,0,0,1-2.32,0l-.13-.6a3.92,3.92,0,0,0,2.67-.21A2.09,2.09,0,0,0,106.1,40V37l.6.16Z"/><path d="M112.57,41.1a6,6,0,0,1-1.79,1.78,6.41,6.41,0,0,1-2.32,1l-.26-.56a7,7,0,0,0,2.3-1.06,5.32,5.32,0,0,0,1.63-1.72l-3.51-.92V39l3.93,1V38.62l.63.17v1.45l1.55.41v.56l-1.55-.41v4.71l-.61-.17Z"/><path d="M48.39,45.41l3,.8V47l-2.28-.6v2l1.94.51v.8l-1.94-.51v2.24l-.76-.21Z"/><path d="M54.43,48.65a2.16,2.16,0,0,1,.73.36,2.49,2.49,0,0,1,.6.61,2.69,2.69,0,0,1,.4.77,2.57,2.57,0,0,1,.15.87,1.94,1.94,0,0,1-.15.78,1.47,1.47,0,0,1-.4.57,1.4,1.4,0,0,1-.6.29,1.52,1.52,0,0,1-.73,0,2.08,2.08,0,0,1-.73-.36,2.67,2.67,0,0,1-.6-.61,2.62,2.62,0,0,1-.4-.78,2.51,2.51,0,0,1-.15-.86,1.94,1.94,0,0,1,.15-.78,1.47,1.47,0,0,1,.4-.57,1.3,1.3,0,0,1,.6-.29A1.52,1.52,0,0,1,54.43,48.65Zm0,3.4a1,1,0,0,0,.45,0,.77.77,0,0,0,.36-.18.9.9,0,0,0,.25-.35,1.21,1.21,0,0,0,.09-.48,1.58,1.58,0,0,0-.09-.52,1.83,1.83,0,0,0-.25-.48,1.58,1.58,0,0,0-.36-.37,1.35,1.35,0,0,0-.45-.22,1.1,1.1,0,0,0-.44,0,.85.85,0,0,0-.37.18,1,1,0,0,0-.24.35,1.06,1.06,0,0,0-.1.48,1.37,1.37,0,0,0,.1.52,2.16,2.16,0,0,0,.24.48,1.85,1.85,0,0,0,.37.37A1.4,1.4,0,0,0,54.43,52.05Z"/><path d="M60,50.42a2.52,2.52,0,0,1,.41.56l-.41.26-.16.1a1.35,1.35,0,0,0-.31-.4,1,1,0,0,0-.43-.24.79.79,0,0,0-.34,0,.71.71,0,0,0-.29.14.77.77,0,0,0-.19.27.92.92,0,0,0-.07.38v2.37l-.74-.19V49.45l.74.19V50a1.37,1.37,0,0,1,.42-.12,1.54,1.54,0,0,1,.47.05,1.46,1.46,0,0,1,.48.21A2.18,2.18,0,0,1,60,50.42Z"/><path d="M63.28,53.38,61.85,53a1.41,1.41,0,0,0,.14.44,1.87,1.87,0,0,0,.59.69,1,1,0,0,0,.39.18.84.84,0,0,0,.47,0,.76.76,0,0,0,.38-.21l.13,0,.73.19a1.24,1.24,0,0,1-.1.2l-.13.18a1.41,1.41,0,0,1-.65.42,1.46,1.46,0,0,1-.83,0,2.16,2.16,0,0,1-.73-.36,2.67,2.67,0,0,1-.6-.61,3.2,3.2,0,0,1-.4-.78,2.55,2.55,0,0,1-.15-.86,2,2,0,0,1,.15-.79,1.46,1.46,0,0,1,.4-.56,1.31,1.31,0,0,1,.6-.3,1.52,1.52,0,0,1,.73,0,2.15,2.15,0,0,1,.83.44,3,3,0,0,1,.65.77,2.85,2.85,0,0,1,.34.84,2.6,2.6,0,0,1,.06.56,2.13,2.13,0,0,1,0,.27l-.74-.2ZM63,51.74a.84.84,0,0,0-1,.46l1.66.44.42.11-.07-.15-.06-.13a1.84,1.84,0,0,0-.4-.47A1.24,1.24,0,0,0,63,51.74Z"/><path d="M68.05,54.52a2.26,2.26,0,0,1,.15.39,1.13,1.13,0,0,1,0,.41,1.11,1.11,0,0,1-.1.46.94.94,0,0,1-.27.32.81.81,0,0,1-.38.16,1,1,0,0,1-.46,0,1.56,1.56,0,0,1-.62-.36,1.81,1.81,0,0,1-.42-.6l.62-.32a.62.62,0,0,0,.15.29.66.66,0,0,0,.29.17.35.35,0,0,0,.32,0,.31.31,0,0,0,.14-.27s0-.07,0-.08V55s0,0,0,0a.61.61,0,0,0-.19-.27s0,0-.06-.05h0L67,54.43l-.25-.19L66.55,54a1.31,1.31,0,0,1-.23-.24h0l0,0a1.82,1.82,0,0,1-.24-.43,1.34,1.34,0,0,1-.08-.48,1.18,1.18,0,0,1,.1-.42.79.79,0,0,1,.25-.29.83.83,0,0,1,.36-.15,1,1,0,0,1,.44,0,1.5,1.5,0,0,1,.55.31,1.92,1.92,0,0,1,.39.51l-.6.31a.49.49,0,0,0-.14-.19.43.43,0,0,0-.22-.12.38.38,0,0,0-.28,0,.21.21,0,0,0-.11.2v.06a.51.51,0,0,0,.07.17.71.71,0,0,0,.15.15c.09.08.19.17.31.26l.35.29a1.56,1.56,0,0,1,.25.26l0,0A1.77,1.77,0,0,1,68.05,54.52Z"/><path d="M71.49,52.81l-.68-.18v4.58l-.73-.2V52.44l-.7-.18v-.83l.7.18V50.05l.73.19v1.57l.68.18Z"/><path d="M78.05,54.89a2.12,2.12,0,0,1,.74.36,2.9,2.9,0,0,1,.6.61,3.2,3.2,0,0,1,.4.78,2.82,2.82,0,0,1,.14.86,2.18,2.18,0,0,1-.14.79,1.54,1.54,0,0,1-.4.56,1.36,1.36,0,0,1-.6.3,1.71,1.71,0,0,1-.74,0,2.16,2.16,0,0,1-.73-.36,2.67,2.67,0,0,1-.6-.61,3.2,3.2,0,0,1-.4-.78,2.54,2.54,0,0,1-.14-.86,2,2,0,0,1,.14-.79,1.46,1.46,0,0,1,.4-.56,1.31,1.31,0,0,1,.6-.3A1.52,1.52,0,0,1,78.05,54.89Zm0,3.4a.94.94,0,0,0,.44,0,.85.85,0,0,0,.37-.18.91.91,0,0,0,.24-.35,1.19,1.19,0,0,0,.09-.47,1.64,1.64,0,0,0-.09-.53,1.77,1.77,0,0,0-.61-.85,1.37,1.37,0,0,0-.44-.21,1,1,0,0,0-.45,0,.82.82,0,0,0-.36.18.93.93,0,0,0-.25.35,1.19,1.19,0,0,0-.09.47,1.64,1.64,0,0,0,.09.53,1.92,1.92,0,0,0,.25.47,1.86,1.86,0,0,0,.36.38A1.32,1.32,0,0,0,78.06,58.29Z"/><path d="M82.06,56.37l.89.24v.82l-.89-.23v3L81.32,60V57l-.26-.07v-.82l.26.07V54.64a1.58,1.58,0,0,1,.23-.74,1.09,1.09,0,0,1,.51-.46h0a1.09,1.09,0,0,1,.42-.12,1.28,1.28,0,0,1,.47.05v.82a.83.83,0,0,0-.35,0,.57.57,0,0,0-.28.14.66.66,0,0,0-.19.27.87.87,0,0,0-.07.37Z"/><path d="M89.7,60.24a2.14,2.14,0,0,1,.16.39,1.92,1.92,0,0,1,0,.41,1.08,1.08,0,0,1-.11.46.92.92,0,0,1-.26.32.76.76,0,0,1-.39.16,1,1,0,0,1-.46,0,1.63,1.63,0,0,1-.62-.36,1.65,1.65,0,0,1-.41-.6l.61-.32a.6.6,0,0,0,.16.29.49.49,0,0,0,.28.17.35.35,0,0,0,.32,0,.27.27,0,0,0,.14-.27v-.08h0v0a0,0,0,0,0,0,0,.67.67,0,0,0-.18-.28l-.07,0h0l-.22-.18-.25-.2-.24-.21a1.75,1.75,0,0,1-.23-.24h0l0,0a1.88,1.88,0,0,1-.24-.44,1.25,1.25,0,0,1-.07-.47.82.82,0,0,1,.1-.42.8.8,0,0,1,.24-.3.82.82,0,0,1,.36-.14,1,1,0,0,1,.44,0,1.45,1.45,0,0,1,.55.32,1.39,1.39,0,0,1,.39.51l-.6.3a.39.39,0,0,0-.14-.18.57.57,0,0,0-.21-.13.33.33,0,0,0-.28,0,.21.21,0,0,0-.12.2.11.11,0,0,0,0,.06.41.41,0,0,0,.07.17.62.62,0,0,0,.14.14c.09.08.19.17.31.26s.23.19.35.3a1.5,1.5,0,0,1,.26.25l0,0C89.59,60.07,89.64,60.15,89.7,60.24Z"/><path d="M93.22,61.29l-1.43-.37a1.91,1.91,0,0,0,.15.44,2,2,0,0,0,.25.39,1.52,1.52,0,0,0,.73.48.9.9,0,0,0,.46,0,.83.83,0,0,0,.38-.21l.14,0,.73.2a1.28,1.28,0,0,1-.11.2,1.09,1.09,0,0,1-.13.17,1.33,1.33,0,0,1-.64.42,1.46,1.46,0,0,1-.83,0,2.39,2.39,0,0,1-.74-.35,3.11,3.11,0,0,1-.59-.61,3.23,3.23,0,0,1-.41-.78,2.88,2.88,0,0,1-.14-.87,2.13,2.13,0,0,1,.14-.78,1.61,1.61,0,0,1,.41-.57,1.42,1.42,0,0,1,.59-.29,1.56,1.56,0,0,1,.74,0,2.09,2.09,0,0,1,.83.44,3,3,0,0,1,1,1.61,2.06,2.06,0,0,1,0,.82L94,61.51Zm-.3-1.64a.9.9,0,0,0-.63,0,.88.88,0,0,0-.41.42l1.66.44.42.11a.91.91,0,0,1-.07-.14.91.91,0,0,0-.07-.14,1.77,1.77,0,0,0-.4-.46A1.29,1.29,0,0,0,92.92,59.65Z"/><path d="M98.45,60.6a2.25,2.25,0,0,1,.41.55l-.41.26-.16.1a1.23,1.23,0,0,0-.32-.4,1,1,0,0,0-.42-.23.6.6,0,0,0-.35,0,.57.57,0,0,0-.28.14.66.66,0,0,0-.19.27.87.87,0,0,0-.08.37V64l-.73-.19V59.62l.73.2v.3a1.19,1.19,0,0,1,.42-.11,1.32,1.32,0,0,1,.48,0,2.06,2.06,0,0,1,.48.21A2.24,2.24,0,0,1,98.45,60.6Z"/><path d="M101.76,63.55l-1.43-.38a1.73,1.73,0,0,0,.74,1.14,1.38,1.38,0,0,0,.39.18,1,1,0,0,0,.46,0,.92.92,0,0,0,.39-.21l.13,0,.73.19a1,1,0,0,1-.11.2.83.83,0,0,1-.13.18,1.33,1.33,0,0,1-.64.42,1.46,1.46,0,0,1-.83,0,2.08,2.08,0,0,1-.73-.36,2.67,2.67,0,0,1-.6-.61,2.62,2.62,0,0,1-.4-.78,2.51,2.51,0,0,1-.15-.86,1.94,1.94,0,0,1,.15-.78,1.47,1.47,0,0,1,.4-.57,1.3,1.3,0,0,1,.6-.29,1.52,1.52,0,0,1,.73,0,2,2,0,0,1,.83.44,2.76,2.76,0,0,1,.64.76,2.8,2.8,0,0,1,.34.84,2.17,2.17,0,0,1,.07.57,2.11,2.11,0,0,1,0,.26l-.74-.19Zm-.3-1.64a.87.87,0,0,0-.62,0,.82.82,0,0,0-.42.42l1.66.44.42.11c0-.05,0-.1-.07-.14a.61.61,0,0,0-.07-.14,1.81,1.81,0,0,0-.4-.47A1.41,1.41,0,0,0,101.46,61.91Z"/><path d="M107,62.83a2.46,2.46,0,0,1,.54.8,2.31,2.31,0,0,1,.19.93V67l-.73-.19V64.37a1.14,1.14,0,0,0-.07-.41,1.25,1.25,0,0,0-.2-.38,1.18,1.18,0,0,0-.29-.3,1,1,0,0,0-.35-.17.7.7,0,0,0-.35,0,.62.62,0,0,0-.29.15.77.77,0,0,0-.19.27,1,1,0,0,0-.07.38V66.3l-.74-.2V61.85l.74.19v.31a1.18,1.18,0,0,1,.43-.11,1.34,1.34,0,0,1,.48,0,2.5,2.5,0,0,1,.48.21A2.24,2.24,0,0,1,107,62.83Z"/><path d="M109,62.64v-.83l.73.2v.82Zm.73.62v4.23l-.73-.2V63.07Z"/><path d="M113.06,63.8l-.68-.18V68.2l-.73-.2V63.43l-.7-.19v-.82l.7.18V61l.73.19V62.8l.68.18Z"/><path d="M118.16,65.51l-1.65,3.41-.43.9-.88,1.83-.85-.22,1.33-2.75-1.49-4.22.83.22,1.09,3.1,1.21-2.49Z"/><polygon class="b" points="40.28 53.32 20.8 26.27 22.52 24.79 42.01 51.84 40.28 53.32"/><polygon class="c" points="23.99 24.13 22.9 27.25 21.93 25.9 23.99 24.13"/><polygon class="d" points="22.9 27.25 19.87 27.67 21.93 25.9 22.9 27.25"/><path class="c" d="M19.87,27.67l2.06-1.77L12,12.1Zm0-2.36a.42.42,0,0,1-.6-.16.5.5,0,0,1,0-.67c.16-.15.43-.07.6.16A.52.52,0,0,1,19.86,25.31Zm-1.59-2.87c-.17.14-.43.07-.6-.16a.53.53,0,0,1,0-.68c.17-.14.43-.07.6.16A.51.51,0,0,1,18.27,22.44Z"/><path class="d" d="M12,12.1l9.94,13.8L24,24.13Zm7.11,9a.54.54,0,0,1,0-.68.42.42,0,0,1,.6.16.5.5,0,0,1,0,.67C19.54,21.35,19.27,21.28,19.1,21.05Zm2.79,2.51a.43.43,0,0,1-.6-.15.51.51,0,0,1,0-.68c.16-.14.43-.07.6.16A.52.52,0,0,1,21.89,23.56Z"/><polygon class="e" points="32.72 44.65 36.08 41.77 36.63 42.54 35.81 45.17 33.27 45.42 32.72 44.65"/><path class="e" d="M31.85,39.75a10.64,10.64,0,0,1,1.91-1.31l.13,2a8,8,0,0,0-1,.75A7.5,7.5,0,0,0,32,42l-1.74-.61A11.56,11.56,0,0,1,31.85,39.75Z"/><polygon class="e" points="26.97 31.77 27.77 34.72 29.41 33.31 30.4 34.68 27.75 36.96 25.77 34.2 25.46 33.06 25.14 33.34 24.15 31.96 26.8 29.69 27.79 31.06 26.97 31.77"/><path class="e" d="M22.64,26.89l.62.86A8.27,8.27,0,0,0,21.9,31a8.18,8.18,0,0,0,.32,4.2l-1-.38a12,12,0,0,1-.2-2.12,8.57,8.57,0,0,1,.73-3.49l-.15-.12a8.79,8.79,0,0,0-.75,3.56,11.65,11.65,0,0,0,.2,2.1L19.19,34a8.84,8.84,0,0,1,.33-2.45,6.78,6.78,0,0,1,1.62-2.89L21,28.51a7,7,0,0,0-1.65,2.94A9.54,9.54,0,0,0,19,33.94l-.66-.25a7.58,7.58,0,0,1,1.19-4.26A6.63,6.63,0,0,1,22.64,26.89Z"/><path class="e" d="M24.46,25.54l.11.17a5.76,5.76,0,0,1,2.95-1,6.79,6.79,0,0,1,2.26.22L30,27a8.31,8.31,0,0,0-1.82-.7,6.92,6.92,0,0,0-3.35-.05l.07.19a6.64,6.64,0,0,1,3.28.05,8.71,8.71,0,0,1,1.84.71c0,.38.06.76.1,1.15a6.44,6.44,0,0,0-6.84-.64l-.62-.86a6.84,6.84,0,0,1,3-2.68,5.91,5.91,0,0,1,4.06-.27l.07.77a7.23,7.23,0,0,0-2.29-.23A5.9,5.9,0,0,0,24.46,25.54Z"/><ellipse class="e" cx="22.42" cy="26.59" rx="1.4" ry="1.84" transform="matrix(0.88, -0.48, 0.48, 0.88, -10.06, 14.15)"/><polygon class="e" points="41.38 50.2 41.62 50.53 41.43 50.69 42.26 51.84 40.23 53.59 39.4 52.44 39.22 52.6 38.98 52.27 41.38 50.2"/></svg>