<?xml version="1.0" encoding="utf-8"?>
<!-- Generator: Adobe Illustrator 25.0.1, SVG Export Plug-In . SVG Version: 6.00 Build 0)  -->
<svg version="1.1" id="Layer_1" xmlns="http://www.w3.org/2000/svg" xmlns:xlink="http://www.w3.org/1999/xlink" x="0px" y="0px"
	 viewBox="0 0 708.7 264.9" style="enable-background:new 0 0 708.7 264.9;" xml:space="preserve">
<g>
	<path d="M334.7,47.4c-0.9-3.4-6.5-5.8-14-7.1V10.7c0-1.7-0.7-3.2-1.8-4.4c-0.2-0.2-0.3-0.3-0.5-0.5c0.6-0.6,0.9-1.5,0.9-2.3
		c-0.1-1.9-1.7-3.4-3.7-3.3c-1.8,0.1-3.2,1.5-3.3,3.3c0,0.5,0.1,1,0.3,1.5c-1.1,0.6-1.8,1.8-1.8,3.1v9.5h-6.6v-7.3h-4.8l-2.5,3.1
		l-2,25.8c-14.1,0.8-26.9,4-28.2,9.1c0,0,0,0.1,0,0.2c-0.1,0.3-0.1,0.6-0.1,0.9c0,2.5,2.6,5.5,7.2,8.9H262c0-3.5,0-6.3,0-7.9
		c0-0.4,0-0.8,0-1.1s0-0.3,0-0.3c0-0.2,0-0.3-0.1-0.5c0-0.1-0.4-0.9-1.1-1c-0.6,0-1.1,0.3-1.4,0.8c-0.1,0.1-0.1,0.2-0.2,0.4
		c-0.1,0.4-0.2,0.8-0.3,1.2c0,0.3-0.1,0.7-0.2,1.1c-0.4,2.5-0.9,6.2-1,7.3h-0.5v3.5c0.9,1.5,2.3,2.7,4,3.2c0.9,0.3,1.8,0.3,2.7,0.2
		v1.6h3.2l1.6,3h18l3.7-1.8c0.4,0.2,0.8,0.4,1.2,0.6h21.4C326.3,60.6,336.1,52.8,334.7,47.4z M314.4,3.4c0,0,0-0.1,0-0.1
		c0-0.1,0.1-0.2,0.1-0.3c0-0.1,0.1-0.2,0.1-0.3l0.1-0.2l0.2-0.2c0.6-0.4,1.5-0.3,1.9,0.4c0.2,0.2,0.2,0.5,0.2,0.8
		c0,0.6-0.3,1.1-0.9,1.3c-0.5-0.1-0.9-0.2-1.4-0.3l0,0c-0.1-0.1-0.1-0.1-0.2-0.2c-0.1-0.1-0.2-0.3-0.2-0.5c0,0,0-0.1,0-0.2V3.4z"/>
	<path d="M277.8,237.6v7.3c-1.6,3.5-3.2,7.1-4.8,10.6l-3.2,9.4h-10.1v-2.3l-0.4-0.7l-0.5-0.9l-1.1-1.9c-0.5-0.1-1.1-0.2-1.6-0.4
		c-0.4-0.1-0.7-0.2-1.1-0.4c-0.7-0.3-1.5-0.7-2.1-1.1c-1-0.7-2-1.5-2.8-2.4l-8-0.3l-0.6-1.9l-5.4-6.7v4.8c0,2.5-2,4.5-4.5,4.5h0
		c-0.3,0-0.6-0.3-0.6-0.6c0,0,0,0,0,0v-6.4c-1.4,2.5-4.5,3.3-7,2c-2.5-1.4-3.3-4.5-2-7c0.2-0.4,0.5-0.8,0.9-1.1
		c-0.1-0.9-0.5-1.7-0.9-2.5c-0.3-0.4-0.6-0.9-1-1.2c-1.3-0.4-2.7-0.6-4.1-0.4c-0.3,0-0.6-0.2-0.7-0.5c0-0.1,0-0.2-0.1-0.3
		c0-0.3,0.1-0.5,0.4-0.6c0.6-0.1,1.2-0.2,1.9-0.3c0.4-0.1,0.9-0.1,1.3-0.1c0-0.1,0-0.2-0.1-0.3c0-0.6,0.5-1.2,1.1-1.3l-0.4-0.6
		l-3.4-0.4h-6.8c-1.6,0-2.9-1.3-2.9-2.9v-1.8c0-2.9,2.3-5.2,5.2-5.2h0h0.5v-1.9c-0.2,0-0.3-0.2-0.3-0.4v-1c0-0.2,0.2-0.4,0.4-0.4
		c0,0,0,0,0,0h2.9c0.2,0,0.4,0.2,0.4,0.4v1c0,0.2-0.1,0.4-0.3,0.4v1.9h4.8c1.5,0,2.8,0.7,3.6,2h1.4v-10.1l3.8-2.7V210l1.1-1.1
		l1.5,1.5v3.2l1.3,1.3v-1.3h1.3v3l1.8-0.2v4.4l0.5,0.5v5.9l5.8,6.6V229h3l1.7,2.2l0.1,0.1c0.5-0.2,1.1-0.3,1.7-0.3
		c0.5,0,1,0.1,1.5,0.2v-2l0.9-1.2v-3h1.2v1.3h1.3v-1.3h1.2v2.9l1.5,1.5l0.7-2.2V225l1.2-0.8v9.3l0.5,0.2l2-1.2h4.1v1.3h1.8v3h10.4
		C277.5,236.9,277.8,237.2,277.8,237.6z"/>
	<path d="M195.1,207.6h-0.9v-0.6c0.6-0.2,0.8-0.9,0.6-1.5c-0.2-0.6-0.9-0.8-1.5-0.6c-0.6,0.2-0.8,0.9-0.6,1.5
		c0.1,0.3,0.3,0.5,0.6,0.6v0.6h-3.2V204c0.6-0.2,0.9-0.9,0.7-1.5c-0.2-0.5-0.6-0.8-1.1-0.7c-0.6,0-1.2,0.5-1.2,1.2c0,0,0,0,0,0
		c0,0.5,0.3,0.9,0.7,1.1v3.7h-1.3c-0.6,0-1,0.4-1,1v2.6c0,0.6,0.4,1,1,1h1.3c0.1,0.1,0.3,0.3,0.4,0.4c0.2,0.2,0.4,0.3,0.7,0.4
		l2.4,0.1v-0.9c1.9,0,3.4-1.5,3.4-3.4v-0.1C196.1,208.1,195.7,207.7,195.1,207.6C195.1,207.6,195.1,207.6,195.1,207.6z"/>
	<rect x="1.6" y="93.2" transform="matrix(0.9996 -2.998651e-02 2.998651e-02 0.9996 -2.8124 0.9729)" width="59" height="2"/>
	<path d="M272.1,127.3l-24-7.4c2.3-2.4,2.3-6.2-0.1-8.5s-6.2-2.3-8.5,0.1c-0.4,0.4-0.7,0.9-1,1.4c-0.6-0.6-1.4-1-2.2-1.2
		c1.5-1.3,1.6-3.6,0.2-5.1c-0.3-0.4-0.8-0.7-1.2-0.9c0.2-0.5,0.2-1,0.2-1.6c0-3.1-2.4-5.6-5.5-5.6h-0.1c-0.6-3-3.2-5.1-6.3-5.1
		c-0.4,0-0.8,0-1.1,0.1c-0.5-1.3-1.8-2.1-3.1-2.1c-0.5,0-1,0.1-1.5,0.4l0,0v-4.9c0-1.3-1.1-2.3-2.4-2.3l0,0h-2.2V66.1
		c0-3.5-2.9-6.4-6.4-6.4c-0.1,0-0.3,0-0.4,0c-3.4,0.3-6,3.1-5.9,6.5v4.2h-4.6v1.8l-2.1-0.6l-3.7-1.1V57.4l-2.1-1.3l-2.6,1.5V61
		l-1.6,0.8V31.6c0-1.3-1.1-2.4-2.4-2.4l0,0h-1c-1.3,0-2.4,1-2.4,2.3c0,0,0,0,0,0.1V63h-3.6V42.3c0-1.7-0.5-3.3-1.6-4.7
		c-3-3.7-6.9-1.6-6.9,1.4V67l-0.1,0.1V70l-1.4,0.8V51c0-1.9-1.5-3.4-3.4-3.4c-0.1,0-0.2,0-0.3,0c-1.8,0.2-3.1,1.8-3.1,3.6v23.3
		l-1.4,0.7v-6.9h-4.6l-1.9,1.3V45c0-2.1-1.5-3.8-3.5-4.1c-2.2-0.2-4.1,1.4-4.3,3.5c0,0.1,0,0.2,0,0.4v31.8l-6.7,4.4h-5v6.8l-8.6,4.7
		v9.4l-13.8,7.2v4.2l-0.5,0.1V87.5l-1.7-1.3l-1.5,3.5l-1.2,24.6c-1.8,0.3-3.6,0.7-5.4,1c-9.3,1.6-18.7,2.4-28.2,2.6v-3.7
		c0-2.1-1.7-3.8-3.8-3.8h-0.5V89.2h-1.4v8.2h-1.7v-8.2h-1.4v28.7c-1.2,0-2.3-0.1-3.5-0.1v-4.2l0,0c-0.1-1.5-0.6-3-1.4-4.3
		c-0.6-1-1.4-1.9-2.4-2.7h-43c-0.5,0.5-1,1.1-1.4,1.7c-1,1.7-1.5,3.7-1.3,5.8v0.6H4.3V87.4H0v40.8h4.3v-1h2.9v2.2l10.3-0.1
		l-4.4,10.4c7.2,3.5,14.9,5.9,22.9,7c11.7,1.7,15.7-0.6,24,0c21.7,1.6,24.2,19.2,41.1,21.1c1.9,0.2,3.8,0.2,5.7,0
		c0.4,0.5,0.7,1.1,0.9,1.8c0.3,0.9,0.5,1.9,0.4,2.9l-1.9,2.4c-0.2-0.1-0.5-0.1-0.7-0.1c-1.5,0-2.7,1.2-2.7,2.7
		c0,0.4,0.1,0.9,0.3,1.3c-3.2,4.1-5.4,7-5.8,7.6c-0.3,0.4-0.4,0.9-0.5,1.4c-0.1,1.7,1.6,3,2.2,3.4c1.2,1,2.7,1.5,4.3,1.4
		c0.5-0.1,1-0.3,1.5-0.6c0.5-0.3,2.4-1.6,5-3.5c0.4,0.2,0.7,0.2,1.1,0.2c0.3,0,0.5,0,0.8-0.1c4.1,7.5,10.8,13.4,18.8,16.5
		c4.1,1.5,8.4,2.2,12.7,2.2c1.7,0,3.5-0.1,5.2-0.4c0.3,0.3,0.7,0.6,1.1,0.7c1,7.7,1.7,12.4,1.9,13.3c0.2,0.9,0.6,1.6,1.2,2.3
		c0.8,0.9,1.8,1.4,3,1.5c0.9,0.1,1.9-0.1,2.7-0.6c0.8-0.6,1.5-1.5,1.9-2.4c0.4-0.9,1.5-5.6,3.2-13.2c1.7,0,3.1-1.4,3-3.2
		c0-1.1-0.7-2.2-1.7-2.7c0.3-1.4,0.6-2.9,1-4.4c0.8-1.3,1.7-2.5,2.6-3.7c1.1-1.3,2.3-2.5,3.6-3.6c0.7-2.7,1.3-5.3,2-8
		c1.9,0.2,3.7-0.1,5.4-0.9c0.9-0.4,1.8-0.9,2.6-1.5l0.1,0.1c16.1,9.1,33.9,4.6,38.2,3.4c23.4-6.8,33.2-27.3,34.6-30.4l14.1-3.9
		c1.8-0.5,3.1-2,3.3-3.9l1.9-15.6C274.3,129,273.4,127.7,272.1,127.3z M147.2,204.7c0,0.1,0,0.3,0,0.4c-5.5,0.7-11,0-16.1-1.9
		c-7.6-3-14-8.6-17.9-15.9c0.2-0.4,0.4-0.9,0.4-1.3c0-0.1,0-0.1,0-0.2l8.4-6c0.8-0.1,1.6-0.1,2.4,0.1c1.4,0.3,4,1.3,5.4,0
		c0.6-0.6,0.8-1.4,1.7-1.7c0.6-0.1,1.3,0,1.9,0.3c5.5,2.9,7.9,5.9,7.9,5.9c2.5,3.4,4.6,7,6.4,10.9c0.3,2.4,0.6,4.7,0.9,6.8
		C147.7,202.7,147.2,203.7,147.2,204.7L147.2,204.7z"/>
	<rect x="63.2" y="82" transform="matrix(0.9801 -0.1983 0.1983 0.9801 -14.4153 22.181)" width="80.7" height="2"/>
	<path d="M259,49.7c0,0.3-0.1,0.7-0.2,1.1l-71.2,15l-0.4-2L259,49.7z"/>
	<path d="M212.6,221.6v1L169,185.8l1.3-1.6l41.9,36.4v0.5C212.3,221.4,212.4,221.5,212.6,221.6z"/>
	<path d="M232,58.8h-1.2v-0.9c0.5-0.1,0.8-0.7,0.6-1.1c-0.1-0.4-0.5-0.7-0.9-0.6c-0.5,0-0.9,0.4-0.9,0.9c0,0.4,0.3,0.7,0.6,0.9v0.9
		h-2.9v-0.3c0.4-0.1,0.6-0.5,0.6-0.9c0.1-0.5-0.3-1-0.8-1c-0.5-0.1-1,0.3-1,0.8c0,0.1,0,0.1,0,0.2c0,0.4,0.3,0.7,0.6,0.9v0.3h-1.2
		c-0.4,0-0.6,0.3-0.6,0.7v1.9c0,0.4,0.3,0.6,0.6,0.7h0.5c0.2,0.2,0.5,0.4,0.7,0.6c0.3,0.2,0.6,0.4,0.9,0.5h2.2c0-0.2,0-0.4,0-0.6
		c0.4,0,0.8-0.1,1.2-0.2c0.2-0.1,0.4-0.2,0.6-0.4c0.4-0.3,0.8-0.8,0.9-1.3v-1.3C232.6,59.1,232.3,58.8,232,58.8z"/>
	<rect x="79" y="84" transform="matrix(0.6635 -0.7481 0.7481 0.6635 -51.966 95.3558)" width="2" height="42.8"/>
	<path d="M26.2,103.2c-5.7,0.1-11.4-1.4-16.2-4.5c-1.6-1-3-2.2-4.3-3.5l0.5-0.5c1.3,1.3,2.7,2.4,4.2,3.4c8.4,5.4,19.8,5.8,33.7,1
		c4.4-1.6,8.7-3.7,12.6-6.3l0.4,0.6c-4,2.7-8.3,4.8-12.8,6.4C38.5,101.9,32.4,103.1,26.2,103.2z"/>
	<path d="M27.1,107.2c-5,0-9.9-0.7-14.7-2.2c-3.5-1.1-6.9-2.6-10-4.5l0.4-0.6c3.1,1.8,6.4,3.3,9.9,4.4c5.7,1.8,20.4,5,34.1-2.8
		c3.8-2.2,7.2-5,10.1-8.3l0.5,0.5c-2.9,3.4-6.4,6.3-10.3,8.5C41.1,105.5,34.2,107.3,27.1,107.2z"/>
	<polygon points="81.6,122.3 64,92.1 64.3,91.9 81.9,122.1 	"/>
	<rect x="70" y="94.6" transform="matrix(0.8993 -0.4374 0.4374 0.8993 -40.7483 41.7213)" width="0.4" height="29.4"/>
	<path d="M108.8,89.5c-1.3,0-2.5,0-3.8-0.2v-0.4c2.5,0.2,5,0.2,7.5,0c10.2-0.8,25.6-5.4,40.8-22.7c6.5-7.4,11.4-16,14.5-25.3
		l0.4,0.1c-3.1,9.4-8.1,18-14.6,25.5c-15.3,17.5-30.8,22.1-41.1,22.9C111.3,89.4,110,89.5,108.8,89.5z"/>
	<path d="M109.8,91.4c-0.5,0-1-0.1-1.4-0.2c-1.2-0.5-2.2-1.4-2.8-2.5l0.3-0.2c0.6,1.1,1.5,1.9,2.6,2.3c3.2,1.1,9.7-1.7,22.5-21.4
		c5.4-8.3,9.6-17.2,12.7-26.6l0.4,0.1c-3.1,9.4-7.4,18.4-12.8,26.7C122,84.1,114.7,91.4,109.8,91.4z"/>
	<path d="M205,66.9c-4-1.7-7.7-4.1-10.9-7c-9.5-8.6-12.4-19.9-13.2-25.8l0.4-0.1c0.8,5.9,3.6,17,13.1,25.6c3.2,2.9,6.9,5.2,10.8,6.9
		L205,66.9z"/>
	<path d="M548.1,208.3c1.7-0.5,3.4-1.2,4.9-2.2c1.5,1,3.1,1.7,4.8,2.2h0.1l1.1-1.6h-0.2c-1.5-0.4-2.9-1-4.2-1.8
		c0.9-0.8,1.7-1.8,2.2-2.9c0.5-1.2,0.8-2.4,0.9-3.7v-0.1h-10.1v1.6h1.1c0.4,2,1.4,3.9,3,5.2c-1.3,0.9-2.7,1.5-4.1,1.9h-0.2l0.8,1.5
		L548.1,208.3z M550.5,199.7h4.8c-0.3,1.6-1.1,3-2.3,4C551.8,202.7,550.9,201.3,550.5,199.7z"/>
	<path d="M538,186.5v7.2h18v-7.2H538z M553.9,192.2h-13.8v-1.4h13.8V192.2z M553.9,189.4h-13.8V188h13.8V189.4z"/>
	<path d="M546.7,208.3v-11.7h11.9V195h-23.2v1.6h1.9v8.4l-2.2,0.2l0.3,1.8h0.1c3.2-0.4,6.3-0.8,9.2-1.2v2.6L546.7,208.3z
		 M539.2,196.6h5.3v1.6h-5.3V196.6z M539.2,199.7h5.3v1.6h-5.3V199.7z M539.2,204.7v-2h5.3v1.3C543.2,204.3,541.5,204.5,539.2,204.7
		z"/>
	<path d="M572.4,206v0.1l1.8,0.3v-0.1c0.7-2.1,1.1-4.2,1.3-6.3v-0.1l-1.9-0.1v0.1C573.4,202,573,204,572.4,206z"/>
	<path d="M592.9,202.7l0.9-1.7l-0.1-0.1c-2-0.9-4-1.7-6-2.4h-0.1l-0.9,1.6h0.1c2,0.7,4,1.5,5.9,2.4L592.9,202.7z"/>
	<path d="M595.9,199.5l1.1-1.7h-0.2c-2-0.7-3.9-1.7-5.7-3c1.9-1.8,3.2-4,4-6.4v-0.1l-0.6-0.6h-7c0.3-0.6,0.5-1.2,0.7-1.8v-0.1
		l-2.1-0.4v0.1c-0.9,2.8-2.4,5.4-4.5,7.5l-0.1,0.1l1.3,1.1l0.1-0.1c0.9-0.9,1.6-1.9,2.3-2.9c0.7,1.3,1.7,2.5,2.8,3.5
		c-1.7,1.4-3.7,2.6-5.8,3.4h-0.1l0.8,1.5h0.1c2.3-0.9,4.5-2.1,6.5-3.6c1.8,1.4,3.8,2.6,6,3.5L595.9,199.5z M589.7,193.5
		c-1.3-1.1-2.3-2.5-3-4.1l0.1-0.1h5.8C592,191,591,192.4,589.7,193.5L589.7,193.5z"/>
	<path d="M585.1,202.8l-0.8,1.7h0.1c3.3,1.1,6.5,2.3,9.6,3.8h0.1l1-1.8l-0.1-0.1c-1.1-0.5-2.8-1.1-5-2s-3.8-1.4-4.8-1.7L585.1,202.8
		z"/>
	<path d="M578.8,208.3V198l1.6-0.2l0.2,0.9l1.8-0.4v-0.1c-0.5-1.7-0.9-3.1-1.2-4.1V194l-1.7,0.4l0.6,1.9c-1.1,0.1-2.3,0.2-3.5,0.2
		c1.9-2.3,3.7-4.7,5.3-7.2l0.1-0.1l-1.9-0.8l-0.1,0.1c-0.7,1.4-1.6,2.7-2.5,3.9c-0.5-0.6-1-1.1-1.6-1.7c1.1-1.4,2.1-2.8,3-4.3
		l0.1-0.1l-1.8-0.7v0.1c-0.7,1.4-1.5,2.6-2.4,3.9l-0.5-0.4l-0.1-0.1l-1.3,1.2l0.1,0.1c1.2,1.2,2.4,2.4,3.4,3.6
		c-0.7,0.9-1.4,1.8-2,2.6c-0.6,0-1.1,0-1.3,0h-0.2l0.3,1.8h0.1c1.3-0.1,2.5-0.2,3.6-0.2v10.1L578.8,208.3z"/>
	<path d="M580.8,204.9v0.1l1.9-0.3v-0.1c-0.4-1.9-0.7-3.5-0.9-4.7v-0.1L580,200v0.1C580.2,201.9,580.5,203.5,580.8,204.9z"/>
	<path d="M629,203.1c-2,1.3-4.3,2.1-6.7,2.3h-0.2l0.5,1.9h0.1c2.9-0.1,5.7-1.1,8-2.9c2.1-1.8,3.3-4.4,3.1-7.1c0.1-2.5-1.1-5-3.1-6.5
		c-5.1-3.5-11.9-3.1-16.5,1c-2.3,1.9-3.6,4.7-3.7,7.6c0,1.6,0.4,3.1,1.2,4.4c0.7,1.2,2,1.9,3.4,1.8c2.3,0,4.2-1.5,5.7-4.5
		c1.6-3.4,2.4-7.2,2.4-10.9c2.2,0,4.4,0.7,6.1,2c2.9,2.8,3,7.4,0.2,10.2C629.5,202.7,629.2,202.9,629,203.1L629,203.1z M619.4,199.5
		c-1.1,2.8-2.4,4.2-3.9,4.2c-0.8,0-1.6-0.4-2-1.2c-0.5-0.9-0.8-2-0.7-3c0-2.3,0.9-4.4,2.5-6c1.6-1.7,3.6-2.8,5.9-3.2
		C621.2,193.5,620.6,196.6,619.4,199.5L619.4,199.5z"/>
	<path d="M649.8,204.9c-0.6,0.4-1.3,0.8-2,1.1l-0.1,0.1l0.9,2l0.1-0.1c1.5-0.7,2.8-1.7,3.9-2.9c0.8,1,1.9,1.8,3.1,2.1
		c0.7,0.1,1.2,0.2,1.7,0.3s1,0.1,1.7,0.1s1.8,0.1,3.2,0.1h4.5h5.2l0.4-2h-0.2c-1.5,0.1-4.1,0.1-8,0.1c-2.7,0-4.6,0-5.7-0.1
		c-0.9,0-1.7-0.1-2.6-0.4c1.8-0.4,3.6-1,5.2-1.9l0.1-0.1l-0.8-1.1h4.8l-0.8,1.1l0.1,0.1c1.8,0.9,3.8,1.5,5.8,1.9h0.1l0.8-1.7h-0.2
		c-1.7-0.3-3.4-0.8-5-1.4h3.8v-8.6H656v8.6h3.6c-1.4,0.7-2.9,1.2-4.5,1.5H655l0.6,1.4c-0.5-0.2-1-0.5-1.3-0.9
		c-0.4-0.4-0.6-1-0.6-1.6v-7.9h-5.4v1.8h3.3v7.1C650.9,204.1,650.4,204.5,649.8,204.9z M658.1,195.1h9.7v1h-9.7V195.1z M658.1,197.4
		h9.7v1.1h-9.7V197.4z M658.1,200.9v-1.1h9.7v1.1H658.1z"/>
	<path d="M654.4,191.2v1.6h17.1v-1.6H664v-1h6.2v-3.7H664v-1h-2.1v1h-6v3.8h6v1L654.4,191.2z M664,187.8h4.1v1.1h-4L664,187.8z
		 M658,188.9v-1.1h3.9v1.1H658z"/>
	<path d="M652.1,191.6l1.9-1.1l-0.1-0.1c-0.9-1.5-2-3-3.1-4.4l-0.1-0.1L649,187l0.1,0.1c1.1,1.4,2.1,2.9,2.9,4.4L652.1,191.6z"/>
	<path d="M700.4,203.1h6.1v-1.8h-6.1v-2.6h7.1V197h-7.1v-2.2h-2.2v2.2h-3.4c0.3-0.5,0.5-1.1,0.7-1.6l0-0.1l-2.1-0.4v0.1
		c-0.8,2.1-1.9,4.1-3.4,5.8l-0.1,0.1l1.5,1l0.1-0.1c0.9-0.9,1.7-1.9,2.3-3h4.4v2.6h-5.8v1.8h5.8v3.1h-8.4v1.7h14.9
		c-16.3,14-43,31.6-78.9,38.4c-17.1,3.2-48.9,9.2-82.6-6.7c-16.3-7.8-30.6-19.4-41.6-33.7c0.5-0.4,0.9-0.7,1.4-1.2
		c1.4-1.4,2.5-3.1,3.3-5c1.7-4.8,1.7-10.1,0-15c-0.7-1.9-1.8-3.6-3.2-5c-2.2-2.3-5.2-3.7-8.4-3.9h-27.5c-1.7-0.1-3.5-0.3-5.1-0.8
		c-1-0.3-2.1-0.7-3-1.3h87.9c1.8,0.3,3.6,0.5,5.4,0.5c1.8,0,3.7-0.2,5.5-0.5h56.4c0.3,0,0.6,0,0.9,0.1c0.7,0,1.4,0,2.2-0.1h21
		l35.5-0.7c2,0.4,4.1,0.6,6.2,0.6c4.4,0,8.8-1,12.8-3c3.8-1.9,7.2-4.6,9.8-8c0.7-0.9,1.4-1.9,2-2.9c0.6-1,1.1-2,1.6-3.1h-13.1
		c-1.6,1.8-3.6,3.2-5.8,4.3c-2.2,1-4.7,1.5-7.2,1.5c-2,0-4.1-0.3-6-1c-1.9-0.7-3.6-1.7-5.1-2.9c-1.5-1.2-2.8-2.7-3.9-4.4
		c-1.1-1.7-1.8-3.6-2.2-5.5h45.8c0.2-1.2,0.3-2.5,0.3-3.7c0-6.4-2.2-12.7-6.2-17.7c-2.6-3.4-6-6.2-9.8-8.1c-4-2-8.3-3-12.8-3
		c-3.9,0-7.7,0.7-11.2,2.2c-6.9,2.9-12.4,8.4-15.3,15.4c-3,7.2-3,15.3,0,22.5c2.9,6.9,8.4,12.4,15.3,15.3c1.4,0.6,2.9,1.1,4.4,1.4
		l-49.4-0.9c1.6-0.8,3.1-1.9,4.4-3.1c1.7-1.5,3-3.3,4-5.4c1-2.1,1.6-4.4,1.6-6.7c0.1-1.8-0.2-3.7-0.8-5.4c-0.6-1.7-1.4-3.3-2.4-4.8
		c-0.7-0.9-1.5-1.8-2.4-2.6l-0.5-0.6c-1.2-1-2.5-1.9-3.9-2.5c-1.8-1-3.6-1.9-5.4-2.8s-3.4-1.7-4.8-2.5c-0.8-0.3-1.6-0.8-2.2-1.4
		c-0.6-0.6-1-1.3-1.1-2.1c-0.1-0.2-0.1-0.5-0.1-0.8c0-1.3,0.7-2.5,1.8-3.2c1.3-0.9,2.8-1.3,4.3-1.2c1.2,0,2.3,0.3,3.3,0.9
		c0.9,0.5,1.6,1.2,2.1,2.1l9.2-6.3c-1.5-2.3-3.5-4.3-6-5.6c-2.6-1.4-5.5-2.2-8.5-2.3c-2.3-0.1-4.6,0.3-6.8,1.1
		c-2,0.7-3.9,1.9-5.5,3.3c-1.6,1.4-2.8,3.1-3.8,4.9c-1,1.9-1.5,4-1.5,6.1c-0.1,2.1,0.3,4.2,1.2,6.2c0.9,1.9,2.1,3.6,3.6,5.1l0.3,0.3
		v0.1c1.1,0.9,2.2,1.8,3.5,2.4c1.2,0.7,2.5,1.4,3.8,2s2.5,1.2,3.8,1.8c1.2,0.5,2.3,1.1,3.4,1.7l-0.1,0.1c0.3,0.1,0.7,0.2,1,0.4
		c1.3,0.7,2.3,1.8,2.8,3.1c0.1,0.1,0.1,0.2,0.1,0.4c0,0.1,0,0.3,0.1,0.4v0.2c0.1,0.4,0.1,0.7,0.1,1.1c0,1.7-0.8,3.2-2.1,4.2
		c-2.8,2-6.5,2.1-9.3,0.2c-1.2-0.8-2-2-2.4-3.3l-9.4,6.6c1.5,2.8,3.7,5.1,6.4,6.7c0.4,0.2,0.8,0.4,1.1,0.6l-25.3-0.5v-26.1
		c0-3.9-0.8-7.8-2.3-11.4c-1.5-3.5-3.6-6.6-6.3-9.3c-2.7-2.6-5.8-4.7-9.3-6.2c-7.2-3-15.4-3-22.6,0c-7,3-12.5,8.5-15.4,15.5
		c-1.1,2.5-1.8,5.1-2.1,7.8c-0.7,0.4-1.5,0.8-2.3,1.1c-4.5,1.8-8.9,2-12.2,0.4c-6.3-2.9-8.3-11.8-8.9-15.7h2v-11.2h-28.7
		c-3.4,0-6.7,0.7-9.8,2c-6,2.6-10.8,7.4-13.4,13.4c-2.5,5.9-2.6,12.5-0.4,18.5c1,2.7,2.4,5.2,4.3,7.4c-2.4,1.3-4.4,3.1-6,5.2
		c-1.3,1.8-2,3.8-2.2,6l-29.4-0.5c2.2-1.6,4.1-3.5,5.8-5.6c0.7-0.9,1.4-1.9,2-2.9c0.6-1,1.2-2,1.6-3.1h-13.2
		c-1.6,1.8-3.6,3.2-5.9,4.3c-2.2,1-4.7,1.5-7.1,1.5c-2,0-4.1-0.3-6-1c-1.9-0.7-3.6-1.7-5.1-2.9c-1.5-1.2-2.8-2.7-3.9-4.4
		c-1.1-1.7-1.8-3.6-2.2-5.5h45.8c0.2-1.2,0.3-2.5,0.3-3.7c0-6.4-2.2-12.7-6.2-17.7c-2.6-3.4-6-6.2-9.8-8.1c-4-2-8.3-3-12.8-3
		c-3.9,0-7.7,0.7-11.2,2.2c-6.9,2.9-12.4,8.4-15.4,15.3c-3,7.2-3,15.3,0,22.5c1.4,3.4,3.5,6.5,6.2,9.2c0.8,0.8,1.7,1.6,2.6,2.3
		l-28.3-0.5v-4.9h-32.6V97.6c5.3-3.2,6.9-10.1,3.7-15.4c-3.2-5.3-10.1-6.9-15.4-3.7c-5.3,3.2-6.9,10.1-3.7,15.4
		c0.9,1.5,2.2,2.8,3.7,3.7v68.5l-72.9-1.3c0.2,2.9,0.5,5.9,0.7,8.8h5.3c7.2,14,17.1,26.5,29.1,36.9c20.8,17.7,48,28.1,78.5,30
		c3.4,0.2,6.9,0.3,10.3,0.3c23.7,0,47.2-4.9,69-14.4c11.3-5,21.9-11.3,31.6-18.9c2.1,0.5,4.2,0.7,6.3,0.8h27.2
		c1.5,0,2.9-0.3,4.3-0.9c0.8-0.3,1.6-0.7,2.3-1.2c11.2,14.4,25.5,26,41.9,33.9c15.2,7.1,31.9,10.8,48.7,10.6c14,0,26-2.2,34.4-3.8
		c36.5-6.9,63.5-24.9,79.9-39.1h2.8v-1.7h-8.2L700.4,203.1z M670.3,130c2.8-1.9,6.2-2.8,9.5-2.8c2.7,0,5.3,0.6,7.8,1.8
		c2.4,1.2,4.5,2.8,6.1,4.9c0.4,0.5,0.7,1.1,1,1.6s0.7,1.1,1,1.7h-31.8C665.3,134.3,667.5,131.8,670.3,130z M390.1,130
		c2.8-1.9,6.2-2.8,9.5-2.8c2.7,0,5.3,0.6,7.8,1.8c2.4,1.2,4.5,2.8,6.1,4.9c0.4,0.5,0.7,1.1,1,1.6s0.7,1.1,1,1.7h-31.8
		C385.1,134.3,387.3,131.8,390.1,130L390.1,130z M315.1,83.1c2.8,0,5.1,2.3,5,5.1s-2.3,5.1-5.1,5c-2.8,0-5.1-2.3-5-5.1c0,0,0,0,0,0
		c0-2.8,2.2-5,4.9-5.1C315,83.1,315,83.1,315.1,83.1L315.1,83.1z M565.7,170.9c1.5-0.8,3-1.7,4.4-2.8v2.9L565.7,170.9z M545.4,128.7
		c4.4-1.9,9.4-1.9,13.9,0c2.1,0.9,4,2.2,5.6,3.9c1.6,1.6,2.9,3.6,3.8,5.7c1,2.2,1.4,4.6,1.4,7c0,2.4-0.5,4.7-1.4,6.9
		c-0.9,2.1-2.2,4-3.8,5.7c-1.6,1.6-3.5,2.9-5.6,3.8c-4.4,1.9-9.4,1.9-13.9,0c-2.1-0.9-4-2.2-5.6-3.8c-1.6-1.6-2.9-3.6-3.8-5.7
		c-0.9-2.2-1.4-4.5-1.4-6.9c0-2.4,0.5-4.8,1.4-7c0.9-2.1,2.2-4,3.8-5.7C541.4,130.9,543.3,129.6,545.4,128.7L545.4,128.7z
		 M460.6,136c0.7-1.7,1.7-3.2,3-4.5c1.3-1.3,2.8-2.3,4.4-3c3.5-1.5,7.4-1.5,10.9,0c1.7,0.7,3.2,1.7,4.4,3c1.3,1.3,2.3,2.8,3,4.5
		c1.5,3.5,1.5,7.4,0,10.8c-0.7,1.7-1.7,3.2-3,4.4c-1.3,1.2-2.8,2.2-4.4,2.9c-3.5,1.5-7.4,1.5-10.9,0c-3.3-1.4-6-4-7.4-7.4
		C459.1,143.4,459.1,139.5,460.6,136L460.6,136z M458.3,168c1-0.7,2-1.2,3.1-1.5h13.4c9.7-0.5,18.2-6.6,21.9-15.6
		c1.2-3,1.9-6.2,1.9-9.5c0-2.5-0.4-5-1.1-7.4c-0.7-2.3-1.7-4.6-3.1-6.6h4.9c0.6,4,2.6,13.3,9.3,16.4c1.7,0.8,3.5,1.1,5.4,1.1
		c2.5,0,5-0.6,7.4-1.6c0.6-0.3,1.3-0.6,1.9-0.9c-0.1,0.9-0.1,1.8-0.1,2.6c0,3.9,0.8,7.7,2.3,11.3c2.5,5.9,6.9,10.8,12.5,14
		l-80.5-1.5C457.7,168.6,458,168.2,458.3,168z M443.1,173.6c-10.8,14.5-30.8,35.4-61.6,44.4c-45.5,13.3-97.1-4.1-132.5-44.4
		L443.1,173.6z M494.2,197h-26.9c-1.8-0.1-3.5-0.4-5.2-0.8c-1.2-0.3-2.4-0.9-3.5-1.6c-1-0.6-1.6-1.7-1.6-2.8h-11.2
		c-0.1,2.5,0.6,5,1.9,7.2c1.3,2,3,3.8,5,5.1c2.1,1.4,4.4,2.4,6.9,3.1l0.5,0.1c-9.6,7.4-20,13.5-31,18.4
		c-43.9,19.5-111.8,22.8-157.1-15.8c-11.8-10.2-21.6-22.5-28.7-36.3h4.9c27.7,31.8,65.4,49.5,102.4,49.5c10.6,0,21.1-1.5,31.2-4.4
		c31.3-9.1,51.5-30.5,62.3-45.1h2c0.3,1.5,0.8,2.9,1.6,4.2c1.3,2,3,3.8,5,5.1c2.1,1.4,4.4,2.4,6.9,3c2.5,0.7,5.1,1,7.8,1h27
		c0.2,0,0.3,0.1,0.4,0.2c0.3,0.2,0.5,0.4,0.7,0.7c0.3,0.5,0.5,1,0.7,1.6c0.2,0.9,0.3,1.8,0.3,2.7C496.3,195.3,495.6,196.9,494.2,197
		L494.2,197z"/>
	<path d="M687.7,196.4c0,4.6-0.8,8.2-2.4,10.6l-0.1,0.1l1.4,1l0.1-0.1c1.1-1.5,1.8-3.2,2.2-5c0.6-2.3,0.8-4.7,0.8-7.1v-2h18.9v-1.6
		h-6.2l1.6-3.2h3.9v-1.7h-9.5v-1.8h-2.2v1.8h-9.5v1.7h4l1.3,3.2h-4.5L687.7,196.4z M701.7,189l-1.4,3.2h-5.9l-1.3-3.2H701.7z"/>
</g>
</svg>
